<?xml version="1.0" encoding="utf-8"?>
<!-- Generator: Adobe Illustrator 17.1.0, SVG Export Plug-In . SVG Version: 6.00 Build 0)  -->
<!DOCTYPE svg PUBLIC "-//W3C//DTD SVG 1.1//EN" "http://www.w3.org/Graphics/SVG/1.1/DTD/svg11.dtd">
<svg version="1.1" id="Layer_1" xmlns="http://www.w3.org/2000/svg" xmlns:xlink="http://www.w3.org/1999/xlink" x="0px" y="0px"
	 width="300px" height="300px" viewBox="0 0 300 300" enable-background="new 0 0 300 300" xml:space="preserve">
<g>
	<g>
		<path d="M86.9,33.9c0.1,0,0.3,0,0.5,0c1.3,0,2.6-0.5,3.5-1.3c0,0.9,0.2,1.1,1.3,0.6c1.3-0.6,5.5-3.1,5.5-3.1c3-0.5,5.3-1.2,6.7-2
			s1.2-1,1.7-2.1c0.5-1.1,1.5-3.1,3.5-4.9c2-1.9,3.4-2.2,4.4-2.3c1.1-0.1,2.4-0.5,2.8-0.9c0.4-0.4,0.9-1,1.7-1.5
			c0.9-0.5,1.4,0.2,1.6,0.7c0.2,0.5-0.2,1.4-2.7,2.8c-2.5,1.5-5.1,3.6-5.9,4.8c-0.8,1.2-0.5,1.2,0.2,0.7c2.7-2.3,6.7-4.7,10.5-5.5
			c3.8-0.8,7-0.5,9.3,0c2.3,0.5,3,1.5,4,2.1c1,0.6,1.3,0.9,2,1c0.7,0.1,1.2,0.2,1.4,0.4c0.2,0.3,0.3,1.2-1.2,2.3
			c-1,0.7-2.3,1.3-3.1,1.6c-0.5,0-0.9,0-1.4,0.1c-0.9-3.1-8-5.1-13.8-3.2c-4.1,1.3-6.2,2.8-7,3.4c-3.4,0-4.5,0.8-4.5,0.8
			s5,0.2,8,0.5c3,0.3,3.8,0.6,4,0.9c0,0-0.7,0.6-2.1,0.8c-1.3,0.1-6.7-0.2-9.6,2.2c-2.4,0.1-4,0.7-6,1c-2.4,0.3-3.5,0.1-3.8-0.1
			c-0.4-0.2-0.8,0.3-1,0.7c-0.2,0.3,0.5,0.7,1.9,0.7c1.3,0,2,0.2,2.9,0.4c0.9,0.2,1.1,0.6,0.4,1c-0.4,0.2-0.8,0.3-1.2,0.3
			c-0.2,0-0.4-0.1-0.6-0.1c-1.1-0.1-6.4-0.5-9.7,0.8c-2.1,0.8-3,1.8-3.4,2.3h3.8c3.6-2.2,7.6-1.9,10-1.6c-0.2,0.4-0.4,1-0.2,1.6h2
			c-0.1-0.4-0.1-1,0-1.4c1.7-0.2,2-1.9,2-1.9h1.3c2.1,0.6,2.4,2.4,2.3,3.3h1.9c0.4-2.8-1.7-4.3-2.7-4.9c4-0.1,6.6,2.9,7.5,3.9
			c0.4,0.4,0.8,0.8,1.1,1.1h3.6c-1.3-0.9-3.6-2.5-4.5-3.1c-0.5-0.4-0.9-0.7-1.1-1c1.1,0.4,4.2,1.4,7.4,0.3c3.1,1,7.2,0.9,9,0.8
			c1.6,0.7,2.3,2.1,2.5,2.9h2.8c-0.2-2.1-1.8-3.1-2.8-3.4c0.6-0.2,1.4-0.5,2.1-0.8c1-0.5,3.3-0.7,5.2-0.7c2,0,4.3,0.8,4.8,1.2
			c0.6,0.5,1,0.7,1.6,0.7c0.6,0,1.2-0.5,0.9-1.6c-0.2-0.9-3.5-6.4-10.3-7.7c2.1-1.3,3.6-3.1,4.2-3.8c0.7-0.9,1-1.9,0.6-2.3
			s-1.1-0.7-1.1-0.7s-0.7,0.3-1.8,0.3c-1.1,0-2.3-0.3-4-1.2c-1.7-0.9-4.5-2.3-8.7-2.7c-2.8-0.3-4.6,0.1-5.4,0.4c0.1-1-0.1-2.1-0.2-3
			c-0.2-1.2-0.8-1.8-1.3-1.8c-0.5,0-1.2,0.4-1.6,0.8c-0.3,0.4-0.3,1.2-1.4,1.9c-1.1,0.7-2.2,0.7-4.1,1.6c-1.9,0.8-4,2.1-5.6,3.8
			c-1.6,1.7-1.6,2.8-2.5,4c-0.9,1.2-2.4,2.5-3.5,2.9c-1.1,0.3-2.7,0.6-4.9,1.3c-1.4,0.4-3.3,1.4-4.6,2.1c0.3-0.7,0.5-1.5,0.5-2.3
			c0-2.9-2.4-5.3-5.3-5.3s-5.3,2.4-5.3,5.3c0,2.1,1.2,3.9,2.9,4.7c-0.6,1-1.8,2.4-3.2,3.8c-1.3,1.2-2.8,2.2-3.7,2.8h3
			C86,37.6,86.8,35.1,86.9,33.9z M117.8,33.7c-2.6,0-4-0.5-4.6-0.9c0.5-0.3,1.5-0.7,2.7-0.9c1.8-0.3,3.7-0.1,5.9-1.2
			c2.2-1.1,2.3-2.5,2.3-2.5c-1-0.4-4.5-0.5-5.8-0.4c-0.8,0.1-1.1,0.1-2.1,0c2.8-2.7,7.3-3.2,8.7-3.3c1.4-0.1,3.3,0.6,4.7,1.3
			c1.4,0.7,2.1,1.4,2.1,1.9s-0.5,0.9-1.1,1.2s-3.3,1.9-4.8,3c-0.7,0.5-1.2,1-1.5,1.3C122.8,33.3,120.3,33.7,117.8,33.7z M139.2,29.7
			c2.9,0.7,4.8,3.8,4.8,3.8c-2.9-0.2-7.8,0.3-10.1,1.1c-2.3,0.8-3.5,1.2-5.7,1.1c-2.3-0.1-3.3-0.8-3.3-0.8c0.6-0.3,1.8-1.4,2.2-1.9
			c0.4-0.5,3-2.8,4.4-3.5S136.3,29,139.2,29.7z M84.1,28.7c0-1.8,1.5-3.3,3.3-3.3s3.3,1.5,3.3,3.3c0,1.8-1.5,3.3-3.3,3.3
			S84.1,30.5,84.1,28.7z"/>
		<path d="M70.5,37.3c1.1-1.4,1.1-1.7,1.3-1.7c0.2,0,1.1,1,1.2,1.9c0.1,0.8,0,1.7-0.4,2.5h2.3c0-1.1-0.1-3.7-0.7-5.5
			c-0.8-2.4-1.9-3.4-2.5-2.9c-0.7,0.5-0.9,1.4-1.2,1.9c-0.3,0.4-2.8,4.3-6,6.5h3.4C68.5,39.3,69.7,38.2,70.5,37.3z"/>
		<path d="M291.7,131.3c-1.7-0.8-4.8-1.5-6.9-0.5c0.2-0.9,0.3-1.9,0.4-2.8c0.1-0.7,0.2-2.8,0-4.1s-0.4-3.3-0.4-4.9
			c0-1.6,0.1-5.1,0.4-5.9c0.2-0.8,0.6-2.7,0.3-3.3c-0.3-0.6-0.9-0.7-1.3-0.5c-0.1,0-0.7,0.3-1.5,0.8c0-0.9-0.2-2.9-0.9-4.4
			c-1-2-1.4-2.8-1.4-5.3c-0.1-2.5,0.3-4.6,0.9-5.3c0.5-0.7,1.9-2.5,1.2-3.7c-0.7-1.2-2.4-1.1-3.5-0.5c-1,0.6-4.1,2.8-5.6,6.4
			c-1.3,3.1-1.7,6.4-1.7,7.8c-0.9,0.2-1.8,1.2-2.6,2.4c-0.8-0.8-3-3.2-3.4-7.5c-0.1-0.7,0.2-3.1,0.9-5.1c1.3,0.6,2.9,0.8,4.4,0.4
			c3.6-0.8,6-4.3,5.2-7.7c-0.8-3.4-4.4-5.5-8-4.7c-3,0.7-5.1,3.2-5.3,6c-0.1,0.1-0.2,0.2-0.3,0.3c-0.4,0.5-0.9,1-1.1,1.7
			c-0.4-0.4-1.3-1.4-2.5-3c-1.5-2.1-2.4-4.4-3.2-6.5c0.7-0.2,2.4-0.7,3.8-2.2c1.8-2,1.9-4,2.2-5.8s1.1-3.5,2-4.5
			c0.9-1,2.5-1.6,2.5-2.5c0.1-0.8-1.5-1.9-4.3-2.2c-2.4-0.2-4.7,0.7-6.1,1.7c-0.2-2.4-0.6-4.4-1.4-6.3c-0.8-2-1.4-2.1-2.5-4
			c-1.1-1.9-1.3-4.2-1.3-5.2c0-1,0.4-1.7,0.4-2.5c0.1-0.8-0.4-1-1.3-1c-1,0.1-1.8,0.6-2.6,1.4c-0.6,0.6-1.5,1.7-2,2.2
			c-1-2-2.7-3.2-3.3-3.6c0,0.8,0,1.6,0,2.5c0.4,0.3,1.5,1.2,2.1,2.5c0,0-1.4,2.2-2.1,4.4c0,1.1,0,2.1,0,3.3
			c1.3,0.7,7.4,4.8,7.4,15.8l-0.6,0.3c0,0-3.5-5-6.8-7.3c0,1.5,0,2.9,0,4.4c0.8,0.8,3.3,3.6,3.6,7.5c0,0-2.2-0.4-3.6-0.9
			c0,0.7,0,1.4,0,2.1c0.3,0.1,0.8,0.2,1.5,0.5c0,0-1,0.8-1.5,1.3c0,0.5,0,1,0,1.4c0.4-0.3,1.5-1,2.9-1.3c2-0.4,2.9,0.3,3.3,0.9
			s0.9,1.3,1.1,1.5c0,0-2.1-0.4-3.7-0.1c-1.4,0.3-2.9,1.1-3.6,1.5c0,0.8,0,1.5,0,2.2c1-0.7,4.5-3,8.4-2.1c0,0,3.1,3.7,4.4,7.7
			c0,0-2-0.3-3.6-0.2c-1-1.4-2.7-2.3-4.6-2.3c-1.9,0-3.5,0.9-4.6,2.3c0,1.5,0,2.5,0,3.1c0,1,0,2.2,0,3.6c1,1.4,2.7,2.3,4.6,2.3
			c0.5,0,1-0.1,1.4-0.2c0.5,0.4,1.2,1.2,1.6,2.6c0.7,2.5-0.2,4.1-0.3,8c-0.1,2.2,0.1,3.7,0.2,4.6c-3.4-2.3-5.3-2.1-5.8-1.8
			c-0.5,0.3-0.9,1.2-0.4,2.7c0.3,1.1,1.9,4.5,2.8,6.3c-1.7-0.3-4.2-0.6-5.5-0.4c-0.1,0.8-0.2,1.5-0.4,2.3c-0.1,0.4-0.2,1.4-0.5,2.9
			c1.9,1.5,3.4,4.3,3.8,5.2c0.5,1,1,2.9,4.7,6c2.5,2.1,4.6,3,5.7,3.3c0.2,0.4,0.4,0.6,0.6,0.8c-1.4-0.6-3.1-0.8-4.7-0.4
			c-3.6,1-5.9,4.6-4.9,8c0.9,3.5,4.6,5.5,8.3,4.5c0.9-0.2,1.7-0.7,2.4-1.2c4,1.1,6.3,3.7,7.1,6.8c0.6,2.5,0.2,4.7-0.1,5.8
			c-0.6-0.4-1-0.3-1.2-0.2c-0.5,0.3-1,1.6-0.9,3c0.1,1,0.1,2.3,0,3.6c-2.5-1.6-1.9-8-1.8-8.8c0.1-0.8,0.2-2.1-0.1-2.5
			c-0.2-0.4-1.7-0.1-2.4,0.3c-2.8,1.8-5,6.1-5.6,7.4c-1.6-3.8-4.9-7.3-5.7-7.8c-0.9-0.5-1.6-0.4-2.2,0.2c-0.5,0.6-0.4,1-0.3,1.6
			c0.1,0.6,0.9,4.3-0.3,7.1c-0.8,2-2,3-2.6,3.3c-0.9-0.8-3.7-3.1-5.6-3.6c0,0-0.9-0.2-0.9,9c-0.1,9,0.1,14.4,0.3,16.3
			c-2.1,0.4-4.2,1.6-5.1,3.2c-0.6,1.1-0.9,2.2-0.9,3.3c-0.2-2-0.7-3-1.1-3.4c0.2-0.6,0.4-1.3,0.4-2.1c0-3.4-2.8-6.2-6.2-6.2
			s-6.2,2.8-6.2,6.2c0,3.4,2.8,6.2,6.2,6.2c0.2,0,0.5,0,0.7,0c0.2,0.2,0.5,0.6,0.5,1.3c0,1.2-0.2,2.1-0.4,2.7
			c-0.1,0-0.2,0.1-0.3,0.1c-5.2,1.5-9.2,6.5-8.8,9.6c0.4,3.1,3.1,4.9,4,4.7s1.6-0.1,2.3,0.7c0.7,0.8,1,1.6,0.9,2.1
			c-0.1,0.5-1.4,1.2-1.9,1.3c-0.5,0.1-2.4-0.3-4.7,0.3c-1,0.3-1.8,0.6-2.5,1c-0.1-0.9-0.5-3.7-0.3-4.8c0.2-1.4,0.7-2.6,0.4-3
			s-1.6-0.3-2.6,0.2c-1,0.5-2.1,0.9-4.7,3.3c0-2.5,0.1-5.7,0-7c-0.1-1.5-0.5-3.7-1.1-4.3c-0.6-0.7-1.8-0.3-3.5,1.4
			c-1.6,1.6-4.1,5.1-6.3,9.2c-0.2-0.6-0.6-1.4-1-1.7c-0.6-0.5-1.3-0.3-2.2,0.4s-1.3,1.5-1.4,2.1c-0.1,0.6-0.5,2.4-2.1,4
			s-4.8,4.9-6,6.3c-1.1,1.2-3.7,3.9-4.9,5.4c-0.3-0.5-1-1.5-2-1.9c-1.4-0.6-2.2,0.1-3.1,1.2c-0.9,1-2.7,3.6-2.9,8
			c-4,0.7-8.2,1.1-12.5,1.2c-1.1,0.7-2.2,1.3-3.3,2c6.8,0.1,11.3-0.5,13.1-0.8c15.2-2.2,23.8-6.1,29.7-8.7
			c5.9-2.5,13.7-7.5,15.8-9.1c2.1-1.6,2.6-2,4.9-2.5c2.3-0.5,3.2,0.2,4.6-0.4c1.4-0.6,2.3-1.4,2.7-2.6c0.3-1.2-0.2-2.5-1.6-4
			s-2.8-1.3-3.3-1.3c-0.5,0-1-0.4-1.5-1.1c-0.5-0.7-1.1-1.7-0.4-3.4c1.8-3.3,3.9-4.8,7.9-6.1c3.9-1.3,8-0.7,9.5-0.3
			c1.6,0.3,2.4,0.2,3,0c0.6-0.2,3.5-2.3,4-3.9c0.5-1.6-0.4-2.5-1.3-3.3c-0.9-0.7-2-0.3-2.7-0.2c-0.6,0.1-0.5,1.2,0.3,1.1
			c0.8,0,1.4,0.3,1.3,2c0,1.7-1,2.5-2,2.6c-1,0.1-1.4-0.1-1.7-0.5c-0.3-0.4-1.3-1.1-2.1-1.8s-1.7-1.5-1.2-3.3c0.5-1.8,3-3.4,5.6-3.4
			c2.5,0,5,1.6,6.4,2.8s7.3,6.9,9.1,8.6c1.8,1.6,8.8,8.3,11.1,10.6c2.3,2.3,2.5,5.1,1.7,7.8c-0.9,2.7-4.4,6.1-6,7.2
			c-1.6,1.1-3.7,1.7-5.7,1c-2-0.6-3.1-1.3-4-2.4c-0.9-1.1-4.5-5.6-5.8-7.4c-1.4-1.8-8.3-10.5-9.5-12.1s-3.6-2.9-5.9-3.4
			c-2.3-0.5-5-0.1-7.5,1.5c-2.4,1.6-3,3.1-2.5,4.2c0.5,1.1,1.7,1.5,3.5,1.8c2.3,0.3,3.8,1.9,5.7,3.8c1.9,1.9,7.4,8.3,8.6,9.7
			c1.2,1.4,7.3,8.5,8.1,9.4c0.7,0.8,1.6,3.1,1.8,5c0.2,1.9-0.1,4.5-2.4,6.7c-2.3,2.2-4.1,2.7-4.7,2.9c-0.7,0.1-1.7,0.1-3,0.4
			c-1.3,0.3-2.6,0.9-4.1,2c-1.5,1.2-6.8,4.5-8.6,5.7c-13.1,8.4-27,13.1-30.5,14.3c-9.3,3.1-22.2,5.6-31.4,5.9s-16.4,0.5-28.4-1.3
			s-23.2-5.6-30.5-8.5c-7.3-2.8-11.9-5.4-15.3-7.2c-3.4-1.8-8.1-4.6-9.5-6c-1.4-1.4-5-3.7-7.8-4.7s-5.1-1.2-7.8-3.6
			c-2.7-2.4-2.8-5.1-2.7-7.3c0.1-2.2,0.9-3.6,1.6-4.4c0.6-0.8,10.3-11.8,11.1-12.7s5.7-7,8.1-9c2.4-2,3.1-1.7,4.3-2
			c1.2-0.3,2-1.2,1.9-2.2c-0.1-1-1.9-2.8-3.8-3.9s-3.8-1.6-6.2-1c-2.4,0.5-3.8,2.2-4.8,3.2c-0.9,1-4.7,5.6-5.9,7
			c-1.1,1.4-8.2,10-8.9,10.7c-0.7,0.8-2.5,3.4-3.6,4.1c-1.1,0.7-2.8,1.2-5.9,0.5c-3.1-0.7-6.4-3.7-7.5-6.9c-1.2-3.2-0.2-6.3,0-7
			c0.2-0.6,0.7-1.1,1.4-1.7c0.7-0.6,9.3-8.7,10.7-10c1.3-1.3,11.1-10.5,11.7-11.1c0.6-0.6,4.5-1.8,6.5-1.2c2.1,0.6,3.4,1.6,3.3,4.6
			s-1.8,4.3-3.6,4.3c-1.9,0-3-1.9-3.1-3.2c-0.1-1.3,0.8-1.4,1.2-1.3c0.4,0,0.5,0,0.6-0.2c0.2-0.2-0.1-0.7-0.8-1c-0.7-0.3-2.2,0-3,1
			c-0.8,1-0.8,3.1,0.9,5c1.7,1.9,3.8,2.3,6.6,1.4c2.8-0.9,5.1-0.4,5.1-0.4c4.9,0.8,9.5,4.2,10.9,6.3c1.4,2.1,1.6,4,0.6,4.9
			c-0.9,0.9-1.6,0.6-3,0.5c-1.4-0.1-3,0.6-3.9,2.8c-0.9,2.2,0.7,3.5,1.8,4.2c1.1,0.7,2.2,0.6,3.8,0.5c1.6-0.1,3.4,0.4,5.1,1.4
			c1.7,1.1,6.7,4.3,7.9,5.1c17.6,10.8,34.6,13.4,36.1,13.7c6.1,1,11.4,1.3,15.8,1.4c-1.1-0.7-2.2-1.3-3.3-2c-0.8,0-1.7-0.1-2.5-0.1
			c-0.8-0.1-4.5-0.3-9.7-1.3c-0.2-4.2-2-6.6-2.9-7.7c-1-1.1-1.8-1.8-3.2-1.2c-1,0.4-1.7,1.4-2,1.9c-1.2-1.4-3.9-4.2-5-5.4
			c-1.3-1.4-4.5-4.7-6.1-6.3c-1.6-1.6-2-3.4-2.2-4c-0.1-0.6-0.6-1.3-1.4-2.1s-1.6-0.9-2.2-0.4c-0.4,0.3-0.8,1.2-1.1,1.7
			c-2.2-4.1-4.8-7.6-6.5-9.2c-1.7-1.7-2.9-2.1-3.6-1.4c-0.6,0.7-1,2.8-1.1,4.3c-0.1,1.3,0,4.6,0,7.1c-2.7-2.4-3.8-2.9-4.8-3.3
			c-1.1-0.5-2.3-0.6-2.7-0.2c-0.4,0.4,0.2,1.7,0.4,3c0.2,1-0.1,3.1-0.2,4c-1.2-0.5-3-1-5-1c-2.9-0.1-2.3,0.1-3.1-0.4
			c-0.8-0.5-0.9-1.1-0.4-1.9c0.5-0.8,0.7-1.4,2.1-1.3c1.4,0.1,3,0,4.2-1.2c1.2-1.2,1.3-3.2,0.8-4.9s-2-4-5.2-6.2
			c-1.5-1-3.2-2-5.1-2.6c-0.4-2.1-0.2-3.3,0-3.9c0.5,0.2,1.1,0.2,1.7,0.2c3.4,0,6.2-2.8,6.2-6.2s-2.8-6.2-6.2-6.2
			c-3.4,0-6.2,2.8-6.2,6.2c0,0.6,0.1,1.2,0.3,1.8c-0.5,0.4-1.3,1.5-1.4,3.7c0,0.1,0,0.3,0,0.4c0,1.9,0.1,2.8,0.1,3.2
			c-0.4,0-0.7,0-1.1,0.1c0.3-0.5,0.9-1.7,1-3.3c0-0.1,0-0.2,0-0.3c0,0,0-0.1,0-0.1c0-0.2,0-0.4,0-0.6c-0.2-2.8-1-4.3-3.5-5.4
			c-0.5-0.2-1-0.4-1.6-0.4c0.2-2.2,0.3-7.5,0.2-15.9c-0.1-9.2-0.9-9-0.9-9c-1.9,0.5-4.7,2.7-5.6,3.6c-0.6-0.4-1.8-1.3-2.6-3.3
			c-1.2-2.8-0.3-6.5-0.3-7.1c0.1-0.6,0.2-1-0.3-1.6c-0.5-0.6-1.2-0.6-2.2-0.2c-0.9,0.4-4.1,3.9-5.7,7.8c-0.6-1.3-2.8-5.6-5.6-7.4
			c-0.7-0.4-2.2-0.7-2.4-0.3c-0.2,0.4-0.2,1.7-0.1,2.5c0.1,0.7,0.7,7.2-1.8,8.8c-0.2-1.3-0.2-2.6,0-3.6c0.2-1.3-0.4-2.7-0.9-3
			c-0.2-0.1-0.6-0.2-1.2,0.2c-0.3-1-0.7-3.3-0.1-5.8c0.8-3.2,3.1-5.8,7.2-6.8c1,0.7,2.3,1.2,3.7,1.2c3.6,0,6.4-2.9,6.4-6.4
			c0-3.6-2.9-6.4-6.4-6.4c-0.9,0-1.8,0.2-2.6,0.6c0.1-0.2,0.3-0.4,0.4-0.6c1.1-0.4,3.2-1.3,5.8-3.4c3.7-3.1,4.2-5,4.7-6
			c0.4-0.9,1.7-3.3,3.5-4.9c-0.2-1.2-0.4-2.1-0.5-2.7c0,0.1,0,0.1,0,0.2c-0.2,1.1-1.8,3.2-2.7,4.3c-0.9,1-2.7,3.2-3.7,4.6
			c-0.9,1.3-2.7,3.4-5.2,4.7c0.6-1.1,1.1-2.3,1.5-3.5c1.3-3.9,1.3-4.6,2-6.6c0.5-1.4,1.2-3.1,1.7-4.2c0.7-0.3,1.9-0.7,3.3-0.7
			c1.8,0,2.8,0.2,3.1,0.7c0-0.1,0-0.2-0.1-0.3c-0.1-0.7-0.2-1.4-0.3-2.1c-1.4-0.1-3.6,0.1-5.1,0.4c0.9-1.8,2.5-5.1,2.8-6.3
			c0.5-1.6,0.1-2.4-0.4-2.7c-0.5-0.3-2.4-0.5-5.9,1.9c0.7-6.5-0.3-7.4-0.3-11c0-2.7,1.3-3.9,2-4.4c0.4,0.1,0.8,0.1,1.3,0.1
			c1.6,0,3.1-0.7,4.1-1.8c0-1.6,0-3.1,0-4.2c0-0.6,0-1.9,0-3.6c-1-1.1-2.5-1.8-4.1-1.8c-2,0-3.7,1-4.7,2.5C48,94.9,46,95.2,46,95.2
			c1.3-4,4.4-7.7,4.4-7.7c3.5-0.8,6.6,0.9,7.9,1.8c0-0.7,0-1.4,0-2.2c-0.8-0.4-1.9-1-3.1-1.2c-1.7-0.4-3.7,0.1-3.7,0.1
			c0.2-0.2,0.7-0.8,1.1-1.5s1.4-1.3,3.3-0.9c1.1,0.2,1.9,0.6,2.5,1c0-0.5,0-1,0-1.6c-0.5-0.4-1.1-0.9-1.1-0.9
			c0.4-0.2,0.8-0.3,1.1-0.4c0-0.7,0-1.4,0-2.1c-1.4,0.4-3.1,0.8-3.1,0.8c0.2-3.3,2.1-5.8,3.1-7c0-1.5,0-3,0-4.5
			c-3.2,2.4-6.4,7-6.4,7l-0.6-0.3c0-10,5.1-14.3,6.9-15.6c0-1.6,0-3.2,0-4.7c-0.7-1.8-1.7-3.2-1.7-3.2c0.5-1,1.2-1.7,1.7-2.1
			c0-0.9,0-1.7,0-2.6c-0.8,0.6-2.1,1.7-2.8,3.3c-0.5-0.6-1.4-1.7-2-2.2c-0.8-0.8-1.7-1.3-2.6-1.4c-1-0.1-1.4,0.2-1.3,1
			c0.1,0.8,0.5,1.5,0.4,2.5c0,1-0.2,3.3-1.3,5.2c-1.1,1.9-1.6,2-2.5,4c-0.8,1.9-1.2,3.8-1.4,6.3c-1.4-1-3.7-1.9-6.1-1.7
			c-2.8,0.2-4.3,1.3-4.3,2.2c0.1,0.8,1.6,1.5,2.5,2.5c0.9,1,1.7,2.7,2,4.5c0.3,1.8,0.5,3.9,2.2,5.8c1.3,1.5,3.1,2,3.8,2.2
			c-0.7,2.1-1.6,4.4-3.2,6.5c-1.2,1.6-2.1,2.6-2.5,3c-0.2-0.7-0.7-1.2-1.1-1.7c-0.3-0.4-0.8-0.9-1.2-1.3c-0.5-3-3.1-5.3-6.3-5.3
			c-3.5,0-6.4,2.8-6.4,6.4c0,3.5,2.8,6.4,6.4,6.4c1.2,0,2.3-0.3,3.2-0.9c0.9,2.1,1.2,4.9,1.1,5.6c-0.5,4.2-2.6,6.7-3.4,7.5
			c-0.7-1.2-1.6-2.2-2.6-2.4c-0.1-1.4-0.4-4.7-1.7-7.8c-1.5-3.6-4.6-5.8-5.6-6.4c-1-0.6-2.7-0.6-3.5,0.5c-0.7,1.2,0.7,3,1.2,3.7
			s0.9,2.8,0.9,5.3c-0.1,2.5-0.5,3.3-1.4,5.3c-0.7,1.5-0.9,3.5-0.9,4.4c-0.8-0.5-1.3-0.7-1.5-0.8c-0.5-0.2-1-0.1-1.3,0.5
			s0.1,2.5,0.3,3.3c0.2,0.8,0.4,4.3,0.4,5.9s-0.2,3.6-0.4,4.9s-0.1,3.4,0,4.1c0.1,1,0.2,1.9,0.4,2.8c-2.1-0.9-5.2-0.3-6.9,0.5
			c-1.8,0.9-2.3,1.7-2.2,2.9s1.3,1.1,2.9,2.6s2.6,3.1,3.6,5.7c1,2.6,3.2,6.2,6.5,8c2.4,1.4,4.9,1.6,5.9,1.6c0,3,0.3,6.9,1.3,9.8
			c-1.7-1.4-3.7-1.8-4.8-2c-0.9-2.4-3.3-4.1-6-4.1c-3.6,0-6.4,2.9-6.4,6.4c0,3.6,2.9,6.4,6.4,6.4c2.1,0,3.9-1,5.1-2.5
			c1.6,0.7,7,3.3,8.2,10.1c-2.1-1.5-5-2.9-8.7-3.5c-1.4-0.2-1.9,0.3-2,0.5c-0.1,0.2-0.3,1.2,0.3,2.8c0.6,1.6,1.4,3.3,2.1,4.4
			c0.5,0.8,0.9,1.4,1.3,2.9c-0.6,0.1-1.8,0.1-3-0.3c-1.8-0.7-2.7-1.7-3.7-2.6c-1-0.9-1.9-1.4-2.4-1c-0.6,0.4-0.9,3.1-0.5,5.7
			c0.4,2.5,2.6,8.8,6.2,14.1c-1,0.1-1.9,0.2-2.8,0.3c0,0-1.4,0.9-1.9,1.6c-0.5,0.7-0.6,1.4,0,1.9c0.6,0.5,1.3,0.5,1.7,0.5
			c0.4,0,1.4,0.3,3.6,1.6c2.2,1.2,5.3,4.1,6.6,6.5c1.3,2.4,1.2,3,1.7,3.5c0.5,0.5,2,2.2,3.2,3.2c1.1,0.9,2.9,2.6,5.4,3.5
			c-0.1,0.1-0.2,0.2-0.3,0.2c-0.3,0.3-0.7,0.8-1,2s-0.9,4.4,0,7.5c0.9,3.1,4.3,6.6,6.8,7.8c1.3,0.6,2.6,1,3.9,1.1
			c-0.7,0.1-1.5,0.3-1.9,0.4c-0.7,0.2-1.6,0.7-2.4,1.5c-0.8,0.8-1.5,1.6-1.4,2.4c0.1,0.8,1.3,1.9,2.4,2c1.1,0.1,2.6,0.5,3.8,1
			c1.3,0.5,2.3,1.1,2.7,1.5c0.4,0.4,1.9,1.8,2.8,1.8s1.4-0.5,1.1-1.2c-0.1-0.2-0.3-0.5-0.5-0.8c-0.5-0.6-1.3-1.3-2.1-1.7
			c0,0-2.4-1.3-3.9-1.6c-1.5-0.3-3-0.6-3.3-1c0,0-0.6-0.3,0.8-1c1.4-0.7,2.9-1.6,5.7-1.9c2.8-0.3,4.4,0,4.9,0c0.1,0,0.1,0,0.2,0
			c0.6-0.2,1.3-0.9,1.3-1.2c0-0.4-1-1.7-4.4-1.2c1-0.7,1.6-1.5,2.1-2.1c0.3-0.4,1.3-1.6,2.5-3c1,0.2,3.1,0.9,3.9,4
			c-0.3,0.4-0.5,0.6-0.6,0.7c-0.7,0.8-2.9,3.4-3.2,3.7c-0.3,0.3-0.9,1.1-1.3,2.5c-0.4,1.5-0.8,4.8,0.2,7.3c1,2.5,2.9,4.8,5.4,5.9
			c2.5,1.1,4,1.6,5.4,2c1.4,0.4,4.7,2.2,6.6,3.6c2,1.4,1.5,1.5,4.5,3.4c3,1.9,8.8,5.2,14.7,7.9c5.9,2.7,12.8,5.6,22.3,8.2
			s15.9,3.7,26.4,4.7s22.4,0.1,29.9-1.1c7.5-1.2,19.6-3.9,30-8.4c10.5-4.5,16.7-8.1,21.5-11s7.7-5.1,8.5-5.8c0.8-0.7,2.1-1.4,4-1.8
			c1.9-0.4,2.3-0.1,3.4-0.5c1.1-0.4,5.3-2.6,6.7-6.1s0.8-6.8-0.1-9c-0.9-2.2-1.5-2.7-2.2-3.5c-0.3-0.3-1.8-2.1-3.5-4.1
			c1.3-2.2,3.2-2.8,4.1-2.9c1.1,1.5,2.2,2.9,2.6,3.3c0.4,0.4,1.3,1.2,2.4,1.9c-3.1-0.3-3.9,0.9-4,1.3c0,0.4,0.7,1.1,1.3,1.2
			c0.1,0,0.1,0,0.2,0c0.5,0,2.1-0.3,4.9,0s4.3,1.2,5.7,1.9c1.4,0.7,0.8,1,0.8,1c-0.3,0.4-1.8,0.7-3.3,1c-1.5,0.3-3.9,1.6-3.9,1.6
			c-0.9,0.4-1.6,1.1-2.1,1.7c-0.2,0.3-0.4,0.6-0.5,0.8c-0.3,0.7,0.1,1.2,1.1,1.2c0.9,0,2.4-1.4,2.8-1.8c0.4-0.4,1.4-1,2.7-1.5
			c1.3-0.5,2.7-1,3.8-1c1.1-0.1,2.3-1.2,2.4-2c0.1-0.8-0.6-1.6-1.4-2.4c-0.8-0.8-1.7-1.3-2.4-1.5c-0.3-0.1-1-0.2-1.6-0.4
			c1.6-0.3,3.1-1.1,4.5-2.4c2.4-2.2,4.9-4.8,5.6-7.7c0.8-2.9,0.7-5.5-0.8-7.6c-0.2-0.3-0.5-0.6-0.7-0.9c2.9-0.7,4.8-2.6,6.1-3.7
			c1.2-1,2.7-2.7,3.2-3.2c0.5-0.5,0.4-1.1,1.7-3.5c1.3-2.4,4.4-5.3,6.6-6.5c2.2-1.2,3.2-1.6,3.6-1.6c0.4,0,1.1-0.1,1.7-0.5
			c0.6-0.5,0.5-1.2,0-1.9c-0.5-0.7-1.9-1.6-1.9-1.6c-0.8-0.1-1.8-0.2-2.8-0.3c3.6-5.3,5.8-11.6,6.2-14.1c0.4-2.5,0.1-5.3-0.5-5.7
			c-0.6-0.4-1.4,0-2.4,1c-1,0.9-1.9,2-3.7,2.6c-1.2,0.5-2.4,0.4-3,0.3c0.4-1.4,0.8-2.1,1.3-2.9c0.7-1.1,1.5-2.8,2.1-4.4
			c0.6-1.6,0.4-2.6,0.3-2.8c-0.1-0.2-0.6-0.8-2-0.5c-3.7,0.6-6.6,2-8.7,3.5c1.1-5.9,5.3-8.7,7.4-9.7c1.6,1.9,4.2,2.8,6.9,2.2
			c3.7-0.8,6.1-4.4,5.3-7.9c-0.8-3.5-4.5-5.6-8.2-4.8c-2.3,0.5-4,2-4.9,3.9c-1.1,0.2-2.7,0.7-4,1.8c1-2.9,1.2-6.8,1.3-9.8
			c1,0,3.4-0.2,5.9-1.6c3.2-1.9,5.5-5.4,6.5-8c1-2.6,2-4.2,3.6-5.7c1.5-1.6,2.7-1.4,2.9-2.6C294,133.1,293.5,132.2,291.7,131.3z
			 M168.8,247.9c-0.2-4.2,0.7-6.2,1.1-6.8c0.4-0.6,1.8-0.5,2.8,1.1c0.9,1.3,0.9,3.7,0.9,4.6C172.1,247.2,170.5,247.6,168.8,247.9z
			 M181.5,244.5c0.9-2.2,2.2-3,2.2-3c-0.3,1-0.3,1.9-0.3,2.4C182.8,244.1,182.2,244.3,181.5,244.5z M185.9,242.9
			c-0.1-0.7-0.3-2.7,0-5.3c0.3-3,1.3-4.1,1.7-4.7c0.4-0.6-0.1-1.2-0.8-0.6c-0.7,0.6-2.3,2.3-4.4,5.9c-1.9,3.3-2.2,5.9-2.3,6.8
			c-1.3,0.4-2.7,0.8-4.2,1.2c-0.2-2-0.1-3.7,0.3-4.6c0.4-1,0.9-1.9,1.5-2.6c0.6-0.7,2.2-2.1,4.1-4.4c1.9-2.2,5.2-6.6,5.4-7
			c0.2-0.4,0.7-1.6,1-1.8c0.3-0.2,0.8-0.4,1.3,0.5s1.4,2.7,1.4,6.5c0,3.3-1.6,7.9-2,8.9C188,242.1,187,242.5,185.9,242.9z
			 M191.4,240.6c0.1-0.7,0.4-2.6,0.6-4.2c0.9,0.1,1.5-0.3,1.7-0.6c0.1,1.9-0.4,3.3-0.7,4C192.4,240.1,191.9,240.4,191.4,240.6z
			 M195.7,238.5c-0.2,0.1-0.5,0.3-0.8,0.4c0.1-1.3,0.6-6.3,1.3-7.9c0.8-1.9,1.6-3.5,0.9-5.4c0,0-0.8,0.4-1.6,3.1s-1.8,4.7-3.4,5.3
			c0,0,0-3.8-0.1-6c1.7-3.4,4-6.4,5.5-8.2c1.7-2,2.8-2.6,3.1-2.2c0.4,0.3,0.3,1.3-0.1,2.1c-0.4,0.9-0.7,2.4-0.8,3.6
			c-0.1,1.3,0.4,1.6,1.1,3.9c0.6,2,0.1,7.4,0,8.6C199.2,236.7,197.4,237.7,195.7,238.5z M207.4,231.4c-0.5,0.4-1.9,1.3-3.7,2.5
			c0-0.8,0-2.4-0.4-3.2c-0.4-0.8-0.7-1.3-0.8-2.8c0.1-0.2,0.3-0.3,0.4-0.4c0.3-0.3,0.4-0.7,1.9-2c1.5-1.3,3.2-1.5,3.5-0.9
			c0.3,0.6-0.2,0.8-0.8,2.5c-0.8,2.4-0.3,3.8,0,4.3C207.5,231.3,207.5,231.4,207.4,231.4z M220.1,203.9c-2.3,0-4.2-1.9-4.2-4.2
			c0-2.3,1.9-4.2,4.2-4.2s4.2,1.9,4.2,4.2C224.3,202,222.5,203.9,220.1,203.9z M223,209.4c0.6-2.1,0.1-3.5-0.2-4.1
			c0.7-0.4,1.4-0.8,1.9-1.4c0.3,0.6,0.6,2.1,0.2,5.3C224.3,209.2,223.7,209.3,223,209.4z M229.1,209.1c-0.5,0-1.2-0.1-2.2,0
			c0.2-1.3,0.2-2.5,0.1-3.4c0.1,0.8,0.4,1.5,0.8,2.1C228.2,208.3,228.7,208.7,229.1,209.1z M106.6,238.9c-0.1-0.4-0.3-1.2-0.2-2.8
			c0.3,0.3,0.8,0.6,1.7,0.6c0.2,1.2,0.4,2.6,0.5,3.2C108,239.6,107.4,239.2,106.6,238.9z M116.8,243.4c0-0.4-0.1-1.2-0.3-1.7
			c0,0,1.1,0.7,1.9,2.3C117.9,243.8,117.3,243.6,116.8,243.4z M127.7,242.4c1.1-1.7,2.4-1.7,2.9-1.1c0.4,0.6,1.3,2.4,1.2,6.4
			c-1.6-0.3-3.2-0.7-5-1.2C126.7,245.6,126.8,243.7,127.7,242.4z M110.5,226.5c0.5-0.9,1-0.8,1.3-0.5c0.3,0.2,0.8,1.4,1,1.8
			c0.2,0.4,3.5,4.8,5.5,7s3.6,3.7,4.2,4.4s1.1,1.5,1.5,2.6c0.4,1,0.5,3,0.4,4.2c-1.4-0.4-2.8-0.8-4.3-1.3c-0.2-0.9-0.8-3.4-2.4-6.2
			c-2.1-3.6-3.7-5.3-4.5-5.9s-1.2,0.1-0.8,0.6c0.4,0.6,1.4,1.7,1.7,4.7c0.2,2.4,0.1,4,0,4.6c-1.1-0.5-2.3-1-3.4-1.5
			c-0.5-1.3-1.7-4.9-1.7-7.9C109.1,229.1,110,227.4,110.5,226.5z M100.2,223.4c-0.1-1.3-0.5-2.8-0.8-3.6c-0.4-0.9-0.5-1.8-0.1-2.1
			c0.4-0.3,1.5,0.3,3.2,2.3c1.6,1.8,3.9,4.8,5.6,8.2c-0.2,2.2-0.1,6-0.1,6c-1.7-0.6-2.8-2.6-3.5-5.3c-0.8-2.7-1.6-3.1-1.6-3.1
			c-0.6,1.9,0.2,3.5,1,5.4c0.7,1.6,1.1,5.6,1.3,6.9c-1.8-0.9-3.9-2.1-6.2-3.4c-0.1-1.2-0.4-5.5,0.2-7.4
			C99.7,224.9,100.2,224.6,100.2,223.4z M91.4,224.6c0.3-0.6,2.1-0.4,3.6,0.9c1.5,1.3,1.7,1.7,1.9,2c0.1,0.1,0.2,0.3,0.4,0.4
			c-0.1,1.5-0.4,2-0.9,2.8c-0.3,0.6-0.4,1.5-0.4,2.1c-1.2-0.8-2.4-1.5-3.6-2.4c0.1-0.6,0.1-2.1-0.3-3.4
			C91.6,225.4,91.1,225.3,91.4,224.6z M80.1,195.5c2.3,0,4.2,1.9,4.2,4.2s-1.9,4.2-4.2,4.2c-2.3,0-4.2-1.9-4.2-4.2
			S77.8,195.5,80.1,195.5z M76.7,204.8c-0.3,0.6-0.7,2.1-0.4,4.2c-0.5-0.1-0.9-0.2-1.4-0.2c0-0.5,0-1.4,0-2.9
			c0.1-1.3,0.2-2.1,0.3-2.5C75.6,204,76.1,204.4,76.7,204.8z M16.1,167.1c-2.4,0-4.4-2-4.4-4.4c0-2.4,2-4.4,4.4-4.4s4.4,2,4.4,4.4
			C20.5,165.1,18.6,167.1,16.1,167.1z M55,169.2c1.8-1.3,2.3-1.3,2.3-0.7c0.1,0.6-0.1,2.7,0,4.7c0.1,1.8,0.8,4.5,1.8,6.8
			c-2.9,3.4-4.2,7.1-4.6,8.6c-1.5-7.5,0.7-10.6,0.7-10.6c-3,0.9-3.7,12.6-3.8,15.3c-0.6-0.8-1.4-1.8-2.5-3.1c-0.3-0.4-0.7-0.8-1-1.2
			c0.1-1.9,0.6-7.5,2-11.4C51.5,172.8,53.1,170.5,55,169.2z M42.8,174.6c0.2-1.8,0.8-4.3,0.8-5.5c0-1.2,0.1-1.6,0.2-1.7
			c0.1-0.2,0.6-0.1,1.1,0.6c0.5,0.6,2.1,3,2.5,4.1c0.3,1,1.1,2.5,1,4.8c-0.7,1.8-1.9,5.6-1.7,10.8c-0.9-1.1-1.8-2.1-2.5-3.1
			c-0.8-1.1-1.7-2.7-2.4-4.2C42,179,42.7,176,42.8,174.6z M42.8,150.9c-2,0.3-4.4,2.1-5.4,3c0.2-0.7,0.4-2,0.8-3.6
			c0.7,0.1,2.8,0.3,5.1-1C43,149.8,42.9,150.3,42.8,150.9z M49.1,147.8c2.4,0,4.4,2,4.4,4.4c0,2.4-2,4.4-4.4,4.4
			c-2.4,0-4.4-2-4.4-4.4C44.7,149.7,46.7,147.8,49.1,147.8z M54.2,119.3c0.9-0.5,1.3-0.2,1.6,0c0.2,0.2,0.3,0.7,0,1
			c-0.3,0.3-0.9,0.8-2.6,4.1c-1.7,3.3-2.1,5-2.3,5.7c-0.1,0.7-0.5,4-2,7.3c-1.4,3.3-4,8.5-10.3,10.6c0.5-1.9,1.2-3.9,1.9-5.7
			c2.1-5.1,4.7-10.4,8.5-15c0,0-5.6,5-14.3,17.6c-0.3-0.8-1-3.1,0-6.1c1.2-3.7,3.4-7.3,8.1-11.6C47.7,123,53.3,119.8,54.2,119.3z
			 M42,122.5c0.5-1.4,1.9-4.8,3.5-7.4c2.2-3.4,2.3-4.5,2.3-4.5c-2.5,1.5-6.8,7.9-7.7,9.2c-0.9-1.8-1.2-3.6-1.3-4.5
			c1.3-1.6,6.3-7.8,10.9-8.5c-0.1,0.9-0.2,2.5,0,4.6c0.3,3.1,1.1,4.9-1.5,9.5c-1.1,0.6-3.1,2-5.3,3.8
			C42.6,124.1,42.2,123.1,42,122.5z M51.5,103.4c0,0-8.3,3.6-12.5,9.3c0-0.2,0-0.5,0.1-0.8c0.2-0.4,0.5-0.9,0.4-1.2
			c-0.1-0.3-0.3-0.9-0.2-1.2c0.2-0.4,2-3.4,3-4.8c1-1.3,3.1-4.3,6.6-4.3c0.5,1.2,1.4,2.2,2.6,2.9L51.5,103.4z M54.2,94.5
			c2,0,3.7,1.6,3.7,3.7c0,2-1.6,3.7-3.7,3.7c-2,0-3.7-1.6-3.7-3.7C50.6,96.2,52.2,94.5,54.2,94.5z M46.3,67c0.6-4.6,2-6.2,2.3-6.8
			s1.8-3.6,2.3-5.4c0.6-1.8,1.2-2.6,1.6-2.9c0.4-0.2,0.8-0.1,1.1,0c0.3,0.1,2.2,1.7,2.8,3c0.6,1.3,0.8,2,0.8,2.3s-0.1,0.4-0.5,0.7
			c-0.4,0.3-2.7,2.1-4.3,5c-1.6,2.9-3.1,7.1-2.9,12.2c0,0-0.9,0-1.6,0.6c0,0-0.6-0.6-1.2-0.9C46.6,74.8,45.7,71.5,46.3,67z
			 M41.2,74.8c-0.7-3.1-1.6-4.9-1.9-5.4c-0.3-0.5-0.6-0.5-1.3-1c-0.6-0.5-0.9-0.9-0.9-1.4c0-0.5,1.1-1.1,3.6-0.6
			c2.6,0.5,3.8,2,3.8,2c-0.1,3,0.3,5.5,0.3,5.5c-1.1-0.9-3-1.7-3-1.7c4.1,2.9,3.2,8,3.2,8C42.6,79.5,42,77.8,41.2,74.8z M30.8,93.2
			c-2.3,0-4.2-1.9-4.2-4.2c0-2.3,1.9-4.2,4.2-4.2c2,0,3.7,1.4,4.1,3.3c-2.2,0.6-2.4,2.7-1.8,4.4C32.5,93,31.7,93.2,30.8,93.2z
			 M36.8,96.6c-0.3-1.8-0.8-2.6-1.3-2.9c-0.1,0-0.1-0.1-0.2-0.2c-0.4-0.3-0.6-0.8-0.7-1.6c-0.1-0.9,0.5-1.4,1.4-1.8
			c0.4-0.2,0.8-0.1,1,0.2c0.3,0.3,0.5,0.8,0.7,1.3c0.3,0.9,0.4,1.3,0.7,1.6c0.3,0.2,1.3,0.5,1.8-0.2c4.3-6.5,7.5-14,7.9-15
			c0.4-0.9,1.1-0.8,1.5-0.7c0.4,0.2,0.3,0.9,0.3,1.5s0.7,0.8,1.3,0.7s1.3,0,1.7,0.3c0.4,0.3,0.2,0.6-0.5,1.6
			c-0.7,1-5.9,9.4-6.9,11.3s-1.6,3.2-1.8,4.2c-0.2,1,0.4,1.1,0.4,1.1c0.9-2.2,3.6-2.2,4.8-2c-0.2,0.6-0.4,1.3-0.4,2
			c0,0.1,0,0.1,0,0.2c-0.9,0.1-2.6,0.6-4.7,2.4c-2.7,2.3-5.5,6.3-6.9,9.4c-0.8,0.5-1.9,1.4-3.3,2.7c-0.2-0.7-0.7-2.2-1.2-3.6
			C37.6,103.7,37.1,98.4,36.8,96.6z M29.7,108.2c0.7,0.5,2.2,2.4,2.6,6.2c-1.5,1.8-3,4-4.3,6.9c-1.3-2.4-2.6-4.4-4-5.9
			c0.3-1,1.2-3.6,2.3-5.6C27.7,107.3,29,107.7,29.7,108.2z M21.3,104.3c0.4-1,0.9-2.6,1-5.1c0.1-2.4-1.2-4-1.7-4.9
			c-0.5-0.8-0.1-1.2,0.7-0.9c0.8,0.3,2.8,1.4,4.5,3.8c1.6,2.4,1.8,5.1,1.7,6.5c-0.1,0.8-0.1,1.6-0.1,2c-0.8,0.7-1.6,1.9-2.4,3.4
			c-0.9,1.7-1.8,3.7-2.3,4.7c-0.7-0.7-1.4-1.4-2.1-1.9C20,107.5,20.9,105.3,21.3,104.3z M16.9,122.8c0.2-0.9,0.6-2.3,0.8-4.8
			c0.2-2.5-0.5-3.9-0.8-4.3c-0.3-0.5-0.4-0.7-0.2-1c0.2-0.2,0.4-0.4,1,0c2.3,1.8,4.6,4.2,6.4,6.8c1.3,1.8,2.3,3.8,2.7,4.8
			c-0.5,1.5-1.1,3.8-1.5,7c-0.6-1.8-1.9-5.7-3.6-7.8c0,0,1.1,2.6,1.2,4.6c0.1,1.8-0.1,3.8,2.1,7.6c0,1-0.1,2-0.1,3.2
			c0,1.7,0.3,4.6,0.6,6.2c-5.2-4.6-7.7-10.2-8.5-14.7C16.1,125.8,16.8,123.7,16.9,122.8z M19.6,148.9c-1.3-1.2-2.8-3-3.6-4.7
			c-0.8-1.7-3.4-6.1-3.9-6.8c-0.5-0.7-0.7-0.8-1.3-1.3c-0.6-0.5-1.5-1.1-1.5-1.8s1-1.3,3.3-1.2c1.7,0,3.2,0.3,3.9,0.5
			c1.1,4,2.8,7.4,4.5,9.8c1.9,2.5,3.9,4.3,4.7,5c0,0.7-0.1,1.8-0.1,3.2C22.8,151.5,20.8,150,19.6,148.9z M27.1,130
			c0.2-1.3,1.8-10.5,9.6-17.5c0.4-0.4,0.6-0.2,0.9,0c0.2,0.2,0.3,0.8,0.3,1.7c0,0.9-0.1,3.5,0.2,5.4c0.3,1.9,1,3.5,1.7,4.2
			c0.5,0.6,1.1,1.4,1,3.1c-0.8,0.8-1.6,1.7-2.4,2.7c-0.7,1-4.1,5.2-4.9,9.8c-0.4-1-0.4-3.5-0.2-6.1c0.2-3,1.6-7.4,1.6-7.4
			s-2.6,2.2-5.6,20.6c-0.2,1.1-0.3,1.1-0.7,1.1c-0.2,0-0.5-0.2-0.9-0.4C27.1,145,25.6,138.2,27.1,130z M22.2,164.9
			c0.3-0.7,0.4-1.4,0.4-2.2c0-0.1,0-0.3,0-0.4c1,0.3,3.9,1.2,6.7,3.7c0,0,0.3-6.3-2.2-16.4c0.7,1,2,2.9,3,3.5c0,0,2-4.7,2.4-14.3
			c0,0-0.2,11.2,1.6,12.8c0,0,2.2-5.1,3-6.7c0,0-2.6,8.8-2.4,14.9c0,0,0.8-0.2,1.2-1.3c0.4-1.1,0.8-1.5,1.2-1.9
			c0.4-0.4,1.7-1.8,2.5-2.5c0.7-0.6,1.9-1.5,3-1.9c0,1.3,0.4,2.5,1.1,3.5c-1.9,0.7-5.4,2.4-7,6.5c-1.8,4.4-0.5,8.2,0,9.4
			c-0.3,0.5-0.7,1-1,1.7c-1.6,2.9-2.3,5.5-2.5,6.6c-0.3-0.4-0.8-0.9-1.5-1.5C30.9,168.8,24,165.6,22.2,164.9z M21.7,178.2
			c-0.9-1.9-0.7-2.5-0.4-2.8c0.3-0.3,0.5-0.4,2.4,0.2c1.8,0.6,5.8,2.5,8.7,7.3c-0.2,1.1-0.4,2.6-0.4,4.3c-0.3-0.4-0.9-1.1-1.5-1.7
			c-1-1-1.7-1-1.8-1c-0.1,0-0.2,0.4,0.2,0.6c0.4,0.2,1.5,1.1,3.3,5.6c0.4,4.2,1.3,7.6,3,10.9c-0.5-0.2-1.1-0.4-1.7-0.6
			c-1.6-0.5-3.2-0.9-4.7-1.1c-0.6-0.7-1.7-2.2-2.4-4c-0.9-2.6-0.9-4.6-1.8-9C23.7,182.7,22.7,180.2,21.7,178.2z M13.7,183.9
			c-0.1-1,0.4-1.3,1.2-0.9c0.8,0.4,2.3,1.7,4.3,2.5c1.5,0.6,3,0.5,3.7,0.3c0,0.2,0.1,0.4,0.1,0.6c0.6,3.1,0.9,5.6,0.9,7.4
			c-0.4-0.5-1.2-1.2-1.7-1.7c-0.8-0.6-1.1-0.2-0.8,0.8c0.3,0.9,1.8,4.1,4.8,6.8c-1.5-0.1-2.9-0.2-4.2-0.2
			C14.4,191.9,13.8,184.8,13.7,183.9z M32.1,217.4c-2.6-2.2-3.6-4.6-4-5.6c-0.4-1-0.6-1.2-1-1.7c-0.4-0.5-3.9-4.1-5.4-5.3
			c-1.4-1.2-3.3-2.6-4.3-3c0,0,3.3-1.6,8.8-0.8c5.5,0.8,11.8,4.2,16.1,7.9c1.4,1.3,2,1.5,2.5,1.5c0.5,0,0.6-0.8-0.2-2.5
			c-0.9-1.7-1.8-3.5-2.4-5.2c-0.6-1.7-0.4-3-0.3-3.4c0.1-0.4,0.3-0.3,0.8,0.2c0.4,0.5,2.6,3.2,4,8c0.3,1,0.5,2,0.9,1.8
			c0.3-0.2,0.5-0.3,0.4-1c-0.1-0.7-0.5-4.5-2.3-7.9c-1.7-3.4-2.9-3.7-3.9-6.1c-1-2.5-1.6-4.4-1.3-7.9c0.1-0.6-0.6-1.1-1.1-0.6
			c-0.5,0.5-1.4,1.4-0.7,7.1c0.6,4.9,1.7,10,3.7,13.8c-0.9-1-2.5-2.7-5.1-4c-0.8-1.7-2.9-6.6-3-12c-0.2-6.7,0.9-10.9,3-16.1
			c0,0,0.4-0.9,0.9-1.2c0.5-0.3,1.1,0.4,1.2,1.2c0.1,0.8,0.6,5,2.1,8.4c1.6,3.4,2.8,4.9,4.6,6.7c1.8,1.9,5.7,6.2,5.5,14.1
			c0,0,0.8,0.6,1.4,0.1c0.6-0.5,1.2-1.7,1.2-3.9c0-2.1,0.2-3.4,0.9-5.9c0.7-2.5,2.2-7.8,4.8-12.1c2.6-4.3,5.1-5.9,6.5-6.4
			c0,0,0.2,7.5,0.3,10.1c0.1,2.4,0.4,9.1-0.2,12.9c-1.9,0.1-3.9,0.6-5,1c-0.6,0.2-0.9,0.3-1.4,0.8c-0.4,0.4-16.1,15.2-21.5,20.3
			C36.9,220.3,34,219.1,32.1,217.4z M57.9,232.9c1.3-1.6,2.6-3.1,3.2-3.9c1.5-1.8,8-9.8,9.1-11c1-1.2,2.3-2.6,4-3
			c1.7-0.4,3.2-0.2,4.8,0.8c1.6,1,2.5,1.8,2.7,2.1c0.2,0.3,0.3,0.5-0.4,0.5c-0.7,0-1.7-0.1-3.9,1.4c-2.1,1.5-3.8,3.4-4.9,4.8
			c-0.9,1-7.2,8.3-10.6,12.3C60.9,234.1,58.9,233.2,57.9,232.9z M237.7,235.8c-1.8-2.1-3.5-4.1-3.8-4.4c-0.7-0.8-6.1-7-8-8.9
			c-2-1.9-3.8-3-5.1-3.3s-2.1-0.2-2.9-0.9c0,0,2.3-2.5,4.5-2.8c2.3-0.4,4.3,0.1,5.9,1.1s1.7,1.2,2.9,2.8c1.2,1.6,8.3,10.5,9.1,11.5
			c0.3,0.3,0.8,1,1.5,1.9C240.9,233,239,233.7,237.7,235.8z M283,112.5c0.5-0.4,0.8-0.2,1,0s0.1,0.5-0.2,1s-1,1.9-0.8,4.3
			s0.7,3.9,0.8,4.8c0.2,0.9,0.8,3,0,7.6c-0.8,4.5-3.3,10.1-8.5,14.7c0.3-1.7,0.6-4.6,0.6-6.2c0-1.1,0-2.2-0.1-3.2
			c2.2-3.9,2-5.8,2.1-7.6c0.1-1.9,1.2-4.6,1.2-4.6c-1.7,2.2-3,6-3.6,7.8c-0.4-3.2-1-5.5-1.5-7c0.4-1,1.4-3,2.7-4.8
			C278.5,116.7,280.8,114.3,283,112.5z M274.9,97c1.6-2.4,3.7-3.5,4.5-3.8c0.8-0.3,1.2,0.1,0.7,0.9c-0.5,0.8-1.7,2.4-1.7,4.9
			c0.1,2.4,0.6,4.1,1,5.1c0.4,0.9,1.3,3.2,0.7,7.7c-0.6,0.5-1.3,1.2-2.1,1.9c-0.4-1-1.3-3.1-2.3-4.7c-0.9-1.5-1.6-2.7-2.4-3.4
			c0-0.4,0-1.1-0.1-2C273.1,102.1,273.3,99.4,274.9,97z M271,108c0.8-0.5,2-1,3.4,1.6c1.1,2,2,4.6,2.3,5.6c-1.3,1.6-2.7,3.5-4,5.9
			c-1.2-2.9-2.8-5.2-4.3-6.9C268.9,110.4,270.3,108.5,271,108z M268.7,84.8c2-0.4,4.1,1.1,4.6,3.3c0.5,2.3-0.8,4.5-2.8,4.9
			c-1,0.2-2.1,0-2.9-0.7c0.6-1.8,0.5-3.9-1.7-4.6C266.1,86.3,267.2,85.1,268.7,84.8z M256.1,68c0,0,1.2-1.5,3.8-2
			c2.6-0.5,3.6,0.2,3.6,0.6c0,0.5-0.3,0.9-0.9,1.4c-0.6,0.5-1,0.5-1.3,1c-0.3,0.5-1.1,2.3-1.9,5.4c-0.7,3.1-1.4,4.7-3.9,5.3
			c0,0-0.9-5.1,3.2-8c0,0-2,0.9-3,1.7C255.8,73.5,256.2,71,256.1,68z M248.4,62.7c-1.6-2.9-3.9-4.6-4.3-5c-0.4-0.3-0.5-0.4-0.5-0.7
			s0.2-1,0.8-2.3c0.6-1.3,2.5-2.9,2.8-3c0.3-0.1,0.7-0.2,1.1,0c0.4,0.2,1,1,1.6,2.9c0.6,1.8,2,4.8,2.3,5.4c0.3,0.6,1.8,2.2,2.3,6.8
			c0.6,4.6-0.3,7.9-0.3,7.9c-0.6,0.3-1.2,0.9-1.2,0.9c-0.7-0.6-1.6-0.6-1.6-0.6C251.5,69.8,250,65.5,248.4,62.7z M256.7,97.9
			c0,0,0.6-0.1,0.4-1.1c-0.2-1-0.8-2.3-1.8-4.2c-1-1.9-6.2-10.3-6.9-11.3c-0.7-1-0.9-1.2-0.5-1.6c0.4-0.3,1.1-0.5,1.7-0.3
			c0.6,0.1,1.3,0,1.3-0.7c0-0.7-0.1-1.4,0.3-1.5s1.1-0.2,1.5,0.7c0.4,0.9,3.6,8.5,7.9,15c0.4,0.7,1.4,0.4,1.8,0.2s0.5-0.7,0.7-1.6
			c0-0.1,0-0.1,0.1-0.2c0.3-0.8,0.8-1.7,1.6-1.3c0.9,0.4,1.5,0.8,1.4,1.8c0,0,0,0.3-1.6,1.7c0.1,0.1,0.3,0.3,0.4,0.4
			c-0.4,0.4-0.8,1.2-1,2.6c-0.3,1.7-0.8,7,4.2,12.6c-0.5,1.3-1,2.8-1.2,3.6c-1.3-1.3-2.5-2.2-3.3-2.7c-1.3-3.2-4.2-7.1-6.9-9.4
			c-2.1-1.8-3.8-2.2-4.7-2.4c0-0.8-0.2-1.5-0.5-2.2C252.9,95.7,255.7,95.6,256.7,97.9z M260.6,119.6c-0.9-1.4-5.2-7.7-7.7-9.2
			c0,0,0.2,1.1,2.3,4.5c1.7,2.6,3,6,3.5,7.4c-0.2,0.6-0.7,1.6-0.9,2.3c-2.2-1.9-4.3-3.2-5.3-3.8c-2.6-4.6-1.8-6.4-1.5-9.5
			c0.2-2.1,0.1-3.7,0-4.6c4.6,0.7,9.6,6.8,10.9,8.5C261.8,116,261.5,117.8,260.6,119.6z M246.5,101.8c-2,0-3.7-1.6-3.7-3.7
			s1.6-3.7,3.7-3.7c2,0,3.7,1.6,3.7,3.7S248.5,101.8,246.5,101.8z M249.3,103.1c1.2-0.7,2.1-1.7,2.6-3c3.4,0.1,5.5,3,6.5,4.3
			c1.1,1.4,2.9,4.5,3,4.8c0.2,0.4-0.1,0.9-0.2,1.2c-0.1,0.3,0.2,0.8,0.4,1.2c0.1,0.2,0.1,0.5,0.1,0.8
			C257.7,106.8,249.8,103.3,249.3,103.1z M246.8,137.5c-1-1.3-2.8-3.5-3.7-4.6s-2.5-3.2-2.7-4.3c-0.2-1.1,0.7-1.4,3.1-1.4
			c1.5,0,2.7,0.4,3.3,0.7c0.4,1,1.2,2.8,1.7,4.2c0.7,2,0.7,2.7,2,6.6c0.4,1.2,0.9,2.4,1.5,3.5C249.6,141,247.8,138.8,246.8,137.5z
			 M251.7,137.2c-1.5-3.4-1.9-6.6-2-7.3c-0.1-0.7-0.6-2.4-2.3-5.7c-1.7-3.3-2.2-3.8-2.6-4.1c-0.3-0.3-0.2-0.8,0-1
			c0.2-0.2,0.6-0.5,1.6,0c0.9,0.5,6.6,3.7,11.3,7.9c4.7,4.3,7,7.9,8.1,11.6c0.9,3,0.2,5.3,0,6.1c-8.7-12.6-14.3-17.6-14.3-17.6
			c3.8,4.6,6.4,9.9,8.5,15c0.7,1.8,1.4,3.8,1.9,5.7C255.8,145.7,253.2,140.5,251.7,137.2z M257.9,150.3c-0.1-0.5-0.3-0.9-0.5-1.3
			c2.4,1.3,4.4,1.1,5.2,1c0.4,1.6,0.7,2.9,0.8,3.6c-1.1-0.9-3.4-2.7-5.4-3C258,150.5,257.9,150.4,257.9,150.3z M252.4,156.3
			c-2.2,0.6-4.4-0.9-5.1-3.2s0.6-4.7,2.8-5.3c2.2-0.6,4.4,0.9,5.1,3.2S254.6,155.8,252.4,156.3z M253.4,171.7c0.4-1.1,2-3.4,2.5-4.1
			c0.5-0.6,1-0.8,1.1-0.6c0.1,0.2,0.2,0.5,0.2,1.7c0,1.2,0.5,3.7,0.8,5.5c0.2,1.4,0.9,4.5,1.1,5.7c-0.7,1.5-1.5,3.1-2.4,4.2
			c-0.8,1-1.7,2-2.5,3.1c0.2-5.2-1-9-1.7-10.8C252.4,174.2,253.1,172.7,253.4,171.7z M243.5,172.9c0.1-1.9-0.1-4,0-4.7
			c0.1-0.6,0.5-0.6,2.3,0.7c1.8,1.3,3.5,3.7,5.2,8.3c1.4,3.9,1.9,9.5,2,11.4c-0.4,0.4-0.7,0.8-1,1.2c-1.1,1.3-1.9,2.3-2.5,3.1
			c-0.1-2.7-0.8-14.4-3.8-15.3c0,0,2.2,3.1,0.7,10.6c-0.5-1.5-1.8-5.2-4.6-8.6C242.7,177.4,243.4,174.7,243.5,172.9z M283.5,201.7
			c-1.1,0.3-2.9,1.8-4.3,3c-1.4,1.2-4.9,4.7-5.4,5.3c-0.4,0.5-0.6,0.7-1,1.7c-0.4,1-1.4,3.4-4,5.6c-2.2,1.9-5.7,3.2-6.6,3.5
			c-1.1-1.2-2.3-2.2-3.1-3.1c-1.4-1.3-9.8-9.4-10.9-10.3c-1-0.9-5.1-5.1-6.7-6.2c-1.5-1.1-4.3-2.4-6.7-2.4
			c-0.8-3.8-0.4-10.7-0.3-13.2c0.1-2.6,0.3-10.1,0.3-10.1c1.4,0.5,3.9,2,6.5,6.4c2.6,4.3,4.1,9.7,4.8,12.1c0.7,2.5,0.9,3.8,0.9,5.9
			c0,2.1,0.6,3.4,1.2,3.9c0.6,0.5,1.4-0.1,1.4-0.1c-0.2-7.9,3.7-12.2,5.5-14.1c1.8-1.9,3-3.3,4.6-6.7c1.6-3.4,2-7.6,2.1-8.4
			c0.1-0.8,0.7-1.5,1.2-1.2c0.5,0.3,0.9,1.2,0.9,1.2c2.1,5.3,3.2,9.4,3,16.1c-0.2,5.4-2.2,10.2-3,12c-2.6,1.4-4.2,3-5.1,4
			c2-3.8,3.2-8.9,3.7-13.8c0.6-5.7-0.2-6.5-0.7-7.1c-0.5-0.5-1.2,0-1.1,0.6c0.3,3.5-0.3,5.4-1.3,7.9c-1,2.5-2.1,2.7-3.9,6.1
			c-1.7,3.4-2.1,7.2-2.3,7.9s0.1,0.8,0.4,1c0.3,0.2,0.5-0.8,0.9-1.8c1.4-4.7,3.6-7.5,4-8c0.4-0.5,0.7-0.6,0.8-0.2
			c0.1,0.4,0.2,1.6-0.3,3.4c-0.6,1.7-1.5,3.5-2.4,5.2s-0.7,2.5-0.2,2.5s1.1-0.3,2.5-1.5c4.3-3.6,10.5-7.1,16.1-7.9
			C280.2,200.1,283.5,201.7,283.5,201.7z M281.6,185.2c2-0.8,3.5-2.1,4.3-2.5c0.8-0.4,1.3,0,1.2,0.9c-0.1,0.9-0.7,8-8.4,15.7
			c-1.3,0-2.7,0-4.2,0.2c3.1-2.8,4.5-5.9,4.8-6.8c0.3-1,0-1.4-0.8-0.8c-0.5,0.4-1.3,1.2-1.7,1.7c0-1.8,0.3-4.3,0.9-7.4
			c0-0.2,0.1-0.4,0.1-0.6C278.6,185.6,280.1,185.8,281.6,185.2z M277,175.3c1.9-0.6,2.2-0.5,2.4-0.2s0.5,0.9-0.4,2.8
			s-1.9,4.4-2.9,8.8c-0.9,4.4-0.9,6.4-1.8,9c-0.6,1.8-1.8,3.3-2.4,4c-1.5,0.2-3.1,0.6-4.7,1.1c-0.6,0.2-1.1,0.4-1.7,0.6
			c1.6-3.3,2.6-6.7,3-10.9c1.7-4.5,2.9-5.4,3.3-5.6c0.4-0.2,0.3-0.6,0.2-0.6s-0.8-0.1-1.8,1c-0.6,0.6-1.1,1.2-1.5,1.7
			c0-1.7-0.2-3.2-0.4-4.3C271.2,177.8,275.2,175.9,277,175.3z M283.2,158.4c2.1-0.5,4.3,1,4.9,3.4s-0.8,4.7-2.9,5.2
			c-2.1,0.5-4.3-1-4.9-3.4C279.7,161.2,281,158.9,283.2,158.4z M277.3,162.3c0,0.6,0,1.2,0.1,1.9c0.1,0.3,0.2,0.6,0.3,0.8
			c-2.5,1.2-7.9,4.7-8.6,13.2c-0.7,0.6-1.2,1.1-1.5,1.5c-0.2-1.1-0.9-3.7-2.5-6.6c-0.4-0.7-0.7-1.2-1-1.7c0.5-1.2,1.7-5,0-9.4
			c-1.6-4.1-5.1-5.8-7-6.5c0.7-1,1.1-2.3,1.1-3.5c1.1,0.4,2.3,1.4,3,1.9c0.8,0.6,2.1,2.1,2.5,2.5c0.4,0.4,0.7,0.8,1.2,1.9
			c0.4,1.1,1.2,1.3,1.2,1.3c0.2-6.1-2.4-14.9-2.4-14.9c0.8,1.6,3,6.7,3,6.7c1.8-1.7,1.6-12.8,1.6-12.8c0.4,9.6,2.4,14.3,2.4,14.3
			c1-0.6,2.3-2.5,3-3.5c-2.5,10-2.2,16.4-2.2,16.4C273.7,163.8,276,162.8,277.3,162.3z M273.1,146.8c-0.3,0.2-0.7,0.4-0.9,0.4
			c-0.5,0-0.6,0-0.7-1.1c-3-18.4-5.6-20.6-5.6-20.6s1.4,4.4,1.6,7.4c0.2,2.6,0.2,5.2-0.2,6.1c-0.8-4.6-4.2-8.8-4.9-9.8
			c-0.7-1-1.5-1.9-2.4-2.7c-0.1-1.8,0.5-2.5,1-3.1c0.6-0.7,1.4-2.3,1.7-4.2c0.3-1.9,0.2-4.5,0.2-5.4c0-0.9,0.1-1.4,0.3-1.7
			c0.2-0.2,0.4-0.4,0.9,0c7.8,7,9.4,16.3,9.6,17.5C275.2,137.9,273.6,144.7,273.1,146.8z M289.9,135.9c-0.6,0.5-0.8,0.5-1.3,1.3
			c-0.5,0.7-3.1,5.1-3.9,6.8c-0.8,1.7-2.3,3.5-3.6,4.7c-1.2,1.1-3.2,2.5-6,2.7c0-1.4-0.1-2.5-0.1-3.2c0.9-0.7,2.9-2.4,4.7-5
			c1.7-2.3,3.4-5.8,4.5-9.8c0.7-0.1,2.2-0.4,3.9-0.5c2.3-0.1,3.3,0.5,3.3,1.2C291.4,134.9,290.5,135.5,289.9,135.9z"/>
		<path d="M219.3,36.1c0,0,2,1.7,3.3,3.8h2.2C223.9,38.8,221.3,35.7,219.3,36.1z"/>
		<path d="M199.4,37.5c1.3,0.5,2.6,1.4,3.2,2.4h2.7c-0.5-1.7-2.3-3-4.5-3.8c-2.4-0.9-4.5-0.1-6.4-0.7s-2.3-2.4-2.3-2.7
			c0-0.2-1-1.6-3.3-2.1c-2.3-0.5-4.8,0.3-5.6,0.6c-0.7,0.3-0.9,0.4-1.5,1.1c-0.6,0.7-2.2,2.3-4.8,4.1c-1.9,1.3-4.2,2.7-5.3,3.4h2.8
			c1.1-0.7,2.9-2,4.4-3.2c2.3-1.9,4-3.2,5.1-3.8c1-0.6,1.9-1,3.1-0.9c0.9,0.1,1.6,0.8,2,1.5c-0.1,0-0.2,0-0.3,0c-2.7,0-5,2.2-5,5
			c0,0.5,0.1,1,0.2,1.4h2c-0.2-0.4-0.4-0.9-0.4-1.4c0-1.7,1.4-3.1,3.1-3.1c0.3,0,0.6,0,0.9,0.1c0.2,0.5,0.6,1.4,1.2,1.8
			c0.4,0.3,0.7,0.4,0.9,0.5c0,0.2,0.1,0.4,0.1,0.6c0,0.5-0.1,1-0.4,1.4h2c0.1-0.5,0.2-0.9,0.2-1.4c0-0.2,0-0.4,0-0.6
			c0.4-0.2,0.9-0.4,1.5-0.6C196,37,197.9,36.9,199.4,37.5z"/>
		<path d="M216.9,39.9h1.3c-0.1-0.8-0.3-2.5-1-4.2c-1-2.2-0.9-3.5,0.1-3.9c0,0,0.3,1,2.9,1.9c2.5,0.8,6.1,3,8.4,6.2h2.2
			c-1.2-2.2-3.8-4.1-5.5-4.8c-1.8-0.8-4.2-2.4-5.3-3.5c-1.1-1.1-1.4-1.8-2.4-2.2c-1-0.4-2.9,0-2.9,2.6s0.8,2.6,1.5,4.3
			C216.7,37.6,216.9,39.2,216.9,39.9z"/>
		<path d="M59.9,199.3c0,0,1.1,0.3,1.4-0.4c0.3-0.7,0.1-2.2,0.1-3.9c-0.1-1.7,0-4.9,0.6-7.1c0.6-2.1,1.4-3.1,1.9-3.8
			c0.4-0.7,0.5-1.4,0.5-1.4s-0.7,0.4-1,0.6c-0.4,0.2-1,0.7-2.2,2.5c-1.2,1.9-3.5,7.9-3.9,11c-0.4,3.1,0,4,0.3,4s1-1.4,1-2.7
			s0.2-1.6,0.3-1.7c0.2-0.1,0.7-0.1,0.8,0.5C59.9,197.4,60,198,59.9,199.3z"/>
		<path d="M36.1,209.7c-2.2-1.7-3.9-2.5-4.9-2.4c-1,0-1,0.4-1,0.4c3.9,2.1,9.9,9.2,9.9,9.2c0.5-0.3,0.9-0.9,0.9-1.6
			c0.1-0.7-0.1-1-0.3-1.4C40.4,213.6,38.3,211.4,36.1,209.7z"/>
		<path d="M53.5,244.2c-0.1,0-0.2-0.1-0.3-0.1c-0.9-0.3-2.1-0.1-2.4,0.3c-0.4,0.4-0.4,0.7,0,0.9c0.4,0.2,0.7,0.1,1.1,0
			c0,0,0.8-0.2,1.3-0.2c0,0,0.1,0,0.1,0c0.5,0.2,0.9,0.5,0.9,0.1C54.2,244.9,54.2,244.5,53.5,244.2z"/>
		<path d="M239.6,185.6c-1.2-1.9-1.8-2.4-2.2-2.5c-0.4-0.2-1-0.6-1-0.6s0.1,0.7,0.5,1.4c0.4,0.7,1.2,1.7,1.9,3.8
			c0.6,2.1,0.7,5.4,0.6,7.1c-0.1,1.7-0.2,3.2,0.1,3.9c0.3,0.7,1.4,0.4,1.4,0.4c-0.1-1.3,0-1.8,0.1-2.4c0.1-0.5,0.6-0.6,0.8-0.5
			c0.2,0.1,0.3,0.4,0.3,1.7c0,1.3,0.7,2.7,1,2.7c0.4,0,0.7-0.8,0.3-4C243.1,193.6,240.8,187.5,239.6,185.6z"/>
		<path d="M269.6,207c-1,0-2.8,0.7-4.9,2.4c-2.2,1.7-4.3,3.9-4.5,4.2c-0.3,0.4-0.4,0.7-0.3,1.4c0.1,0.7,0.4,1.3,0.9,1.6
			c0,0,6-7.1,9.9-9.2C270.6,207.5,270.6,207,269.6,207z"/>
		<path d="M247.4,245.2c0.5-0.1,1.3,0.2,1.3,0.2c0.4,0.1,0.6,0.2,1.1,0c0.4-0.2,0.4-0.5,0-0.9c-0.4-0.4-1.5-0.6-2.4-0.3
			c-0.1,0-0.2,0.1-0.3,0.1c-0.7,0.3-0.7,0.7-0.7,1c0,0.4,0.4,0,0.9-0.1C247.3,245.2,247.4,245.2,247.4,245.2z"/>
		<path d="M150.3,24.8c-0.9,0.1-2.9,0.4-4.4,1.1c-2,0.9-0.7,1.4,0,1.7c0.7,0.3,2.5,1,3.9,1.7c1.4,0.7,2.8,1.7,3.9,2.9
			c1.1,1.2,1.2,1.5,1.4,1.9c0.2,0.3,1.9,1.5,3.1,2.1s2.1,0.8,3.1,0.9c0.8,0.1,1.5,0,2.2-0.1c-1.1,0.9-1.2,2.2-1.1,3h2
			c0.4-0.9,1.4-2.8,2.5-3.8c0.5-0.5,0.8-0.8-0.2-0.8c-1,0-4.7,0.3-7.8-1.2c-3.2-1.4-4.6-2.8-6-4.2s-2.4-2-3.5-2.2
			c-1.1-0.3-1.3-0.4-1.3-0.7c0-0.3,0.9-1.2,3.9-0.9c0.4,0.3,0.7,0.5,1,0.8c3,2.1,7,4.1,12.1,4.8c2.9,0.4,5.5,0.3,7.7-0.2
			c-0.6,0.4-1.7,1.2-2.5,2.1c-1.3,1.4-1.6,3.4-0.7,4.3c0,0,5.3-6.1,10.8-6.3c0,0,0-0.8-1.1-1.1c-0.7-0.2-2.2-0.1-3.5,0
			c0.4-0.2,0.8-0.3,1.2-0.5c2.9-1.4,5.5-1.2,5.8-1.2c0,0-0.4-3.5-3.6-6.2c-3.1-2.6-7.2-4.5-13.4-5.3c-1-0.5-2.4-1.6-3-3.6
			c-0.1-0.3,0-0.8,0.3-1.1c0.4-0.2,0.9-0.4,1.3,0s2.2,1.8,5.2,2.5c3.1,0.7,4.2,0.7,7,2.2c2.8,1.5,4.3,3.3,5,4.3
			c0.7,0.9,3,3.3,5.2,4.1c2.1,0.8,5.1,2,6,2.5c0.9,0.5,1.8,1.5,2.4,1.9s1.5,0.1,1.5-0.6c0-0.5,0-1.3,0.4-1.8
			c0.2-0.2,0.4-0.4,0.7-0.5c0.5-0.1,1.1,0,1.7,0.2c0.3,0.1,0.5,0.2,0.7,0.3c0,0.6,0.2,2,1.7,3.6c2,2.2,4.4,3.7,6,4.6
			c1.5,0.8,4.1,2.2,5.4,3.9h2.3c-0.2-0.6-0.8-1.4-1.5-2.1c-1-0.9-1.1-1-4-2.3c-2.9-1.3-4.3-2.5-6.1-4.3c-1.8-1.7-2.3-3.9-2.4-4.5
			c0-0.2-0.1-0.5-0.1-0.7c0.9-0.9,1.4-2.2,1.4-3.5c0-2.8-2.3-5.2-5.2-5.2s-5.2,2.3-5.2,5.2c0,1.2,0.4,2.4,1.2,3.3
			c-0.5,0.1-1.2,0.1-2.2-0.1c-1.5-0.3-4.2-1.6-5.3-2.2c-1.1-0.6-0.9-0.7-1.4-1.4c-0.5-0.7-0.8-1.5-3.2-3.7s-5.3-3.2-6-3.4
			c-0.7-0.3-1-0.4-2.1-0.5c-1.1,0-2.7-0.3-5.5-1.5s-3.6-2.3-4.2-2.8c-0.6-0.5-1.4-0.8-1.8-0.4c-0.3,0.3-0.5,1.2-0.5,2.4
			c-0.6,0.3-1.5,0.5-2.4,0.5c-1.5,0-2.5-0.8-2.9-1.2c-0.4-0.4-1-0.7-1.7-0.4c-0.7,0.3-1,0.9-0.5,3.6c0.3,1.9,1.1,3.3,1.5,4
			c-0.9,0-1.8,0-2.6,0c-2.4-0.2-4.9-0.6-6-0.9c-1.1-0.2-1.7-0.1-2,0.1s-0.3,0.9,0.4,1.9C145.9,20.6,148,22.8,150.3,24.8z
			 M197.8,19.4c1.8,0,3.2,1.4,3.2,3.2c0,0.8-0.3,1.6-0.8,2.2c-0.5-0.2-1.3-0.3-2.2-0.1c-0.7,0.1-1.4,0.4-1.9,0.6
			c-0.8-0.6-1.4-1.5-1.4-2.6C194.6,20.8,196,19.4,197.8,19.4z M156.5,16.3c-1.3-1.8-1.1-4.4,0-3c1.1,1.3,3,1.8,5.4,1.1
			c0.3,1.3,1.2,2.4,1.6,2.9c-1.1,0-2.2,0.2-3.4,0.6c-0.3,0.1-0.7,0.2-1,0.3C158.4,17.9,157.3,17.4,156.5,16.3z M148.9,20.1
			c0.6,0.2,3.8,1.2,7.7,0.4s6.3-1.3,9.5-1.2c3.1,0.1,7.6,0.9,11,4.7c-1.2-0.3-4.2-0.9-6.6-0.7c-3,0.2-5.7,0.5-6.2,2.8
			c0,0,2.1-1.1,5.3-1.1c2.8,0,6.3,1,8.7,2.1c-0.9,0.7-3,2.1-5.9,2.9c-3.8,1-9.1,0.5-14.6-2.3c-4.1-2.1-4.1-2.7-6.1-3.7
			s-3.4-2.4-3.6-2.9C148,20.3,148.3,19.9,148.9,20.1z"/>
	</g>
	<g>
		<path fill="#AD8B3A" d="M169.9,241.1c-0.4,0.6-1.3,2.5-1.1,6.8c1.7-0.3,3.3-0.7,4.9-1.1c0-0.9-0.1-3.2-0.9-4.6
			C171.7,240.6,170.4,240.5,169.9,241.1z"/>
		<path fill="#AD8B3A" d="M188.3,225.8c-0.3,0.2-0.8,1.4-1,1.8c-0.2,0.4-3.4,4.8-5.4,7c-1.9,2.2-3.6,3.7-4.1,4.4
			c-0.6,0.7-1.1,1.5-1.5,2.6c-0.4,1-0.5,2.6-0.3,4.6c1.5-0.4,2.8-0.8,4.2-1.2c0.1-0.9,0.4-3.4,2.3-6.8c2.1-3.6,3.7-5.3,4.4-5.9
			c0.7-0.6,1.2,0.1,0.8,0.6c-0.4,0.6-1.3,1.7-1.7,4.7c-0.3,2.6-0.1,4.6,0,5.3c1.1-0.4,2.1-0.8,3.1-1.3c0.4-1,2-5.5,2-8.9
			c0-3.8-0.8-5.6-1.4-6.5S188.7,225.6,188.3,225.8z"/>
		<path fill="#AD8B3A" d="M181.5,244.5c0.7-0.2,1.3-0.4,1.9-0.7c0-0.4,0-1.4,0.3-2.4C183.8,241.5,182.5,242.3,181.5,244.5z"/>
		<path fill="#AD8B3A" d="M199.8,223.2c0.1-1.3,0.4-2.8,0.8-3.6c0.4-0.9,0.4-1.8,0.1-2.1c-0.4-0.3-1.4,0.3-3.1,2.2
			c-1.5,1.8-3.8,4.8-5.5,8.2c0.2,2.2,0.1,6,0.1,6c1.7-0.6,2.7-2.6,3.4-5.3s1.6-3.1,1.6-3.1c0.6,1.9-0.2,3.5-0.9,5.4
			c-0.7,1.6-1.2,6.6-1.3,7.9c0.3-0.1,0.5-0.3,0.8-0.4c1.7-0.8,3.5-1.9,5.2-2.9c0.1-1.2,0.6-6.5,0-8.6
			C200.2,224.8,199.7,224.5,199.8,223.2z"/>
		<path fill="#AD8B3A" d="M192,236.4c-0.2,1.5-0.5,3.4-0.6,4.2c0.6-0.3,1.1-0.5,1.6-0.7c0.3-0.7,0.9-2.1,0.7-4
			C193.4,236.2,192.9,236.5,192,236.4z"/>
		<path fill="#AD8B3A" d="M222.8,205.3c0.3,0.6,0.8,2,0.2,4.1c0.7-0.1,1.3-0.2,1.9-0.3c0.4-3.2,0.1-4.7-0.2-5.3
			C224.2,204.5,223.5,205,222.8,205.3z"/>
		<path fill="#AD8B3A" d="M204.8,225.4c-1.5,1.3-1.6,1.7-1.9,2c-0.1,0.1-0.2,0.3-0.4,0.4c0.1,1.5,0.4,2,0.8,2.8
			c0.4,0.8,0.4,2.4,0.4,3.2c1.8-1.1,3.2-2.1,3.7-2.5c0.1,0,0.1-0.1,0.2-0.1c-0.3-0.5-0.8-1.9,0-4.3c0.5-1.7,1.1-1.8,0.8-2.5
			C208.1,223.9,206.3,224.1,204.8,225.4z"/>
		<path fill="#AD8B3A" d="M241.9,49.2c0,2.1,0,4.4,0,6.9c0.7-2.2,2.1-4.4,2.1-4.4C243.4,50.4,242.4,49.5,241.9,49.2z"/>
		<path fill="#AD8B3A" d="M122.5,239.2c-0.6-0.7-2.2-2.1-4.2-4.4s-5.3-6.6-5.5-7c-0.2-0.4-0.7-1.6-1-1.8c-0.3-0.2-0.8-0.4-1.3,0.5
			c-0.5,0.9-1.4,2.7-1.4,6.5c0,3,1.2,6.6,1.7,7.9c1.1,0.5,2.3,1,3.4,1.5c0.1-0.5,0.2-2.2,0-4.6c-0.3-3-1.3-4.1-1.7-4.7
			c-0.4-0.6,0.1-1.2,0.8-0.6s2.4,2.3,4.5,5.9c1.6,2.8,2.2,5.3,2.4,6.2c1.5,0.5,2.9,0.9,4.3,1.3c0.1-1.2,0-3.2-0.4-4.2
			C123.7,240.7,123.1,239.8,122.5,239.2z"/>
		<path fill="#AD8B3A" d="M127.7,242.4c-0.8,1.3-0.9,3.2-0.9,4.1c1.8,0.5,3.4,0.8,5,1.2c0.1-4-0.7-5.8-1.2-6.4
			C130.1,240.7,128.8,240.7,127.7,242.4z"/>
		<path fill="#AD8B3A" d="M243.5,81.8c-0.7-0.3-1.2-0.5-1.5-0.5c0,0.6,0,1.2,0,1.8C242.4,82.6,243.5,81.8,243.5,81.8z"/>
		<path fill="#AD8B3A" d="M249.2,85.7c-0.2-0.2-0.7-0.8-1.1-1.5s-1.4-1.3-3.3-0.9c-1.4,0.3-2.5,1-2.9,1.3c0,0.9,0,1.7,0,2.5
			c0.7-0.4,2.1-1.1,3.6-1.5C247.2,85.2,249.2,85.7,249.2,85.7z"/>
		<path fill="#AD8B3A" d="M241.9,72.6c0,2.2,0,4.4,0,6.5c1.4,0.5,3.6,0.9,3.6,0.9C245.3,76.3,242.7,73.4,241.9,72.6z"/>
		<path fill="#AD8B3A" d="M248.8,75.6l0.6-0.3c0-11-6.1-15.1-7.4-15.8c0,2.9,0,5.8,0,8.8C245.2,70.6,248.8,75.6,248.8,75.6z"/>
		<path fill="#AD8B3A" d="M263.1,91.5c-0.3,0.9-0.4,1.3-0.7,1.6s-1.3,0.5-1.8-0.2c-4.3-6.5-7.5-14-7.9-15c-0.4-0.9-1.1-0.8-1.5-0.7
			s-0.3,0.9-0.3,1.5c0,0.7-0.7,0.8-1.3,0.7c-0.6-0.1-1.3,0-1.7,0.3c-0.4,0.3-0.2,0.6,0.5,1.6c0.7,1,5.9,9.4,6.9,11.3
			c1,1.9,1.6,3.2,1.8,4.2c0.2,1-0.4,1.1-0.4,1.1c-0.9-2.3-3.8-2.2-4.9-2c0.3,0.7,0.5,1.4,0.5,2.2c0.9,0.1,2.6,0.6,4.7,2.4
			c2.7,2.3,5.5,6.3,6.9,9.4c0.8,0.5,1.9,1.4,3.3,2.7c0.2-0.7,0.7-2.2,1.2-3.6c-5.1-5.6-4.5-10.9-4.2-12.6c0.2-1.4,0.6-2.1,1-2.6
			c-0.1-0.1-0.3-0.2-0.4-0.4c1.6-1.3,1.6-1.7,1.6-1.7c0.1-0.9-0.5-1.4-1.4-1.8c-0.9-0.3-1.3,0.5-1.6,1.3
			C263.1,91.4,263.1,91.4,263.1,91.5z"/>
		<path fill="#AD8B3A" d="M261.4,109.2c-0.2-0.4-2-3.4-3-4.8c-1-1.3-3.1-4.3-6.5-4.3c-0.5,1.3-1.4,2.4-2.6,3
			c0.5,0.2,8.4,3.7,12.4,9.3c0-0.2,0-0.5-0.1-0.8c-0.2-0.4-0.5-0.9-0.4-1.2C261.3,110.1,261.6,109.6,261.4,109.2z"/>
		<path fill="#AD8B3A" d="M243.1,132.9c0.9,1,2.7,3.2,3.7,4.6c0.9,1.3,2.7,3.4,5.2,4.7c-0.6-1.1-1.1-2.3-1.5-3.5
			c-1.3-3.9-1.3-4.6-2-6.6c-0.5-1.4-1.2-3.1-1.7-4.2c-0.7-0.3-1.9-0.7-3.3-0.7c-2.4,0-3.4,0.3-3.1,1.4
			C240.7,129.7,242.2,131.9,243.1,132.9z"/>
		<path fill="#AD8B3A" d="M274.4,109.5c-1.4-2.6-2.6-2.1-3.4-1.6c-0.7,0.5-2.2,2.4-2.6,6.2c1.5,1.8,3,4,4.3,6.9
			c1.3-2.4,2.6-4.4,4-5.9C276.4,114.1,275.5,111.6,274.4,109.5z"/>
		<path fill="#AD8B3A" d="M273.2,103.5c0.1,0.8,0.1,1.6,0.1,2c0.8,0.7,1.6,1.9,2.4,3.4c0.9,1.7,1.8,3.7,2.3,4.7
			c0.7-0.7,1.4-1.4,2.1-1.9c0.6-4.5-0.3-6.7-0.7-7.7c-0.4-1-0.9-2.6-1-5.1c-0.1-2.4,1.2-4,1.7-4.9c0.5-0.8,0.1-1.2-0.7-0.9
			c-0.8,0.3-2.8,1.4-4.5,3.8C273.3,99.4,273.1,102.1,273.2,103.5z"/>
		<path fill="#AD8B3A" d="M249.4,192.9c0.6-0.8,1.4-1.8,2.5-3.1c0.3-0.4,0.7-0.8,1-1.2c-0.1-1.9-0.6-7.5-2-11.4
			c-1.7-4.7-3.4-7-5.2-8.3c-1.8-1.3-2.3-1.3-2.3-0.7c-0.1,0.6,0.1,2.7,0,4.7c-0.1,1.8-0.8,4.5-1.8,6.8c2.9,3.4,4.2,7.1,4.6,8.6
			c1.5-7.5-0.7-10.6-0.7-10.6C248.7,178.5,249.3,190.2,249.4,192.9z"/>
		<path fill="#AD8B3A" d="M274.7,200.8c-5.5,0.8-11.8,4.2-16.1,7.9c-1.4,1.3-2,1.5-2.5,1.5s-0.6-0.8,0.2-2.5s1.8-3.5,2.4-5.2
			c0.6-1.7,0.4-3,0.3-3.4c-0.1-0.4-0.3-0.3-0.8,0.2c-0.4,0.5-2.6,3.2-4,8c-0.3,1-0.5,2-0.9,1.8c-0.3-0.2-0.5-0.3-0.4-1
			s0.5-4.5,2.3-7.9c1.7-3.4,2.9-3.7,3.9-6.1c1-2.5,1.6-4.4,1.3-7.9c-0.1-0.6,0.6-1.1,1.1-0.6c0.5,0.5,1.4,1.4,0.7,7.1
			c-0.6,4.9-1.7,10-3.7,13.8c0.9-1,2.5-2.7,5.1-4c0.8-1.7,2.9-6.6,3-12c0.2-6.7-0.9-10.9-3-16.1c0,0-0.4-0.9-0.9-1.2
			c-0.5-0.3-1.1,0.4-1.2,1.2c-0.1,0.8-0.6,5-2.1,8.4c-1.6,3.4-2.8,4.9-4.6,6.7c-1.8,1.9-5.7,6.2-5.5,14.1c0,0-0.8,0.6-1.4,0.1
			c-0.6-0.5-1.2-1.7-1.2-3.9c0-2.1-0.2-3.4-0.9-5.9c-0.7-2.5-2.2-7.8-4.8-12.1c-2.6-4.3-5.1-5.9-6.5-6.4c0,0-0.2,7.5-0.3,10.1
			c-0.1,2.5-0.5,9.5,0.3,13.2c2.5,0,5.2,1.3,6.7,2.4c1.6,1.2,5.7,5.3,6.7,6.2c1,0.9,9.4,9,10.9,10.3c0.9,0.8,2,1.9,3.1,3.1
			c0.9-0.3,4.4-1.6,6.6-3.5c2.6-2.2,3.6-4.6,4-5.6c0.4-1,0.6-1.2,1-1.7c0.4-0.5,3.9-4.1,5.4-5.3c1.4-1.2,3.3-2.6,4.3-3
			C283.5,201.7,280.2,200.1,274.7,200.8z M243.1,200.7c-0.4,0-1-1.4-1-2.7c0-1.3-0.2-1.6-0.3-1.7c-0.2-0.1-0.7-0.1-0.8,0.5
			c-0.1,0.5-0.2,1.1-0.1,2.4c0,0-1.1,0.3-1.4-0.4c-0.3-0.7-0.1-2.2-0.1-3.9c0.1-1.7,0-4.9-0.6-7.1c-0.6-2.1-1.4-3.1-1.9-3.8
			c-0.4-0.7-0.5-1.4-0.5-1.4s0.7,0.4,1,0.6c0.4,0.2,1,0.7,2.2,2.5c1.2,1.9,3.5,7.9,3.9,11C243.8,199.8,243.5,200.7,243.1,200.7z
			 M260.7,216.7c-0.5-0.3-0.9-0.9-0.9-1.6c-0.1-0.7,0.1-1,0.3-1.4c0.3-0.4,2.4-2.5,4.5-4.2c2.2-1.7,3.9-2.5,4.9-2.4c1,0,1,0.4,1,0.4
			C266.7,209.6,260.7,216.7,260.7,216.7z"/>
		<path fill="#AD8B3A" d="M256.7,184.2c0.8-1.1,1.7-2.7,2.4-4.2c-0.3-1.2-1-4.3-1.1-5.7c-0.2-1.8-0.8-4.3-0.8-5.5
			c0-1.2-0.1-1.6-0.2-1.7c-0.1-0.2-0.6-0.1-1.1,0.6c-0.5,0.6-2.1,3-2.5,4.1c-0.3,1-1.1,2.5-1,4.8c0.7,1.8,1.9,5.6,1.7,10.8
			C255,186.2,255.9,185.1,256.7,184.2z"/>
		<path fill="#AD8B3A" d="M257.4,149c0.2,0.4,0.4,0.8,0.5,1.3c0,0.1,0,0.2,0.1,0.3c2,0.3,4.4,2.1,5.4,3c-0.2-0.7-0.4-2-0.8-3.6
			C261.9,150.1,259.8,150.3,257.4,149z"/>
		<path fill="#AD8B3A" d="M271.5,165.7c0,0-0.3-6.3,2.2-16.4c-0.7,1-2,2.9-3,3.5c0,0-2-4.7-2.4-14.3c0,0,0.2,11.2-1.6,12.8
			c0,0-2.2-5.1-3-6.7c0,0,2.6,8.8,2.4,14.9c0,0-0.8-0.2-1.2-1.3c-0.4-1.1-0.8-1.5-1.2-1.9c-0.4-0.4-1.7-1.8-2.5-2.5
			c-0.7-0.6-1.9-1.5-3-1.9c0,1.3-0.4,2.5-1.1,3.5c1.9,0.7,5.4,2.4,7,6.5c1.8,4.4,0.5,8.2,0,9.4c0.3,0.5,0.7,1,1,1.7
			c1.6,2.9,2.3,5.5,2.5,6.6c0.3-0.4,0.8-0.9,1.5-1.5c0.7-8.5,6.1-12.1,8.6-13.2c-0.1-0.3-0.2-0.5-0.3-0.8c-0.1-0.6-0.2-1.2-0.1-1.9
			C276,162.8,273.7,163.8,271.5,165.7z"/>
		<path fill="#AD8B3A" d="M271.8,185c-0.4,0.2-1.5,1.1-3.3,5.6c-0.4,4.2-1.3,7.6-3,10.9c0.5-0.2,1.1-0.4,1.7-0.6
			c1.6-0.5,3.2-0.9,4.7-1.1c0.6-0.7,1.7-2.2,2.4-4c0.9-2.6,0.9-4.6,1.8-9c0.9-4.4,1.9-6.9,2.9-8.8s0.7-2.5,0.4-2.8s-0.5-0.4-2.4,0.2
			c-1.8,0.6-5.8,2.5-8.7,7.3c0.2,1.1,0.4,2.6,0.4,4.3c0.3-0.4,0.9-1.1,1.5-1.7c1-1,1.7-1,1.8-1S272.2,184.7,271.8,185z"/>
		<path fill="#AD8B3A" d="M29.7,108.2c-0.8-0.5-2-1-3.4,1.6c-1.1,2-2,4.6-2.3,5.6c1.3,1.6,2.7,3.5,4,5.9c1.2-2.9,2.8-5.2,4.3-6.9
			C31.9,110.6,30.4,108.7,29.7,108.2z"/>
		<path fill="#AD8B3A" d="M58.4,81.7c-0.3,0.1-0.7,0.2-1.1,0.4c0,0,0.6,0.4,1.1,0.9C58.4,82.5,58.4,82.1,58.4,81.7z"/>
		<path fill="#AD8B3A" d="M16.9,122.8c-0.2,0.9-0.8,3,0,7.6c0.8,4.5,3.3,10.1,8.5,14.7c-0.3-1.7-0.6-4.6-0.6-6.2
			c0-1.1,0-2.2,0.1-3.2c-2.2-3.9-2-5.8-2.1-7.6c-0.1-1.9-1.2-4.6-1.2-4.6c1.7,2.2,3,6,3.6,7.8c0.4-3.2,1-5.5,1.5-7
			c-0.4-1-1.4-3-2.7-4.8c-1.9-2.5-4.1-5-6.4-6.8c-0.5-0.4-0.8-0.2-1,0c-0.2,0.2-0.1,0.5,0.2,1c0.3,0.5,1,1.9,0.8,4.3
			C17.6,120.5,17.1,121.9,16.9,122.8z"/>
		<path fill="#AD8B3A" d="M20.6,112c0.6,0.5,1.3,1.2,2.1,1.9c0.4-1,1.3-3.1,2.3-4.7c0.9-1.5,1.6-2.7,2.4-3.4c0-0.4,0-1.1,0.1-2
			c0.1-1.4,0-4.1-1.7-6.5c-1.6-2.4-3.7-3.5-4.5-3.8c-0.8-0.3-1.2,0.1-0.7,0.9c0.5,0.8,1.7,2.4,1.7,4.9c-0.1,2.4-0.6,4.1-1,5.1
			C20.9,105.3,20,107.5,20.6,112z"/>
		<path fill="#AD8B3A" d="M52.6,84.5c-0.4,0.6-0.9,1.3-1.1,1.5c0,0,2.1-0.4,3.7-0.1c1.2,0.3,2.4,0.8,3.1,1.2c0-0.8,0-1.7,0-2.6
			c-0.5-0.3-1.4-0.8-2.5-1C54,83.2,53,83.8,52.6,84.5z"/>
		<path fill="#AD8B3A" d="M58.4,49.9c-0.5,0.4-1.2,1.2-1.7,2.1c0,0,0.9,1.5,1.7,3.2C58.4,53.3,58.4,51.5,58.4,49.9z"/>
		<path fill="#AD8B3A" d="M58.4,60c-1.9,1.2-6.9,5.5-6.9,15.6l0.6,0.3c0,0,3.2-4.5,6.4-7C58.4,65.8,58.4,62.8,58.4,60z"/>
		<path fill="#AD8B3A" d="M58.4,73.4c-1,1.2-2.9,3.7-3.1,7c0,0,1.8-0.3,3.1-0.8C58.4,77.6,58.4,75.5,58.4,73.4z"/>
		<path fill="#AD8B3A" d="M273.9,124.1c0.5,1.5,1.1,3.8,1.5,7c0.6-1.8,1.9-5.7,3.6-7.8c0,0-1.1,2.6-1.2,4.6
			c-0.1,1.8,0.1,3.8-2.1,7.6c0,1,0.1,2,0.1,3.2c0,1.7-0.3,4.6-0.6,6.2c5.2-4.6,7.7-10.2,8.5-14.7c0.8-4.7,0.2-6.8,0-7.6
			c-0.2-0.9-0.6-2.3-0.8-4.8s0.5-3.9,0.8-4.3s0.4-0.7,0.2-1s-0.4-0.4-1,0c-2.3,1.8-4.6,4.2-6.4,6.8
			C275.3,121,274.3,123.1,273.9,124.1z"/>
		<path fill="#AD8B3A" d="M285.9,182.7c-0.8,0.4-2.3,1.7-4.3,2.5c-1.5,0.6-3,0.5-3.7,0.3c0,0.2-0.1,0.4-0.1,0.6
			c-0.6,3.1-0.9,5.6-0.9,7.4c0.4-0.5,1.2-1.2,1.7-1.7c0.8-0.6,1.1-0.2,0.8,0.8c-0.3,0.9-1.8,4.1-4.8,6.8c1.5-0.1,2.9-0.2,4.2-0.2
			c7.7-7.7,8.3-14.7,8.4-15.7C287.2,182.6,286.7,182.3,285.9,182.7z"/>
		<path fill="#AD8B3A" d="M247.5,124.1c1.7,3.3,2.1,5,2.3,5.7c0.1,0.7,0.5,4,2,7.3c1.4,3.3,4,8.5,10.3,10.6
			c-0.5-1.9-1.2-3.9-1.9-5.7c-2.1-5.1-4.7-10.4-8.5-15c0,0,5.6,5,14.3,17.6c0.3-0.8,1-3.1,0-6.1c-1.2-3.7-3.4-7.3-8.1-11.6
			c-4.7-4.3-10.4-7.5-11.3-7.9c-0.9-0.5-1.3-0.2-1.6,0c-0.2,0.2-0.3,0.7,0,1C245.3,120.4,245.8,120.8,247.5,124.1z"/>
		<path fill="#AD8B3A" d="M288.2,132.9c-1.7,0-3.2,0.3-3.9,0.5c-1.1,4-2.8,7.4-4.5,9.8c-1.9,2.5-3.9,4.3-4.7,5
			c0,0.7,0.1,1.8,0.1,3.2c2.9-0.1,4.8-1.6,6-2.7c1.3-1.2,2.8-3,3.6-4.7c0.8-1.7,3.4-6.1,3.9-6.8c0.5-0.7,0.7-0.8,1.3-1.3
			c0.6-0.5,1.5-1.1,1.5-1.8C291.4,133.4,290.5,132.9,288.2,132.9z"/>
		<path fill="#AD8B3A" d="M26.3,199.7c-3.1-2.8-4.5-5.9-4.8-6.8c-0.3-1,0-1.4,0.8-0.8c0.5,0.4,1.3,1.2,1.7,1.7
			c0-1.8-0.3-4.3-0.9-7.4c0-0.2-0.1-0.4-0.1-0.6c-0.7,0.1-2.3,0.3-3.7-0.3c-2-0.8-3.5-2.1-4.3-2.5c-0.8-0.4-1.3,0-1.2,0.9
			c0.1,0.9,0.7,8,8.4,15.7C23.4,199.5,24.8,199.6,26.3,199.7z"/>
		<path fill="#AD8B3A" d="M51,130.1c0.1-0.7,0.6-2.4,2.3-5.7c1.7-3.3,2.2-3.8,2.6-4.1c0.3-0.3,0.2-0.8,0-1c-0.2-0.2-0.6-0.5-1.6,0
			c-0.9,0.5-6.6,3.7-11.3,7.9c-4.7,4.3-7,7.9-8.1,11.6c-0.9,3-0.2,5.3,0,6.1c8.7-12.6,14.3-17.6,14.3-17.6c-3.8,4.6-6.4,9.9-8.5,15
			c-0.7,1.8-1.4,3.8-1.9,5.7c6.2-2.2,8.8-7.3,10.3-10.6C50.5,134.1,50.9,130.8,51,130.1z"/>
		<path fill="#AD8B3A" d="M37.3,153.9c1.1-0.9,3.4-2.7,5.4-3c0.1-0.5,0.3-1,0.5-1.5c-2.4,1.3-4.4,1.1-5.1,1
			C37.8,151.9,37.5,153.1,37.3,153.9z"/>
		<path fill="#AD8B3A" d="M106.4,236c-0.1,1.6,0.1,2.4,0.2,2.8c0.8,0.4,1.4,0.7,2,1c-0.1-0.6-0.3-2-0.5-3.2
			C107.2,236.7,106.7,236.3,106.4,236z"/>
		<path fill="#AD8B3A" d="M75.2,203.4c-0.1,0.4-0.3,1.1-0.3,2.5c-0.1,1.5,0,2.4,0,2.9c0.5,0,0.9,0.1,1.4,0.2
			c-0.3-2.1,0.1-3.6,0.4-4.2C76.1,204.4,75.6,204,75.2,203.4z"/>
		<path fill="#AD8B3A" d="M102.8,225.7c0,0,0.8,0.4,1.6,3.1c0.8,2.7,1.8,4.7,3.5,5.3c0,0,0-3.8,0.1-6c-1.8-3.4-4-6.4-5.6-8.2
			c-1.7-2-2.8-2.6-3.2-2.3c-0.4,0.3-0.3,1.3,0.1,2.1c0.4,0.9,0.8,2.4,0.8,3.6s-0.4,1.6-1.1,3.9c-0.6,2-0.3,6.2-0.2,7.4
			c2.3,1.3,4.4,2.5,6.2,3.4c-0.1-1.3-0.6-5.4-1.3-6.9C103,229.2,102.2,227.6,102.8,225.7z"/>
		<path fill="#AD8B3A" d="M116.5,241.6c0.2,0.5,0.3,1.3,0.3,1.7c0.5,0.2,1.1,0.4,1.6,0.6C117.6,242.4,116.5,241.6,116.5,241.6z"/>
		<path fill="#AD8B3A" d="M95,225.6c-1.5-1.3-3.3-1.5-3.6-0.9c-0.3,0.6,0.2,0.8,0.8,2.5c0.5,1.3,0.4,2.8,0.3,3.4
			c1.2,0.8,2.4,1.6,3.6,2.4c0-0.6,0-1.4,0.4-2.1c0.4-0.8,0.7-1.3,0.9-2.8c-0.2-0.2-0.3-0.3-0.4-0.4C96.7,227.3,96.5,226.9,95,225.6z
			"/>
		<path fill="#AD8B3A" d="M39,112.7c4.2-5.8,12.5-9.3,12.5-9.3l0-0.2c-1.1-0.6-2.1-1.6-2.6-2.9c-3.5,0-5.6,3-6.6,4.3
			c-1.1,1.4-2.9,4.5-3,4.8c-0.2,0.4,0.1,0.9,0.2,1.2c0.1,0.3-0.2,0.8-0.4,1.2C39,112.1,39,112.5,39,112.7z"/>
		<path fill="#AD8B3A" d="M66.1,175.6c-1.4,0.5-3.9,2-6.5,6.4c-2.6,4.3-4.1,9.7-4.8,12.1c-0.7,2.5-0.9,3.8-0.9,5.9
			c0,2.1-0.6,3.4-1.2,3.9c-0.6,0.5-1.4-0.1-1.4-0.1c0.2-7.9-3.7-12.2-5.5-14.1c-1.8-1.9-3-3.3-4.6-6.7c-1.6-3.4-2-7.6-2.1-8.4
			c-0.1-0.8-0.7-1.5-1.2-1.2c-0.5,0.3-0.9,1.2-0.9,1.2c-2.1,5.3-3.2,9.4-3,16.1c0.2,5.4,2.2,10.2,3,12c2.6,1.4,4.2,3,5.1,4
			c-2-3.8-3.2-8.9-3.7-13.8c-0.6-5.7,0.2-6.5,0.7-7.1c0.5-0.5,1.2,0,1.1,0.6c-0.3,3.5,0.3,5.4,1.3,7.9c1,2.5,2.1,2.7,3.9,6.1
			c1.7,3.4,2.1,7.2,2.3,7.9c0.1,0.7-0.1,0.8-0.4,1c-0.3,0.2-0.5-0.8-0.9-1.8c-1.4-4.7-3.6-7.5-4-8c-0.4-0.5-0.7-0.6-0.8-0.2
			c-0.1,0.4-0.2,1.6,0.3,3.4c0.6,1.7,1.5,3.5,2.4,5.2c0.9,1.7,0.7,2.5,0.2,2.5c-0.5,0-1.1-0.3-2.5-1.5c-4.3-3.6-10.5-7.1-16.1-7.9
			c-5.5-0.8-8.8,0.8-8.8,0.8c1.1,0.3,2.9,1.8,4.3,3c1.4,1.2,4.9,4.7,5.4,5.3c0.4,0.5,0.6,0.7,1,1.7c0.4,1,1.4,3.4,4,5.6
			c1.9,1.7,4.8,2.9,6.1,3.3c5.4-5.1,21.1-19.9,21.5-20.3c0.5-0.5,0.8-0.6,1.4-0.8c1.1-0.4,3.1-1,5-1c0.7-3.8,0.3-10.5,0.2-12.9
			C66.3,183.1,66.1,175.6,66.1,175.6z M40.9,215.4c-0.1,0.7-0.4,1.3-0.9,1.6c0,0-6-7.1-9.9-9.2c0,0,0.1-0.4,1-0.4
			c1,0,2.8,0.7,4.9,2.4c2.2,1.7,4.3,3.9,4.5,4.2C40.9,214.3,41,214.7,40.9,215.4z M63.9,184.2c-0.4,0.7-1.2,1.7-1.9,3.8
			c-0.6,2.1-0.7,5.4-0.6,7.1c0.1,1.7,0.2,3.2-0.1,3.9c-0.3,0.7-1.4,0.4-1.4,0.4c0.1-1.3,0-1.8-0.1-2.4c-0.1-0.5-0.6-0.6-0.8-0.5
			c-0.2,0.1-0.3,0.4-0.3,1.7s-0.7,2.7-1,2.7s-0.7-0.8-0.3-4c0.4-3.1,2.7-9.2,3.9-11c1.2-1.9,1.8-2.4,2.2-2.5c0.4-0.2,1-0.6,1-0.6
			S64.3,183.5,63.9,184.2z"/>
		<path fill="#AD8B3A" d="M57.2,127.5c-1.5,0-2.7,0.4-3.3,0.7c-0.4,1-1.2,2.8-1.7,4.2c-0.7,2-0.7,2.7-2,6.6
			c-0.4,1.2-0.9,2.4-1.5,3.5c2.5-1.3,4.3-3.5,5.2-4.7c1-1.3,2.8-3.5,3.7-4.6c0.9-1,2.5-3.2,2.7-4.3c0-0.1,0-0.1,0-0.2
			c0-0.2-0.1-0.3-0.1-0.5C60,127.7,59,127.5,57.2,127.5z"/>
		<path fill="#AD8B3A" d="M54.4,188.5c0.5-1.5,1.8-5.2,4.6-8.6c-1-2.3-1.7-5-1.8-6.8c-0.1-1.9,0.1-4,0-4.7c-0.1-0.6-0.5-0.6-2.3,0.7
			c-1.8,1.3-3.5,3.7-5.2,8.3c-1.4,3.9-1.9,9.5-2,11.4c0.4,0.4,0.7,0.8,1,1.2c1.1,1.3,1.9,2.3,2.5,3.1c0.1-2.7,0.8-14.4,3.8-15.3
			C55.1,177.9,52.9,181,54.4,188.5z"/>
		<path fill="#AD8B3A" d="M28.8,184.6c0.1,0,0.8-0.1,1.8,1c0.6,0.6,1.1,1.2,1.5,1.7c0-1.7,0.2-3.2,0.4-4.3c-2.9-4.8-6.9-6.8-8.7-7.3
			c-1.9-0.6-2.2-0.5-2.4-0.2c-0.3,0.3-0.5,0.9,0.4,2.8c0.9,1.9,1.9,4.4,2.9,8.8c0.9,4.4,0.9,6.4,1.8,9c0.6,1.8,1.8,3.3,2.4,4
			c1.5,0.2,3.1,0.6,4.7,1.1c0.6,0.2,1.1,0.4,1.7,0.6c-1.6-3.3-2.6-6.7-3-10.9c-1.7-4.5-2.9-5.4-3.3-5.6
			C28.6,185,28.7,184.7,28.8,184.6z"/>
		<path fill="#AD8B3A" d="M47.3,172c-0.4-1.1-2-3.4-2.5-4.1c-0.5-0.6-1-0.8-1.1-0.6c-0.1,0.2-0.2,0.5-0.2,1.7c0,1.2-0.5,3.7-0.8,5.5
			c-0.2,1.4-0.9,4.5-1.1,5.7c0.7,1.5,1.5,3.1,2.4,4.2c0.8,1,1.7,2,2.5,3.1c-0.2-5.2,1-9,1.7-10.8C48.4,174.5,47.7,172.9,47.3,172z"
			/>
		<path fill="#AD8B3A" d="M43.8,155.8c-0.7-1-1.1-2.2-1.1-3.5c-1.1,0.4-2.3,1.4-3,1.9c-0.8,0.6-2.1,2.1-2.5,2.5
			c-0.4,0.4-0.7,0.8-1.2,1.9c-0.4,1.1-1.2,1.3-1.2,1.3c-0.2-6.1,2.4-14.9,2.4-14.9c-0.8,1.6-3,6.7-3,6.7c-1.8-1.7-1.6-12.8-1.6-12.8
			c-0.4,9.6-2.4,14.3-2.4,14.3c-1-0.6-2.3-2.5-3-3.5c2.5,10,2.2,16.4,2.2,16.4c-2.8-2.4-5.7-3.4-6.7-3.7c0,0.1,0,0.3,0,0.4
			c0,0.8-0.1,1.5-0.4,2.2c1.8,0.7,8.7,3.9,9.5,13.6c0.7,0.6,1.2,1.1,1.5,1.5c0.2-1.1,0.9-3.7,2.5-6.6c0.4-0.7,0.7-1.2,1-1.7
			c-0.5-1.2-1.7-5,0-9.4C38.4,158.2,41.9,156.5,43.8,155.8z"/>
		<path fill="#AD8B3A" d="M50,242.2c-2.8,0.3-4.3,1.2-5.7,1.9c-1.4,0.7-0.8,1-0.8,1c0.3,0.4,1.8,0.7,3.3,1c1.5,0.3,3.9,1.6,3.9,1.6
			c0.9,0.4,1.6,1.1,2.1,1.7l0,0c-0.3-1.8-0.1-3.2,0.3-4.3c-0.5-0.1-1.3,0.2-1.3,0.2c-0.4,0.1-0.6,0.2-1.1,0c-0.4-0.2-0.4-0.5,0-0.9
			c0.4-0.4,1.5-0.6,2.4-0.3c0.1,0,0.2,0.1,0.3,0.1c0.7-1.4,1.6-2.1,1.6-2.1l0,0c-0.1,0-0.1,0-0.2,0C54.3,242.2,52.8,241.9,50,242.2z
			"/>
		<path fill="#AD8B3A" d="M71.8,35.5c-0.2,0-0.2,0.3-1.3,1.7c-0.7,0.9-2,2-2.8,2.7h4.9c0.4-0.8,0.5-1.7,0.4-2.5
			C72.8,36.5,72,35.5,71.8,35.5z"/>
		<path fill="#AD8B3A" d="M264,112.2c-0.4-0.4-0.6-0.2-0.9,0c-0.2,0.2-0.3,0.8-0.3,1.7c0,0.9,0.1,3.5-0.2,5.4
			c-0.3,1.9-1,3.5-1.7,4.2c-0.5,0.6-1.1,1.4-1,3.1c0.8,0.8,1.6,1.7,2.4,2.7c0.7,1,4.1,5.2,4.9,9.8c0.4-1,0.4-3.5,0.2-6.1
			c-0.2-3-1.6-7.4-1.6-7.4s2.6,2.2,5.6,20.6c0.2,1.1,0.3,1.1,0.7,1.1c0.2,0,0.5-0.2,0.9-0.4c0.6-2,2.1-8.9,0.6-17.1
			C273.4,128.4,271.9,119.2,264,112.2z"/>
		<path fill="#AD8B3A" d="M260.6,119.6c0.9-1.8,1.2-3.6,1.3-4.5c-1.3-1.6-6.3-7.8-10.9-8.5c0.1,0.9,0.2,2.5,0,4.6
			c-0.3,3.1-1.1,4.9,1.5,9.5c1.1,0.6,3.1,2,5.3,3.8c0.3-0.7,0.7-1.7,0.9-2.3c-0.5-1.4-1.9-4.8-3.5-7.4c-2.2-3.4-2.3-4.5-2.3-4.5
			C255.4,111.9,259.7,118.3,260.6,119.6z"/>
		<path fill="#AD8B3A" d="M100.6,36.8c0.2,0,0.4,0,0.6,0.1c0.4,0,0.9-0.1,1.2-0.3c0.8-0.4,0.5-0.7-0.4-1c-0.9-0.2-1.6-0.4-2.9-0.4
			c-1.3,0-2-0.4-1.9-0.7c0.2-0.3,0.6-0.9,1-0.7c0.4,0.2,1.4,0.5,3.8,0.1c2.1-0.3,3.6-0.9,6-1c2.9-2.4,8.3-2.1,9.6-2.2
			c1.4-0.1,2.1-0.8,2.1-0.8c-0.2-0.3-1-0.6-4-0.9c-3-0.3-8-0.5-8-0.5s1.2-0.9,4.5-0.8c0.8-0.7,2.9-2.1,7-3.4
			c5.8-1.9,12.9,0.1,13.8,3.2c0.5,0,0.9-0.1,1.4-0.1c0.8-0.3,2.1-0.9,3.1-1.6c1.5-1.1,1.4-2,1.2-2.3c-0.2-0.3-0.8-0.4-1.4-0.4
			c-0.7-0.1-1-0.4-2-1c-1-0.6-1.8-1.6-4-2.1c-2.3-0.5-5.5-0.8-9.3,0c-3.8,0.8-7.8,3.2-10.5,5.5c-0.6,0.5-0.9,0.5-0.2-0.7
			c0.8-1.2,3.4-3.3,5.9-4.8c2.5-1.5,3-2.3,2.7-2.8c-0.2-0.5-0.8-1.2-1.6-0.7c-0.9,0.5-1.3,1.1-1.7,1.5c-0.4,0.4-1.8,0.8-2.8,0.9
			c-1.1,0.1-2.5,0.4-4.4,2.3c-2,1.9-3,3.9-3.5,4.9c-0.5,1.1-0.3,1.3-1.7,2.1s-3.7,1.6-6.7,2c0,0-4.2,2.4-5.5,3.1
			c-1.2,0.6-1.3,0.3-1.3-0.6c-0.9,0.8-2.1,1.3-3.5,1.3c-0.2,0-0.3,0-0.5,0c-0.1,1.2-0.9,3.7-5.9,6h6.5c0.4-0.6,1.3-1.5,3.4-2.3
			C94.2,36.2,99.5,36.7,100.6,36.8z"/>
		<path fill="#AD8B3A" d="M121.8,30.7c-2.2,1.1-4.1,0.9-5.9,1.2c-1.2,0.2-2.1,0.6-2.7,0.9c0.6,0.3,2,0.9,4.6,0.9
			c2.5,0,5-0.4,6.5-0.7c0.3-0.3,0.8-0.7,1.5-1.3c1.4-1,4.2-2.6,4.8-3s1.1-0.7,1.1-1.2s-0.7-1.2-2.1-1.9c-1.4-0.7-3.2-1.4-4.7-1.3
			c-1.4,0.1-6,0.6-8.7,3.3c1,0,1.3,0,2.1,0c1.3-0.1,4.8,0,5.8,0.4C124.1,28.2,124,29.6,121.8,30.7z"/>
		<path fill="#AD8B3A" d="M101.3,38.3c-2.4-0.3-6.4-0.6-10,1.6h9.8C100.9,39.3,101.1,38.7,101.3,38.3z"/>
		<path fill="#AD8B3A" d="M116.5,39.9c-0.3-0.3-0.7-0.6-1.1-1.1c-0.9-1-3.5-3.9-7.5-3.9c1,0.6,3.2,2.2,2.7,4.9H116.5z"/>
		<path fill="#AD8B3A" d="M130.9,37c-1.8,0.1-5.9,0.2-9-0.8c-3.3,1.1-6.4,0.1-7.4-0.3c0.2,0.3,0.6,0.6,1.1,1
			c0.9,0.6,3.2,2.2,4.5,3.1h13.3C133.2,39.1,132.6,37.7,130.9,37z"/>
		<path fill="#AD8B3A" d="M106.4,36.6h-1.3c0,0-0.3,1.7-2,1.9c-0.2,0.5-0.1,1,0,1.4h5.7C108.8,39,108.6,37.2,106.4,36.6z"/>
		<path fill="#AD8B3A" d="M256.3,244.1c-1.4-0.7-2.9-1.6-5.7-1.9s-4.4,0-4.9,0c-0.1,0-0.1,0-0.2,0l0,0c0,0,0.9,0.7,1.6,2.1
			c0.1,0,0.2-0.1,0.3-0.1c0.9-0.3,2.1-0.1,2.4,0.3c0.4,0.4,0.4,0.7,0,0.9c-0.4,0.2-0.7,0.1-1.1,0c0,0-0.8-0.2-1.3-0.2
			c0.4,1.1,0.6,2.6,0.3,4.3l0,0c0.5-0.6,1.3-1.3,2.1-1.7c0,0,2.4-1.3,3.9-1.6c1.5-0.3,3-0.6,3.3-1
			C257.1,245.1,257.7,244.8,256.3,244.1z"/>
		<path fill="#AD8B3A" d="M16,144.3c0.8,1.7,2.3,3.5,3.6,4.7c1.2,1.1,3.2,2.5,6,2.7c0-1.4,0.1-2.5,0.1-3.2c-0.9-0.7-2.9-2.4-4.7-5
			c-1.7-2.3-3.4-5.8-4.5-9.8c-0.7-0.1-2.2-0.4-3.9-0.5c-2.3-0.1-3.3,0.5-3.3,1.2s0.9,1.3,1.5,1.8c0.6,0.5,0.8,0.5,1.3,1.3
			C12.6,138.2,15.2,142.5,16,144.3z"/>
		<path fill="#AD8B3A" d="M40.1,119.9c0.9-1.4,5.2-7.7,7.7-9.2c0,0-0.2,1.1-2.3,4.5c-1.7,2.6-3,6-3.5,7.4c0.2,0.6,0.7,1.6,0.9,2.3
			c2.2-1.9,4.3-3.2,5.3-3.8c2.6-4.6,1.8-6.4,1.5-9.5c-0.2-2.1-0.1-3.7,0-4.6c-4.6,0.7-9.6,6.8-10.9,8.5
			C38.9,116.3,39.2,118.1,40.1,119.9z"/>
		<path fill="#AD8B3A" d="M27.7,147c0.3,0.2,0.7,0.4,0.9,0.4c0.5,0,0.6,0,0.7-1.1c3-18.4,5.6-20.6,5.6-20.6s-1.4,4.4-1.6,7.4
			c-0.2,2.6-0.2,5.2,0.2,6.1c0.8-4.6,4.2-8.8,4.9-9.8c0.7-1,1.5-1.9,2.4-2.7c0.1-1.8-0.5-2.5-1-3.1c-0.6-0.7-1.4-2.3-1.7-4.2
			c-0.3-1.9-0.2-4.5-0.2-5.4c0-0.9-0.1-1.4-0.3-1.7c-0.2-0.2-0.4-0.4-0.9,0c-7.8,7-9.4,16.3-9.6,17.5C25.6,138.2,27.1,145,27.7,147z
			"/>
		<path fill="#AD8B3A" d="M208,36c-1.6-0.9-4.1-2.4-6-4.6c-1.5-1.7-1.7-3.1-1.7-3.6c-0.2-0.1-0.5-0.2-0.7-0.3
			c-0.6-0.2-1.2-0.3-1.7-0.2c-0.3,0.1-0.5,0.2-0.7,0.5c-0.3,0.5-0.4,1.2-0.4,1.8c0,0.8-0.8,0.9-1.5,0.6s-1.5-1.4-2.4-1.9
			c-0.9-0.5-3.9-1.7-6-2.5c-2.1-0.8-4.5-3.2-5.2-4.1c-0.7-0.9-2.2-2.7-5-4.3c-2.8-1.5-4-1.6-7-2.2c-3.1-0.7-4.8-2.1-5.2-2.5
			s-0.9-0.2-1.3,0c-0.4,0.2-0.4,0.8-0.3,1.1c0.6,2,2,3.1,3,3.6c6.2,0.8,10.3,2.7,13.4,5.3c3.2,2.7,3.6,6.2,3.6,6.2
			c-0.3,0-2.9-0.2-5.8,1.2c-0.4,0.2-0.8,0.4-1.2,0.5c1.2-0.1,2.8-0.2,3.5,0c1.1,0.3,1.1,1.1,1.1,1.1c-5.6,0.2-10.8,6.3-10.8,6.3
			c-0.9-0.9-0.5-2.9,0.7-4.3c0.8-0.9,1.9-1.7,2.5-2.1c-2.2,0.4-4.8,0.6-7.7,0.2c-5.1-0.7-9.1-2.7-12.1-4.8c-0.3-0.2-0.7-0.5-1-0.8
			c-3-0.4-3.9,0.6-3.9,0.9c0,0.3,0.2,0.4,1.3,0.7c1.1,0.3,2.2,0.9,3.5,2.2s2.8,2.8,6,4.2c3.2,1.4,6.8,1.2,7.8,1.2
			c1,0,0.7,0.3,0.2,0.8c-1.2,1-2.1,2.9-2.5,3.8h7.3c1.1-0.7,3.4-2.1,5.3-3.4c2.7-1.8,4.2-3.4,4.8-4.1c0.6-0.7,0.8-0.7,1.5-1.1
			c0.7-0.3,3.3-1.1,5.6-0.6c2.3,0.5,3.2,1.8,3.3,2.1c0,0.2,0.4,2,2.3,2.7s4-0.2,6.4,0.7c2.2,0.8,3.9,2.1,4.5,3.8h8
			C212.1,38.2,209.5,36.8,208,36z"/>
		<path fill="#AD8B3A" d="M202.6,39.9c-0.7-1-2-1.9-3.2-2.4c-1.5-0.6-3.3-0.5-4.2-0.2c-0.6,0.2-1.1,0.4-1.5,0.6c0,0.2,0,0.4,0,0.6
			c0,0.5-0.1,1-0.2,1.4H202.6z"/>
		<path fill="#AD8B3A" d="M159.1,18.2c0.4-0.1,0.7-0.2,1-0.3c1.2-0.4,2.2-0.6,3.4-0.6c-0.4-0.5-1.3-1.6-1.6-2.9
			c-2.4,0.7-4.3,0.2-5.4-1.1c-1.1-1.4-1.3,1.2,0,3C157.3,17.4,158.4,17.9,159.1,18.2z"/>
		<path fill="#AD8B3A" d="M220.2,33.7c-2.6-0.8-2.9-1.9-2.9-1.9c-1,0.4-1.1,1.7-0.1,3.9c0.7,1.6,0.9,3.3,1,4.2h4.3
			c-1.3-2-3.3-3.8-3.3-3.8c2-0.4,4.6,2.6,5.6,3.8h3.8C226.3,36.7,222.7,34.5,220.2,33.7z"/>
		<path fill="#AD8B3A" d="M38.1,68.4c0.6,0.5,1,0.5,1.3,1c0.3,0.5,1.1,2.3,1.9,5.4c0.7,3.1,1.4,4.7,3.9,5.3c0,0,0.9-5.1-3.2-8
			c0,0,2,0.9,3,1.7c0,0-0.4-2.5-0.3-5.5c0,0-1.2-1.5-3.8-2c-2.6-0.5-3.6,0.2-3.6,0.6C37.2,67.5,37.5,67.9,38.1,68.4z"/>
		<path fill="#AD8B3A" d="M47.8,75.7c0.7-0.6,1.6-0.6,1.6-0.6c-0.2-5.1,1.3-9.3,2.9-12.2c1.6-2.9,3.9-4.6,4.3-5
			c0.4-0.3,0.5-0.4,0.5-0.7s-0.2-1-0.8-2.3c-0.6-1.3-2.5-2.9-2.8-3c-0.3-0.1-0.7-0.2-1.1,0c-0.4,0.2-1,1-1.6,2.9
			c-0.6,1.8-2,4.8-2.3,5.4s-1.8,2.2-2.3,6.8s0.3,7.9,0.3,7.9C47.2,75.1,47.8,75.7,47.8,75.7z"/>
		<path fill="#AD8B3A" d="M139.2,29.7c-2.9-0.7-6.3-1-7.8-0.3s-4,3-4.4,3.5c-0.4,0.5-1.6,1.6-2.2,1.9c0,0,1,0.7,3.3,0.8
			c2.3,0.1,3.4-0.3,5.7-1.1c2.3-0.8,7.2-1.4,10.1-1.1C143.9,33.5,142,30.4,139.2,29.7z"/>
		<circle fill="#AD8B3A" cx="87.3" cy="28.7" r="3.3"/>
		<path fill="#AD8B3A" d="M34.6,92c0.1,0.8,0.3,1.2,0.7,1.6c0.1,0.1,0.1,0.1,0.2,0.2c0.5,0.3,1,1.1,1.3,2.9c0.3,1.7,0.8,7-4.2,12.6
			c0.5,1.3,1,2.8,1.2,3.6c1.3-1.3,2.5-2.2,3.3-2.7c1.3-3.2,4.2-7.1,6.9-9.4c2.1-1.8,3.8-2.2,4.7-2.4c0-0.1,0-0.1,0-0.2
			c0-0.7,0.1-1.4,0.4-2c-1.2-0.1-3.9-0.2-4.8,2c0,0-0.6-0.1-0.4-1.1c0.2-1,0.8-2.3,1.8-4.2s6.2-10.3,6.9-11.3c0.7-1,0.9-1.2,0.5-1.6
			c-0.4-0.3-1.1-0.5-1.7-0.3s-1.3,0-1.3-0.7s0.1-1.4-0.3-1.5c-0.4-0.2-1.1-0.2-1.5,0.7c-0.4,0.9-3.6,8.5-7.9,15
			c-0.4,0.7-1.4,0.4-1.8,0.2c-0.3-0.2-0.5-0.7-0.7-1.6c-0.1-0.5-0.3-1-0.7-1.3c-0.3-0.3-0.6-0.4-1-0.2C35.1,90.6,34.5,91.1,34.6,92z
			"/>
		<path fill="#AD8B3A" d="M30.8,93.2c0.9,0,1.7-0.3,2.4-0.7c-0.6-1.8-0.4-3.8,1.8-4.4c-0.4-1.9-2.1-3.3-4.1-3.3
			c-2.3,0-4.2,1.9-4.2,4.2C26.6,91.3,28.5,93.2,30.8,93.2z"/>
		<circle fill="#AD8B3A" cx="54.2" cy="98.2" r="3.7"/>
		<circle fill="#AD8B3A" cx="49.1" cy="152.1" r="4.4"/>
		<circle fill="#AD8B3A" cx="16.1" cy="162.7" r="4.4"/>
		<circle fill="#AD8B3A" cx="80.1" cy="199.7" r="4.2"/>
		<path fill="#AD8B3A" d="M255.6,79.8c2.5-0.6,3.2-2.2,3.9-5.3c0.7-3.1,1.6-4.9,1.9-5.4c0.3-0.5,0.6-0.5,1.3-1
			c0.6-0.5,0.9-0.9,0.9-1.4c0-0.5-1.1-1.1-3.6-0.6c-2.6,0.5-3.8,2-3.8,2c0.1,3-0.3,5.5-0.3,5.5c1.1-0.9,3-1.7,3-1.7
			C254.7,74.7,255.6,79.8,255.6,79.8z"/>
		<path fill="#AD8B3A" d="M244.1,57.7c0.4,0.3,2.7,2.1,4.3,5c1.6,2.9,3.1,7.1,2.9,12.2c0,0,0.9,0,1.6,0.6c0,0,0.6-0.6,1.2-0.9
			c0,0,0.9-3.3,0.3-7.9c-0.6-4.6-2-6.2-2.3-6.8c-0.3-0.6-1.8-3.6-2.3-5.4c-0.6-1.8-1.2-2.6-1.6-2.9c-0.4-0.2-0.8-0.1-1.1,0
			c-0.3,0.1-2.2,1.7-2.8,3c-0.6,1.3-0.8,2-0.8,2.3S243.7,57.3,244.1,57.7z"/>
		<path fill="#AD8B3A" d="M195.9,25.2c0.6-0.2,1.2-0.4,1.9-0.6c1-0.2,1.7-0.1,2.2,0.1c0.5-0.6,0.8-1.3,0.8-2.2
			c0-1.8-1.4-3.2-3.2-3.2c-1.8,0-3.2,1.4-3.2,3.2C194.6,23.7,195.1,24.6,195.9,25.2z"/>
		<path fill="#AD8B3A" d="M191.8,38.5c0-0.2,0-0.4-0.1-0.6c-0.2-0.1-0.5-0.3-0.9-0.5c-0.6-0.5-1-1.3-1.2-1.8
			c-0.3-0.1-0.6-0.1-0.9-0.1c-1.7,0-3.1,1.4-3.1,3.1c0,0.5,0.1,1,0.4,1.4h5.4C191.6,39.5,191.8,39,191.8,38.5z"/>
		<path fill="#AD8B3A" d="M267.5,92.4c0.8,0.6,1.9,0.9,2.9,0.7c2-0.4,3.3-2.6,2.8-4.9c-0.5-2.3-2.5-3.7-4.6-3.3
			c-1.5,0.3-2.5,1.5-2.8,3C268,88.5,268.1,90.6,267.5,92.4z"/>
		<circle fill="#AD8B3A" cx="246.5" cy="98.1" r="3.7"/>
		
			<ellipse transform="matrix(-0.2566 -0.9665 0.9665 -0.2566 168.7738 433.9933)" fill="#AD8B3A" cx="251.3" cy="152.1" rx="4.4" ry="4.1"/>
		
			<ellipse transform="matrix(-0.2217 -0.9751 0.9751 -0.2217 188.5113 475.7794)" fill="#AD8B3A" cx="284.1" cy="162.7" rx="4.4" ry="4"/>
		<circle fill="#AD8B3A" cx="220.1" cy="199.7" r="4.2"/>
		<path fill="#AD8B3A" d="M151.7,23.8c2,1,2.1,1.7,6.1,3.7c5.5,2.8,10.8,3.3,14.6,2.3c2.8-0.7,5-2.2,5.9-2.9
			c-2.4-1.1-5.9-2.1-8.7-2.1c-3.2,0-5.3,1.1-5.3,1.1c0.5-2.4,3.2-2.7,6.2-2.8c2.3-0.1,5.3,0.5,6.6,0.7c-3.5-3.7-7.9-4.5-11-4.7
			c-3.2-0.1-5.6,0.4-9.5,1.2s-7-0.2-7.7-0.4c-0.6-0.2-0.9,0.3-0.8,0.8C148.3,21.4,149.7,22.8,151.7,23.8z"/>
	</g>
	<g>
		<path fill="#FFFFFF" d="M231.3,219.4c-1.2-1.6-1.3-1.8-2.9-2.8s-3.6-1.5-5.9-1.1c-2.3,0.4-4.5,2.8-4.5,2.8
			c0.8,0.7,1.6,0.5,2.9,0.9s3.1,1.4,5.1,3.3c2,1.9,7.3,8.1,8,8.9c0.3,0.4,2,2.3,3.8,4.4c1.3-2.1,3.2-2.8,4.1-3.1
			c-0.7-0.9-1.2-1.6-1.5-1.9C239.5,229.9,232.5,221,231.3,219.4z"/>
		<path fill="#FFFFFF" d="M61.9,236.9c3.4-3.9,9.7-11.2,10.6-12.3c1.2-1.3,2.8-3.3,4.9-4.8c2.1-1.5,3.2-1.4,3.9-1.4
			c0.7,0,0.6-0.2,0.4-0.5c-0.2-0.3-1-1.2-2.7-2.1c-1.6-1-3.1-1.2-4.8-0.8c-1.7,0.4-3,1.8-4,3c-1,1.2-7.6,9.2-9.1,11
			c-0.7,0.8-1.9,2.3-3.2,3.9C58.9,233.2,60.9,234.1,61.9,236.9z"/>
		<path fill="#FFFFFF" d="M261.3,222.7c-2.3-2.3-9.4-9-11.1-10.6c-1.8-1.6-7.6-7.4-9.1-8.6s-3.9-2.8-6.4-2.8c-2.5,0-5.1,1.6-5.6,3.4
			c-0.5,1.8,0.4,2.7,1.2,3.3s1.8,1.4,2.1,1.8c0.3,0.4,0.7,0.6,1.7,0.5c1-0.1,2-0.9,2-2.6c0-1.7-0.6-2-1.3-2c-0.8,0-0.9-1-0.3-1.1
			c0.6-0.1,1.7-0.6,2.7,0.2c0.9,0.7,1.9,1.6,1.3,3.3c-0.5,1.6-3.4,3.7-4,3.9c-0.6,0.2-1.4,0.3-3,0c-1.6-0.3-5.6-0.9-9.5,0.3
			c-3.9,1.3-6,2.8-7.9,6.1c-0.7,1.7-0.2,2.7,0.4,3.4c0.5,0.7,1,1.1,1.5,1.1c0.5,0,2-0.2,3.3,1.3s1.9,2.8,1.6,4
			c-0.3,1.2-1.3,2-2.7,2.6c-1.4,0.6-2.3-0.1-4.6,0.4c-2.3,0.5-2.8,0.9-4.9,2.5c-2.1,1.6-9.9,6.6-15.8,9.1
			c-5.9,2.5-14.5,6.5-29.7,8.7c-1.8,0.3-6.4,0.9-13.1,0.8l0,0l0,0c-4.4-0.1-9.7-0.4-15.8-1.4c-1.5-0.2-18.5-2.9-36.1-13.7
			c-1.3-0.8-6.2-4-7.9-5.1c-1.7-1.1-3.5-1.5-5.1-1.4c-1.6,0.1-2.7,0.2-3.8-0.5c-1.1-0.7-2.7-2-1.8-4.2c0.9-2.2,2.6-2.9,3.9-2.8
			c1.4,0.1,2,0.3,3-0.5c0.9-0.9,0.8-2.8-0.6-4.9c-1.4-2.1-6-5.6-10.9-6.3c0,0-2.3-0.5-5.1,0.4c-2.8,0.9-4.9,0.5-6.6-1.4
			c-1.7-1.9-1.6-4-0.9-5c0.8-1,2.2-1.3,3-1c0.7,0.3,1,0.8,0.8,1c-0.2,0.2-0.3,0.2-0.6,0.2c-0.4,0-1.2,0-1.2,1.3
			c0.1,1.3,1.2,3.3,3.1,3.2c1.9,0,3.6-1.4,3.6-4.3s-1.3-3.9-3.3-4.6c-2.1-0.6-5.9,0.6-6.5,1.2c-0.6,0.6-10.4,9.8-11.7,11.1
			c-1.3,1.3-10,9.4-10.7,10c-0.7,0.6-1.2,1.1-1.4,1.7c-0.2,0.6-1.2,3.8,0,7c1.2,3.2,4.5,6.1,7.5,6.9c3.1,0.7,4.8,0.3,5.9-0.5
			c1.1-0.7,2.9-3.3,3.6-4.1c0.7-0.8,7.7-9.3,8.9-10.7c1.1-1.4,4.9-6,5.9-7c0.9-1,2.4-2.7,4.8-3.2c2.4-0.5,4.3-0.1,6.2,1
			s3.7,2.9,3.8,3.9c0.1,1-0.7,2-1.9,2.2c-1.2,0.3-1.9,0-4.3,2c-2.4,2-7.3,8.1-8.1,9s-10.4,11.9-11.1,12.7c-0.6,0.8-1.4,2.1-1.6,4.4
			c-0.1,2.2,0,5,2.7,7.3c2.7,2.4,5,2.5,7.8,3.6s6.4,3.3,7.8,4.7c1.4,1.4,6.1,4.2,9.5,6c3.4,1.8,7.9,4.4,15.3,7.2
			c7.3,2.8,18.5,6.6,30.5,8.5s19.3,1.7,28.4,1.3s22-2.8,31.4-5.9c3.6-1.2,17.4-6,30.5-14.3c1.9-1.2,7.2-4.6,8.6-5.7
			c1.5-1.2,2.8-1.7,4.1-2c1.3-0.3,2.3-0.3,3-0.4c0.7-0.1,2.5-0.7,4.7-2.9c2.3-2.2,2.6-4.7,2.4-6.7c-0.2-1.9-1-4.2-1.8-5
			c-0.7-0.8-6.9-7.9-8.1-9.4c-1.2-1.4-6.8-7.8-8.6-9.7c-1.9-1.9-3.4-3.4-5.7-3.8c-1.9-0.3-3-0.6-3.5-1.8c-0.5-1.1,0.1-2.6,2.5-4.2
			c2.4-1.6,5.2-2,7.5-1.5c2.3,0.5,4.7,1.9,5.9,3.4s8.1,10.2,9.5,12.1c1.4,1.8,5,6.2,5.8,7.4c0.9,1.1,2,1.8,4,2.4c2,0.6,4,0.1,5.7-1
			c1.6-1.1,5.1-4.5,6-7.2C263.9,227.8,263.7,225,261.3,222.7z"/>
	</g>
	<g>
		<path d="M241.9,97.9c0-5.5,0-58,0-58H58.4c0,0,0,52.4,0,58c0,5.5-0.3,17.6,1.9,30.1c0.3,1.8,2.5,17.3,9.9,34.8
			c0.8,2,6.3,16.1,19.1,33.9c1.5,2.1,13.5,18.1,26.4,29.4c1.5,1.3,14,13.6,34.4,25.6c20.4-12,32.9-24.3,34.4-25.6
			c12.9-11.3,24.9-27.3,26.4-29.4c12.9-17.8,18.3-32,19.1-33.9c7.5-17.5,9.6-33,9.9-34.8C242.2,115.5,241.9,103.4,241.9,97.9z"/>
		<path fill="#C90016" d="M239.2,99.6c0-0.6,0-1.2,0-1.8V42.6H61.1v55.2c0,0.5,0,1.1,0,1.8c0,5.9-0.1,16.8,1.8,27.8
			c0,0.1,0,0.3,0.1,0.5c1.8,11.5,5.2,23.2,9.7,33.6c0.1,0.1,0.1,0.3,0.3,0.6c5.6,13.6,13.2,25.3,18.6,32.8c0.1,0.2,12.5,17.2,26,29
			c0.2,0.1,0.4,0.4,0.8,0.7c9.6,8.9,20.3,16.8,31.9,23.8c11.6-6.9,22.3-14.9,31.9-23.8c0.4-0.3,0.6-0.6,0.8-0.7
			c13.5-11.8,25.9-28.8,26-29c5.4-7.5,13-19.2,18.6-32.8c0.1-0.3,0.2-0.5,0.3-0.6c4.5-10.5,7.8-22.1,9.7-33.6c0-0.2,0.1-0.4,0.1-0.5
			C239.3,116.5,239.2,105.5,239.2,99.6z"/>
	</g>
	<g>
		<path d="M88.1,65.9c0,0,1.6,0.9,3.8,1.3s3,0.6,3.5,0.5c0.6-0.1,2.6-0.3,4.2-0.2s5.5,0.3,6.1,0.3c0.6-0.1,0.8,0.1,1.3,0.2
			c0.5,0.1,1.2,0.6,1.6,0.7s0.7,0.1,1.5-0.2s2.7-1.2,5.3-1.2s5.3,0.1,6.6,0.1c1.3,0,4.3-0.4,5.6-1.2c1.3-0.8,1.8-1.5,2.4-1.5
			c0.6-0.1,1.1,0.5,1.7,1.1c0.6,0.6,1.3,1.3,2.1,1.4c0.8,0.1,1.7-0.2,3.1-0.1c1.4,0,3.3,0.7,3.6,2.6c0.3,1.9-0.2,3.5-0.2,4.7
			s0.5,1.9,1.1,2.6c0.6,0.7,0.8,0.6,1.6,0.6c0.7,0,2.7-0.2,3.7,1.2s0.7,3.4,0.5,4.2c-0.2,0.8-1.2,1.3-2.7,1.5
			c-1.5,0.2-2.5,0.2-3.1,1s-0.6,1.6-0.5,2.5s-0.1,1.2-0.1,1.6c0,0.4-0.1,2.2-0.2,3.6c-0.1,1.4-0.2,5.9-0.2,7.6s-0.1,4.7,0.5,5.7
			c0.6,1,1,1,2.2,1c1.2,0.1,3,0.1,4,1.2c1.1,1,1.4,1.8,1.1,3.3c-0.3,1.5-1.7,3-3.3,3.2c-1.6,0.2-3.5-0.3-3.9,0.2
			c-0.4,0.5-0.8,2.3-0.6,4c0.1,1.7,0.3,3.3,0,4.7c-0.3,1.4-1,1.8-3.1,2.3c-2.1,0.5-5.6,0.4-7.6,0.4c-2.1,0-3.5-0.2-4.8-0.2
			c-1.3-0.1-2.1-0.2-3.2,0.1c-1,0.3-2.7,0.1-4.1,0.1c-1.4,0-2.7-0.1-3.3,0.2c-0.6,0.3-1.3,1.3-2,1.9c-0.7,0.6-1.9,1.2-3.4,0.8
			c-1.6-0.4-2.5-1-2.8-1.4s-0.8-0.8-2.7-1.2c-1.9-0.4-5-0.2-6.8-0.1s-4.5,0.1-5.8,0.3c-1.3,0.2-5.6,0.3-8.8,0
			c-3.2-0.3-4.3-1.4-4.5-4.1c-0.1-2.7,0.1-5.1-0.1-5.9c-0.2-0.7-1.5-0.9-2.8-0.9c-1.3,0-3.2-0.4-4-1.3c-0.9-0.9-1.2-3.2-0.5-4.9
			c0.7-1.6,1.5-2.3,3.5-2.1c2,0.2,2.6,0.1,3.2-0.4c0.6-0.5,0.5-1.1,0.4-2.8c-0.1-1.8,0.1-12.9,0.1-15.6c0-2.7-0.2-3.1-0.7-3.3
			c-0.5-0.2-1.3-0.2-2.5-0.2s-3.9-0.8-4.4-2.1c-0.5-1.3-0.3-4,1.1-5c1.4-1,2.8-1.1,4.5-1.1c1.7,0,2.1,0,2.2-1.5
			c0.1-1.5,0.2-5.9,0.3-6.2c0.1-0.3,0.6-2.1,2.8-2.1c2.1,0,3.3,0,3.9-0.2c0.6-0.2,1-1,1.4-1.5C86.3,65.3,86.7,64.8,88.1,65.9z"/>
		<path fill="#FFFFFF" d="M90.8,69.1c0,0,1.4,0.9,4.8,0.9c3.4,0.1,4.7,0.3,5.7,0c1-0.3,2.1-0.5,3.1-0.2c1,0.2,2.1,0.7,2.4,1.2
			s0.6,1.2,0.6,1.4c0.1,0.2,0.2,4.3,0.2,5.1c0,0.8,0.1,8.2,0,11.7s-0.3,13.6-0.3,15.8c0,2.2-0.1,7.7,0.1,9.3
			c0.2,1.5,0.5,1.9,0.3,2.2s-0.4,0.8-1.1,0.5c-0.6-0.2-2.5-0.6-6.3-0.9s-6,0-7.4,0.1s-3.4-0.1-4.1-1c-0.8-0.9-0.5-1.6-0.4-1.9
			c0.1-0.3-0.1-1.2-0.1-2.8c0-1.6,0-12-0.1-14.1c-0.1-2.1-0.1-13,0-15.3c0.1-2.3,0.2-3,0.2-3.4c0-0.4-0.3-1.7-0.2-3.3
			c0.1-1.6,0.1-2.7,0-3.2c-0.1-0.5-0.2-1.4,0.3-1.9S90,68.8,90.8,69.1z"/>
		<path fill="#FFFFFF" d="M86.2,73.4c0,0-0.1,3-0.2,4.4c-0.1,1.4-0.2,4-0.2,4.8s0.1,2.5,0.1,4.4s0,11.4,0,13.2s0,11.6,0,12.3
			s0.2,2.6-0.2,4c-0.5,1.4-1.5,2-1.8,2.2c-0.3,0.2-0.7-0.1-0.7-0.9s0.1-1.3,0-2.1s-0.1-6-0.1-6.8c0-0.8,0-13.3,0-14.3
			c0-1,0.1-13.2,0.1-13.8s0-5.4,0-6.3c0-0.8,0.3-2.1,0.9-3.2s1.4-1.2,1.7-1s0.6,0.5,0.2,0.9s-0.3,1-0.1,1.2
			C86.1,72.7,86.2,73,86.2,73.4z"/>
		<path fill="#AD8B3A" d="M81.5,73.6c0,0-0.2,2.5-0.2,3.8s-0.1,14.2,0,15.3c0,1.1,0,15.1,0,16c0,0.9,0.1,5,0.1,5.4
			c0,0.4,0.1,4.7,0.3,5.9c0.1,1.2,0.9,1.9,2.2,2.2s4.9,0.2,6.4,0.2c1.4,0,2.4,0.2,4.3,0.1c1.9-0.1,7,0,8.2,0c1.2,0,2,0.1,2.2,0.7
			c0.2,0.6-0.1,1.3-1.8,1.3c-1.7,0.1-9.6-0.1-11.2,0c-1.6,0.1-8.4-0.2-9.6-0.2c-1.2,0-2.5-0.3-2.7-2.7c-0.1-2.4-0.1-6.3-0.2-6.9
			c-0.1-0.6-0.8-1.2-3.1-1.2s-3.5-0.4-4-1.2s0-2.5,2.5-2.5c2.5,0,3.3,0,3.8-0.4c0.5-0.4,0.8-0.7,0.8-4s0.2-14.1,0.2-15
			c-0.1-0.9,0.2-3.1,0-4.3s-0.5-2.6-1.5-2.8c-0.9-0.2-3.2,0.2-4.9-0.1s-2-1.5-1.4-2.3c0.6-0.8,1.2-1.5,3.4-1.4s3-0.1,3.5-0.9
			c0.5-0.8,0.9-2,0.9-3.7c0-1.7,0.1-3.1,0.6-4c0.6-0.9,1-1.2,1.6-0.8c0.5,0.4,0.5,0.9,0.3,1.4C81.9,72.1,81.6,72.7,81.5,73.6z"/>
		<path fill="#FFFFFF" d="M94,118.4c0,0,6.5-0.1,7.9,0c1.4,0.1,2.7,0.1,3.6,0.6c0.8,0.5,0.9,1.1,0.6,1.5c-0.2,0.4-0.5,0.6-1.4,0.4
			c-0.9-0.2-3.8-0.5-6-0.3c-2.2,0.1-6.8,0.2-8.9,0.2c-2,0-1.6-0.2-2.4-0.2s-1.6,0-1.9-0.5c-0.3-0.5,0.1-1.4,0.8-2.1s1.4-0.9,2.2-0.6
			c0.8,0.4,0.8,0.7,2.5,0.9C92.8,118.5,94,118.4,94,118.4z"/>
		<path fill="#AD8B3A" d="M110.2,121.5c0,0,1.4,0.6,1.7,2c0.3,1.4-0.1,3.1-1.3,3.5c-1.1,0.4-2.1,0.1-2.8-0.6
			c-0.4-0.5-0.4-0.7-0.4-1.3s0-1.4,0-1.7s0.2-0.9,0.8-1.5C108.7,121.4,109.4,121,110.2,121.5z"/>
		<path fill="#AD8B3A" d="M114.5,124.3c0,0,0.4,0.2,1.1,0.1c0.7-0.1,1-0.1,1.5,0s1.1,0.2,2.9,0c1.8-0.2,4-0.1,4.9-0.1
			c0.9,0,7.8-0.1,9.6-0.2c1.8-0.1,2.4-0.1,2.9-0.6c0.6-0.5,0.5-1.6,0.5-2.5c0-1,0.3-6.1,0.5-6.6s1-1.6,2.4-1.6s3.2,0.2,4.1-0.2
			c0.9-0.5,1.1-1.5,0.5-2.2c-0.6-0.6-0.8-0.9-3-0.9s-2.4,0-3.2-0.6c-0.8-0.5-1-2.9-1-4.1c-0.1-1.2,0.2-9.8,0.2-10.9s0.3-9.1,0.5-9.7
			s0.4-1.5,1.8-1.5s3.2,0.1,4-0.7c0.9-0.8,0.3-1.9-0.4-2.2c-0.8-0.3-2.2-0.4-3.3-0.4c-1.1,0-2-0.3-2.3-1c-0.3-0.6-0.3-5.1-0.3-6.1
			c0-1-0.2-2.6-1.2-2.9c-1.1-0.3-1.8,0.6-1.8,0.6s0.6,1.7,0.6,5.3c0,3.6,0.2,6,0.2,7.9s0,10,0,11.8c0,1.8-0.3,11.3-0.2,12.8
			s0.2,5.8,0.2,7.9c0,2.1-0.3,4.1-0.6,4.8c-0.3,0.7-1.4,1.7-3.2,1.8c-1.9,0.1-4.1-0.2-5.2-0.1s-3.8,0.2-5,0.2c-1.2,0-5-0.1-5.9,0.1
			c-0.9,0.1-2.3,0.3-2.3,0.8S114.1,124.1,114.5,124.3z"/>
		<path fill="#FFFFFF" d="M124.9,120.6c0,0,6.4,0.1,7.2,0c0.8-0.1,1-0.4,1-0.6s0-0.5-0.2-0.7c-0.2-0.2-0.6-0.9-0.9-1.3
			s-0.7-0.9-1.2-0.9c-0.5,0-1.3,0.3-2.1,0.6s-3.7,0.8-6.9,0.9s-5.4,0.2-6,0.2c-0.6-0.1-2.1-0.5-2.9-0.3c-0.8,0.2-1.9,0.7-1.5,1.5
			c0.4,0.8,1,1.2,2.1,1.2s1.9-0.3,2.6-0.3c0.7,0,1,0.2,1.8,0.2s2.5-0.2,3.3-0.2C122.2,120.6,124.5,120.5,124.9,120.6z"/>
		<path fill="#FFFFFF" d="M134.3,115.6c0,0-0.1-40.9,0-41.7c0-0.8,0.1-1.3-0.7-2.7c-0.8-1.4-1.2-1.6-1.7-1.6c-0.5,0-0.8,0.9-0.6,1.7
			s0.2,3.5,0.1,5.5c0,2,0,14.6,0,15.7c0,1.1-0.2,14.2-0.1,15.4c0.1,1.3-0.1,4,0,4.8c0.1,0.9,0.2,1.5,0.7,2.5c0.5,1,1.3,1.5,1.6,1.7
			c0.3,0.3,0.6,0.1,0.7-0.6C134.3,115.8,134.3,115.6,134.3,115.6z"/>
		<path fill="#FFFFFF" d="M114.9,69.9c0,0,6.3,0,7.3,0c1,0,3-0.2,4.6-0.9c1.6-0.6,1.8-0.9,1.8-0.9s0.8,0.6,0.8,0.7
			c0,0.1,0.1,1.8,0.1,2.5c0,0.8-0.2,2-0.2,3.5c-0.1,1.5,0.3,11.5,0.2,12.4c-0.1,1-0.1,4.4-0.2,5.6c-0.1,1.2,0.1,16.5,0.1,17.4
			c0,0.9,0.1,3-0.1,3.8c-0.2,0.8-0.8,1.3-1.1,1.4s-1.6,0.4-2.2,0.5c-0.5,0.1-2.2,0.1-3.6,0.1c-1.4-0.1-5.8,0-7.7,0.1
			s-3.8,0.3-4.2,0.4c-0.5,0.1-0.7-0.2-0.9-0.5c-0.2-0.3-0.2-1.3,0-2.1c0.2-0.9,0.3-1.1,0.3-2c0-1-0.3-14-0.4-15.2s-0.1-12.9,0-14.5
			c0.1-1.6,0.3-5.1,0.2-6.1c-0.1-1-0.1-2.3,0.1-3.4c0.2-1.1,0.8-2.3,2.2-2.6C113.4,69.8,114.9,69.9,114.9,69.9z"/>
		<path d="M91.8,86.3c0,0,0.2,0.3,2.1,5.6c1.9,5.3,1.9,5.8,2.1,6.2c0.2,0.4,0.4,0.7,0.5,1.3c0.1,0.6,0.4,2.3,1.2,3.1
			c0.8,0.8,1.4,1.1,1.8,0.9c0.4-0.3,0.8-0.4,1.2-2.2c0.5-1.8,3.6-12.9,3.7-13.7c0.2-0.8,0.8-2.8,1.2-3.2s0.4-0.8,0.4-1.1
			c0-0.2-0.8-0.7-1.8-0.8s-1.8,0.2-2.1,0.6c-0.3,0.4-0.2,0.8,0.2,1.4c0.4,0.6,0.6,2.2,0.3,3.4s-1.4,5.2-1.5,5.9
			c-0.1,0.7-0.2,1.7-0.7,2.4c-0.5,0.7-1.1,0.9-1.4,0.4c-0.2-0.5-0.8-1.8-1.1-2.5c-0.2-0.7-1.4-4.4-1.8-5.5c-0.4-1.1-0.8-2.4-0.8-2.8
			c0-0.4,0.4-0.9,0.8-1.5s0.5-1.1,0-1.5c-0.5-0.4-1-0.5-2.1-0.6c-1.1-0.1-1.5,0.1-2.2,0.1c-0.7,0-1.7,0-2.1,0.4
			c-0.4,0.4-0.4,0.8,0.1,1.2S91.3,85,91.8,86.3z"/>
		<path d="M112.7,84.3c0,0,0.8,0.8,1,1.2s0.3,0.9,0.3,1.6s0,9.9,0,10.6c0,0.7-0.2,1.8-0.2,2.3c0,0.5,0.1,0.6-0.3,1.3s-1,1.5-0.8,1.9
			c0.2,0.3,0.7,0.6,1.8,0.6c1,0,3.7,0.1,4.5,0.2c0.8,0.1,3.1,0.3,3.8,0.1s1.4-0.6,1.9-1.5c0.4-0.9,0.5-1.6,0.3-2.4
			c-0.2-0.8-0.8-1-1-1s-0.4,0.2-0.6,0.5c-0.1,0.3-0.5,1.4-1.2,1.9c-0.7,0.4-1.1,0.5-2.1,0.5c-1,0-1.6,0.1-2.3-0.1
			c-0.6-0.2-0.8-0.4-0.9-1.4c-0.1-1-0.7-4.9-0.2-6.2c0.5-1.3,1.3-1.9,2.1-1.5s1.7,1,2.1,1.1c0.4,0.1,1.3-0.7,1.4-1.4
			s-0.1-2.1-0.5-2.3c-0.4-0.2-0.8,0.1-1.4,0.5c-0.6,0.4-1.3,0.9-1.8,0.9c-0.4,0-1.4-0.5-1.7-1.4c-0.3-0.9-0.1-3.7,0-4.4
			c0.1-0.7,0.9-1.5,2-1.6c1.1,0,1.8,0.6,2.5,1.2c0.7,0.6,1.2,1,1.5,0.7c0.3-0.3,0.4-1.4,0.2-1.8s-0.7-1.6-1-1.8s-0.4-0.4-1.2-0.4
			c-0.8,0-4.8,0.2-5.8,0.3c-0.9,0.1-2.1,0.3-2.5,0.4C112.4,83,112.1,83.7,112.7,84.3z"/>
	</g>
	<g>
		<path d="M162.6,148.6c0,0,5.1,0,7-0.3s4-0.7,6.3-1.9c0,0,2.5,0.5,3.2,0.8c0.8,0.3,1.4,0.6,1.6,0.9c0,0,3.6-0.1,4.4-0.1
			c0.8,0,2.8,0.7,3.3,2.2c0.5,1.5-0.3,4.5-0.2,5.5c0,0.9-0.2,2.4,1.7,2.7s3.5-0.2,4.5,0.5c1,0.7,1.9,2.4,1.8,3.7s-1,2.3-2,2.7
			c-1,0.4-3.1,0.8-4.7,0.8l-0.9,1.2c0,0-0.2,8.9-0.1,11.3c0,2.3,0,7.1-0.1,7.8c-0.1,0.7-0.2,1.2,0.3,1.6s1.5,0.6,2.2,0.6
			s1.6-0.3,2.5,0c0.9,0.3,3,1.3,3.3,2.6c0.3,1.3,0,3.2-0.8,4c-0.9,0.8-2.6,1.2-4.3,1.4c-1.8,0.2-2.2,0.3-2.5,0.8
			c-0.3,0.6-0.5,2.2-0.5,2.7c0,0.5,0.2,3.7,0.1,4.6c-0.1,0.9-0.7,2.4-1.3,2.7c-0.6,0.2-2.7,0.7-3.6,0.8c-0.9,0.1-9.3,0.1-11.1,0.2
			c-1.9,0.1-7.4,0.1-8.3,0.2c-1,0.1-0.9,0.2-1.2,0c-0.3-0.2-0.7-0.2-1.5-0.2c-0.8,0-4.1,0.2-4.9,0.1s-2.6-0.1-3.8,0.4
			c-1.2,0.5-1.8,0.9-2.2,1.1c-0.3,0.2-0.5,0.3-1.7,0.3s-2.1-0.5-2.8-1c-0.7-0.5-1.6-1.1-1.6-1.1s-5.8,0.1-7.4,0.2
			c-1.6,0-5.7-0.1-6.3,0c-0.7,0.1-1.5,0.4-2,0.4c-0.4,0-0.4-0.2-0.7-0.2c-0.3,0-3.3,0.1-3.8,0.2c-0.5,0.1-2.8,0.2-3.4,0
			c-0.6-0.2-1.4,0-2.3,0c-0.8,0.1-1.5,0.4-2.8,0.1c-1.2-0.3-1.9-0.3-2.8-0.4c-0.9-0.1-2.5-0.9-2.5-2.6c0-1.7-0.1-3.8-0.1-4.9
			s0.1-2.7-0.4-3.3s-1-0.8-2.4-0.8c-1.4,0-3.6,0-4.9-1s-1.3-2.7-1-3.9s1.9-3,4.1-2.9c2.2,0.1,3.5,0.2,3.9-0.3
			c0.4-0.5,0.5-1.2,0.4-1.8c-0.1-0.6-0.1-1.2,0-1.7c0.1-0.5,0.1-3,0-3.6c-0.1-0.5-0.1-2.5,0-3.5c0.1-1,0-8.8,0-9.4
			c0-0.6,0-1.5-0.5-1.8c-0.5-0.3-1.3-0.1-2.4-0.2s-3.7-0.5-4.8-1.3c-1.1-0.9-1.6-2.3-1-4.1s2.5-2.7,4.7-2.7c2.1,0,3.4,0.2,3.8-0.4
			c0.5-0.6,0.5-2.3,0.5-3.2c0-0.9-0.3-2.9-0.2-4s0.5-2.4,2.9-2.5c2.4,0,3.7,0,4.5-0.1c0.8-0.2,1.3-1.2,1.8-1.9s1.1-1.1,1.8-0.7
			s2,1.7,4.6,2.1s4.9,0.5,8,0.3c3.1-0.2,6.3-0.5,8.6-0.5c2.3,0,3.3,0.3,3.9,0.5s2.4,1.1,2.4,1.1s1.3-1.5,3.8-1.5
			C155.2,148.2,160.7,148.4,162.6,148.6z"/>
		<path fill="#FFFFFF" d="M160.3,150.6c0,0,4.6,0.3,7.2,0.2c2.6-0.1,4.9-0.5,6.3-1.1c1.4-0.6,1.5-0.7,2.1-0.7c0.6,0,1,0.2,1.2,0.5
			c0.1,0.3-0.2,2.7-0.3,4c-0.1,1.3-0.1,4-0.1,5.9c0,1.9,0.3,10.3,0.3,11.6s0,9.3,0,10.3c0,1-0.1,9.3-0.1,10.2s0,2.6,0,2.9
			s-0.1,1.1-1.2,1.7s-2.9,1-4.8,1.1s-11.8,0-13.6,0c-1.9,0-3.6-0.1-4.2,0.2c-0.6,0.4-1.3,0.8-2,0.8s-1.2,0-1.2-1
			c0-0.9,0.4-2,0.4-2.8c0-0.8-0.4-1.4-0.3-1.8s0.2-3.3,0.1-4.3c-0.1-1-0.1-5.5-0.2-6.3c-0.1-0.8-0.2-3.5,0.1-4.4
			c0.3-0.9,0.9-0.8,1.3-0.5s1.4,2.6,1.4,3.8s-0.3,2-0.3,2.3c0,0.3,0.1,0.8,1.2,0.8c1.1,0.1,2,0,2.5,0.1c0.4,0.1,1.2,0.1,1.6,0
			c0.5-0.2,1.1-0.4,0.9-0.9s-1.4-1.5-2-2.1c-0.7-0.6-0.9-1.2-1-1.9c0-0.6-0.7-3.4-1.3-5c-0.6-1.6-1.5-4-1.6-5
			c-0.1-1-1.1-4.5-1.5-5.4c-0.4-0.9-0.9-2.3-0.9-2.9s0-8.5,0-8.9c0-0.4,0.7-1.3,1.9-1.5c1.2-0.2,1.8-0.3,2.4-0.3c0.5,0,2.9,0,3.5,0
			C158.6,150.4,160.3,150.6,160.3,150.6z"/>
		<path fill="#FFFFFF" d="M144.6,150.7c0,0-2.3-0.3-4-0.4c-1.7,0-6.5,0.3-8.9,0.5c-2.5,0.1-4.8,0.1-6-0.3s-3.1-1.1-3.5-1.1
			c-0.4,0-0.7,0.4-0.8,1.1c-0.1,0.8,0.1,2.3,0.3,4.9c0.1,2.6,0,6.7-0.1,8.3c-0.1,1.7,0.1,9,0,10.2c0,1.2,0,11.1,0,12
			c0.1,0.9-0.1,9.1,0,9.3c0.1,0.2,0.4,0.8,1.6,1.3c1.1,0.5,2.7,0.8,4.8,0.8c2.2,0,5.6,0.1,6.4,0.1c0.8,0,4.4,0,5.1,0
			c0.7-0.1,3.1-0.1,4-0.1c0.8,0.1,1.7,0.3,2.5,0.3c0.8,0,1.4-0.1,1.6-0.4c0.1-0.3,0.2-0.7,0.2-1.3c0-0.6,0-5,0-5.8
			c0-0.8-0.2-5.9-0.1-7.3c0.1-1.4,0.1-4,0-4.7s-0.2-1.2-1-1.2c-0.8,0-1.2,0.5-1.6,1.3c-0.4,0.8-0.4,2-0.3,3.2
			c0.1,1.2,0.3,1.7,0.2,2.2c-0.1,0.5-0.6,0.7-1.3,0.7c-0.7,0-2.3,0.2-3.1-0.2c-0.7-0.4-0.6-1.1,0-1.5s1.5-0.5,1.7-1.3
			c0.3-0.8,2-7.4,2.3-8.8c0.3-1.4,1.3-4.8,1.6-5.9c0.3-1.1,1.1-4.3,1.1-5.5s0-4.9,0.1-6c0.1-1.2,0.1-2.5-0.3-3.1
			S146,150.8,144.6,150.7z"/>
		<path fill="#FFFFFF" d="M148.3,170.3c0,0-0.4,2.3-0.4,3.2c0,1,0.1,1.3-0.5,1.5s-1.2-0.2-1.2-1.6s0.7-3.3,0.9-3.9
			c0.2-0.6,0.5-0.7,0.7-0.5S148.4,169.9,148.3,170.3z"/>
		<path fill="#FFFFFF" d="M150.4,174.6c0,0,0.4-0.4,0.3-0.7c-0.1-0.3-0.7-0.9-0.9-0.4c-0.2,0.5-0.1,0.8,0,1.1
			C149.8,174.9,150.1,174.9,150.4,174.6z"/>
		<path d="M137.6,164.9c0,0,0.7,1.2,1.3,1.4c0.6,0.2,1.3-0.5,1.4-1.3c0.1-0.8,0.1-1.7,0.3-2.2c0.2-0.5,0.3-0.7-0.1-1
			c-0.4-0.3-0.8-0.5-1.1-0.3s-1,0.8-2.2,0.9c-1.1,0.1-1.7,0.1-2.5,0c-0.8-0.1-2.6,0-3.2,0.1s-1.3-0.1-2-0.5
			c-0.7-0.4-1.2-0.5-1.4-0.4c-0.2,0.1-0.4,0.1-0.7,0.9c-0.3,0.8-0.9,2.4-0.9,3c0,0.6,0.1,1.2,0.4,1.4s0.7,0.1,1-0.4
			c0.3-0.4,0.9-1.4,1.9-1.9c1-0.5,1.3-0.5,1.7-0.3s0.9,0.7,1,1.1c0.1,0.4-0.2,2.9-0.2,4.3s-0.1,8.1,0,9c0.1,0.8,0.2,1.9,0.1,2.1
			c0,0.1-1,1.2-1.4,1.9s-0.4,1.2,0.1,1.6c0.4,0.4,1.3,0.5,1.8,0.3s0.8-0.1,1.2-0.1c0.4,0,1.6,0.3,2.3-0.2c0.7-0.6,0.9-1.1,0.5-1.6
			c-0.4-0.5-0.8-0.8-0.9-1.3c-0.1-0.5-0.2-7.4-0.3-8.5s-0.2-2.5-0.2-2.8c0.1-0.3,0.2-1.4,0.1-2.1c-0.1-0.7-0.2-1.8-0.1-2
			C135.7,165.7,136.2,163.6,137.6,164.9z"/>
		<path fill="#FFFFFF" d="M119.1,156.3c0,0,0.1,18.3,0.1,18.9c0,0.6,0.1,18.4,0.1,19.1c0,0.6,0,1.7-0.6,3c-0.6,1.3-1.4,1.9-1.6,2
			c-0.2,0.1-0.3,0-0.5-0.2c-0.2-0.2-0.2-0.6-0.2-1.5c0-0.9,0.1-9.8,0.1-10.8c0-1-0.1-12.1-0.1-13.1c0-1,0-12.1,0-12.3
			c0-0.3,0-6.1,0-6.6c0-0.4,0.1-0.7,0.3-1.1c0.2-0.4,1-1.7,1.2-1.8c0.2-0.2,0.5-0.2,0.8,0c0.3,0.2,0.6,0.5,0.4,1.4
			c-0.1,0.9-0.3,1.4-0.2,2C119.2,155.8,119.1,156.3,119.1,156.3z"/>
		<path fill="#AD8B3A" d="M116,152.4c0,0-0.7,1-0.9,1.6c-0.3,0.6-0.4,0.9-0.4,2.9c0,1.9,0,7.9,0,8.7c0,0.8,0.2,6.4,0.2,7.6
			c0,1.2,0,10.5-0.1,11.3c0,0.9-0.1,5.7-0.1,6.8c0,1,0.1,4.9,0.2,5.9c0.1,1,0.2,5.2,0.2,5.5c0,0.3,0.2,0.6,0.3,0.7
			c0.2,0.1,0.4,0.4,0.8,0.4c0.4,0,6.5-0.1,7.9-0.2c1.4-0.1,7.2-0.3,8.9-0.1s7.9,0.3,8.9,0.3c1,0,1.9,0,2,0.1c0.1,0.1,0.3,0.7,0.3,1
			c0,0.3-0.7,0.6-1.4,0.7c-0.7,0.1-6.4,0.2-7.3,0.3c-0.9,0-4.5,0.3-5.3,0.3s-2.7-0.3-3.7-0.3c-1,0-7.3,0.4-8.2,0.5
			c-0.9,0.1-2.9,0-3.5,0c-0.6,0-1-0.2-1.6-0.8c-0.5-0.6-0.6-1.3-0.7-2.7c0-1.3,0.1-4.9-0.4-6s-1.6-1.8-3.5-1.9
			c-1.9,0-3.6-0.2-4.2-0.9c-0.7-0.7-0.2-1.8,0.8-2.2c1-0.4,3.8-0.5,4.6-0.6c0.7,0,1.6,0,1.9-0.7c0.3-0.6,0.5-1.6,0.6-3.5
			s0.1-10.3,0-11.6c-0.1-1.3,0.1-7.1,0-8c-0.1-0.9-0.4-2.1-1.3-2.6c-0.9-0.6-2.1-0.5-3.1-0.4c-1,0.1-2.5,0.2-3.3-0.6s-0.6-1.7,0-2.3
			s2-0.7,3.3-0.7c1.4,0,2.8-0.2,3.5-0.8s1-1.1,1-2.3c0-1.1,0.2-3.3,0.2-4.1c0-0.9,0-1.9,0.4-2.3c0.4-0.3,1.3-0.8,1.9-0.8
			c0.6,0,0.8,0.3,1,0.6S116.3,152,116,152.4z"/>
		<path fill="#FFFFFF" d="M118.5,200.2c0,0,0.8-1.3,1.5-1.9c0.7-0.6,1.1-0.6,1.7-0.3c0.6,0.3,2.2,1.1,2.8,1.2s6,0.3,7.8,0.3
			c1.9,0,11.1-0.1,12-0.1c0.9,0,1.7,0.4,1.9,0.7c0.2,0.3,0.3,0.8-0.2,1.2c-0.5,0.5-2.2,0.4-4.2,0.4s-10.8-0.1-12.5-0.1
			c-1.6,0-5.3,0-6-0.2c-0.7-0.1-2-0.3-2.6-0.3c-0.6,0-1.2,0.2-1.7,0.2s-0.7-0.1-0.8-0.3C118.2,200.9,118.4,200.4,118.5,200.2z"/>
		<path fill="#AD8B3A" d="M150.3,202.3c0,0,0.6,0.8,0.7,1.6c0.1,0.7,0,1.5-0.1,2c-0.1,0.4,0.1,1.2-0.3,1.6c-0.4,0.3-1.1,0.6-1.9,0.4
			c-0.8-0.2-1.4-0.6-1.7-1.4s-0.5-1.5-0.4-2.3c0.1-0.8,0.4-1.4,1.1-1.9c0.7-0.5,1.1-0.5,1.5-0.5
			C149.8,201.7,150.2,202.1,150.3,202.3z"/>
		<path fill="#FFFFFF" d="M153.1,201.7c0,0,6,0.1,8,0.1c2,0,5.9-0.1,7.3-0.1c1.5,0,6.2-0.2,7.9-0.2c1.7,0,1.8,0.2,2.5,0.1
			c0.8,0,1.4-0.4,1.5-0.6c0.1-0.2-0.1-0.5-0.4-1s-1.1-1.7-1.6-2c-0.5-0.3-1-0.4-1.5,0c-0.6,0.4-0.5,0.5-2.1,0.8s-6.5,0.7-7.9,0.6
			s-7.3-0.1-8.5-0.1s-3.9-0.1-4.6,0.1c-0.6,0.1-1.7,0.3-1.7,1C151.9,201.2,152.6,201.7,153.1,201.7z"/>
		<path fill="#AD8B3A" d="M155.3,203.8c0,0,9.4,0,10.8-0.1c1.4,0,9.3-0.1,10.5-0.1c1.3-0.1,4.7-0.3,5.8-0.7s1.4-1.2,1.4-2.5
			c0-1.4,0.2-5.3,0.2-6.7c0-1.4,0-12.8,0-14s0.1-7.6,0.1-9.1s0-9.1-0.1-9.9c0-0.8,0-6.4-0.1-6.9c0-0.4-0.1-0.8-0.5-1.3
			c-0.3-0.4-0.9-1.1-0.7-1.6s1.1-0.9,1.9-0.8c0.8,0.1,1.9,0.6,1.8,2.7c-0.1,2-0.1,4.3,0.1,5.3c0.3,1.1,0.4,1.8,2.3,2.1
			c1.9,0.3,3.3,0.1,4.1,0.6c0.8,0.5,0.9,1.5,0.6,2.1c-0.3,0.6-1.7,1-3.2,1c-1.5,0-2.5,0.1-3.2,0.9c-0.7,0.7-0.7,1.1-0.7,2.3
			c-0.1,1.2,0,6,0,7.1c0.1,1.2-0.2,6.1-0.2,7c0,0.9-0.1,4.4,0,6.1c0.1,1.7,0.1,2.7,1.2,3.2s1.9,0.4,3.2,0.5s2.6,0.2,3.2,0.9
			c0.6,0.7,0.4,1.9-0.5,2.5c-0.9,0.6-1.4,0.5-2.7,0.4c-1.3,0-2.2,0-2.8,0.4c-0.6,0.4-0.9,0.8-1.2,2.8c-0.2,2-0.5,4.4-0.6,5.3
			s0.1,1.3-0.1,1.7c-0.3,0.3-1.6,0.9-2.5,0.9c-0.9,0-3.4,0-4.5,0.1s-8.7,0.1-10,0.1c-1.2,0-7.6,0.1-8.5,0.2s-5.2,0-6-0.1
			c-0.9-0.1-1.3-0.6-1.4-1c-0.1-0.4,0-0.7,0.4-0.9C154,204,154.3,203.8,155.3,203.8z"/>
		<path fill="#FFFFFF" d="M181.9,196.4c0,0,0.1-11.3,0.1-12.5s0-13.7,0-14.3c0-0.6,0-9.7,0-10.4c0-0.6-0.2-4.1-0.2-4.8s0-1-0.4-1.6
			c-0.3-0.5-0.8-1.1-1.3-1.6s-0.5-0.4-0.7-0.2c-0.2,0.2-0.5,0.5-0.5,1c0,0.5-0.1,5-0.1,5.8c0,0.8,0.2,6.3,0.2,7.5
			c0,1.2-0.2,9.9-0.2,11.2c0,1.3,0,10.7,0.1,11.8c0.1,1,0.2,4.3,0.1,4.6c0,0.3-0.1,0.3-0.2,1.1c-0.1,0.7,0.1,1.4,0.4,2.3
			c0.3,0.8,1.3,2.1,1.8,2.6s0.8,0.1,0.8-0.6C181.9,197.5,181.9,196.4,181.9,196.4z"/>
		<path d="M168.2,166.1c0,0,0.7,1.1,1.1,1.3c0.4,0.2,1.1,0.3,1.3-0.4c0.2-0.7,0.3-2,0.1-3c-0.3-1-0.3-1.4-1-1.5s-1.1,0.2-1.3,0.3
			c-0.2,0.1-0.4,0.2-0.8,0.2c-0.4,0-2.5-0.1-3.5,0.2s-2.8,1.2-3.3,4s0.7,4.3,2.6,5.8c1.9,1.4,3.1,2,4.1,2.8c1,0.8,2.1,2.3,2.1,3.4
			c0,1.1-0.7,2.3-1.4,2.8c-0.7,0.4-2.7,0.3-3.5-0.2c-0.9-0.5-1.8-1.5-2-2.2c-0.3-0.7-0.5-1.3-1.1-1.4c-0.6,0-1.1,0.8-1.1,1.6
			c0,0.8,0.2,1.2,0.2,1.9s-0.1,1.4,0.2,1.8s0.4,0.4,0.8,0.2s0.6-0.4,1.4-0.4s1.3,0.5,2.6,0.9c1.3,0.3,3.7-0.2,4.9-1.2
			c1.2-1.1,2.3-3.6,1.9-5.7c-0.4-2.1-1.8-3.5-3.7-4.6s-4.3-2.8-5-3.8c-0.7-1-0.8-2-0.4-2.7c0.4-0.8,1-1,2.2-0.9
			c1.1,0.1,2.1,0.4,2.1,0.4S168.1,165.9,168.2,166.1z"/>
	</g>
	<g>
		<path d="M179.3,67.4c0,0,4.8-0.2,6.2-0.2s3.8,0.4,4.7,0.7s1.5,0.8,1.8,0.8s1.5-0.8,2.1-0.9c0.6-0.1,3.7-0.4,8-0.2
			c4.3,0.2,6.5,0,8.2-0.6c1.7-0.6,2.7-1.6,3.1-1.7c0.5-0.1,1.2-0.1,1.7,0.7c0.5,0.8,1,1.7,1.5,1.9c0.5,0.2,3-0.3,4.1-0.2
			c1.1,0.1,2.9,0.4,3,2.3c0.1,1.9-0.4,5.3-0.2,6.3c0.2,1,0.8,1.5,2.7,1.4c1.9,0,3.9,0.2,4.5,2c0.6,1.7,0.5,3.2-0.4,4.4
			s-2.2,1.3-3.8,1.4c-1.6,0.1-2,0-2.3,0.6c-0.3,0.7-0.5,2.8-0.4,4.6s0.2,3.9,0.1,4.5c-0.1,0.6-0.3,4.2-0.3,5.3
			c0.1,1,0.2,4.1,0.1,4.7c0,0.6,0.3,1.7,1.2,2.1c0.9,0.4,3.1,0.2,3.8,0.3c0.7,0.1,1.4,0.8,2,1.7c0.6,0.9,1,2.3,0.3,3.9
			c-0.7,1.6-2.1,2.2-3.5,2.4s-2.7,0-3.4,0.5c-0.7,0.5-0.9,1.1-1,4c-0.1,2.9-0.3,5-0.8,5.7c-0.5,0.7-2.4,1-4,1
			c-1.6,0-12.1-0.2-14.2-0.2c-2.1,0-6.8-0.1-7.2-0.1c-0.4,0-1.3-0.2-2.1,0.6c-0.9,0.8-1.6,1.9-2.8,1.9c-1.2,0.1-2.3-0.5-3.7-1.3
			c-1.4-0.8-2.6-1.1-3.2-1c-0.6,0.1-1.8,0.1-2.8,0s-12-0.3-14-0.2c-2,0.1-5.5,0.1-7-0.5c-1.6-0.6-1.4-1.1-1.4-2.9
			c0-1.8,0.3-3.7,0.3-4.8s-0.7-2.6-1.6-2.8c-0.9-0.2-2.8,0.3-4.5-0.8c-1.7-1.1-2.1-3.3-1.7-4.3s1-2.5,3.2-2.6
			c2.2-0.1,3.5-0.4,4.1-0.8c0.6-0.4,0.6-2.6,0.5-3.9c-0.1-1.3-0.5-6.8-0.4-8.6c0.1-1.7,0.3-1.6,0.3-2.5s-0.2-3.2-0.1-4.3
			c0.1-1.1,0.3-1.4-0.3-1.9c-0.6-0.5-2.1-0.8-3.9-0.9c-1.7-0.1-3.6-0.8-3.7-2.7s0.9-4.3,3.3-4.4c2.4-0.1,3.3-0.1,4-0.8
			c0.7-0.6,0.5-2.1,0.5-3.2c0-1.1-0.6-4.2,0.3-5.3c0.9-1.1,2.2-1.5,4.5-1.2c2.3,0.3,3.3,0.2,3.7-0.6s0.5-1,1.1-1.1
			c0.6-0.1,1.6-0.2,2.9,0.4C173.8,66.6,175.8,67.4,179.3,67.4z"/>
		<path fill="#FFFFFF" d="M175,69c0,0,1.2,0.7,3.7,0.7c2.5-0.1,5.3-0.4,6.6-0.5c1.3-0.1,3.3,0.2,3.8,0.7c0.5,0.5,0.9,2.4,1.1,4.9
			c0.2,2.5-0.2,4.7-0.2,6.3c0,1.6,0,11,0,12c0,0.9,0,9.8,0.1,10.7c0,0.9-0.3,4.2-0.4,5.7c-0.1,1.4,0,5.5,0,6s-0.2,0.9-1.4,0.7
			c-1.2-0.2-1.9-0.3-4.1-0.4s-3.4,0.1-4.1,0c-0.6-0.1-1.7,0-2.2,0.1s-1,0.2-1.5,0.1c-0.6-0.1-2-0.2-3-0.3c-1-0.1-2-0.4-2.5-1
			c-0.5-0.6-0.3-2.3-0.2-3.6c0.1-1.3,0.2-7.9,0.1-9.9c-0.1-1.9-0.3-9.9-0.3-11.8c0.1-1.9,0.2-10.5,0.2-12.6c0-2,0-5.9,0-6.7
			s0.3-1.4,0.7-1.6c0.3-0.2,0.8-0.2,1.8,0C174.1,68.7,175,69,175,69z"/>
		<path fill="#FFFFFF" d="M168.5,73.6c0,0-0.1,5,0,6.8c0.1,1.8,0,4.5,0,5.9c0,1.4-0.1,8.6,0,10.3c0,1.7,0,12.5-0.1,13.9
			c0,1.3,0.1,4,0,4.5s-0.6,2-1.2,2.4c-0.6,0.5-1.6,0.4-1.4-0.7c0.2-1.1,0.2-1.6,0.1-3c-0.1-1.5,0-4.1,0-5.3
			c-0.1-1.3-0.2-11.4-0.2-12.5s0.2-14.8,0.1-16.8c-0.1-2-0.1-4,0.1-5c0.1-1,0.5-2.1,1-2.8c0.6-0.7,0.8-0.6,1-0.2
			C168.2,71.3,168.4,72.4,168.5,73.6z"/>
		<path fill="#AD8B3A" d="M165.1,70.8c0,0-1,2-1,4.7c-0.1,2.7,0,11.5,0,12.7c0,1.3,0.1,11,0,13.1c-0.1,2,0,13.8,0.1,16.1
			c0.1,2.3,0.2,2.9,0.7,3.4c0.5,0.5,1,0.8,2.3,0.9c1.3,0.1,9.5,0.2,11.8,0.2s6,0.2,6.9,0.4c0.9,0.2,1.3,0.8,1.2,1.2
			s-0.7,0.7-2.1,0.8s-12.6-0.2-14-0.1c-1.4,0.1-1.8,0.2-2.3,0.1c-0.5-0.1-1.2-0.1-1.7-0.1c-0.5,0-2.5,0-3.2-0.1
			c-0.7-0.1-1.5-0.9-1.6-2.5c0-1.6,0-4.8-0.2-5.6s-1.1-2.4-2.7-2.5c-1.6-0.1-3.1,0.2-4-0.5c-0.9-0.7-1.2-1.9-0.5-2.5
			c0.7-0.6,2-0.8,3.3-0.8s3-0.5,3.3-2c0.3-1.4,0.6-6.1,0.5-8.6c-0.1-2.5-0.1-11.4-0.1-12.4s-0.1-2.5-1.2-3.1
			c-1.1-0.6-2.5-0.6-3.7-0.6c-1.2,0-2.1,0-2.6-1s0-2.2,2.3-2.5c2.3-0.2,3.9-0.1,4.6-1.2c0.8-1.1,0.7-1.9,0.7-3.7
			c0-1.8,0.2-4.1,0.7-4.8s1.2-0.6,1.7-0.6s1.2,0.6,1.2,0.6S165.3,70.4,165.1,70.8z"/>
		<path fill="#FFFFFF" d="M170.7,120.2c0,0,10.3-0.2,11.3-0.2c1,0,1.8,0.2,2.9,0.3s2.1,0.5,3,0.2s1-1,0.7-1.6
			c-0.3-0.6-1.8-1.1-4.2-1c-2.4,0.1-6.2,0.1-7.5,0.1c-1.2,0-3.6-0.5-5-0.7c-1.4-0.2-1.9-0.4-2.4,0c-0.5,0.4-1.4,1-1.4,1.5
			s0.1,1.2,1,1.2C170.1,120.2,170.7,120.2,170.7,120.2z"/>
		<path fill="#AD8B3A" d="M190.1,121.3c0,0-0.9,1.3-0.8,2.4c0.1,1.1,1,2.4,1.9,2.5c0.9,0.1,2.3,0,2.6-0.9c0.3-0.8,0.5-2.2-0.3-3.2
			S191.1,119.9,190.1,121.3z"/>
		<path fill="#AD8B3A" d="M199.1,124c0,0,13.6,0.1,14.7,0.1s5,0,5.5-0.1c0.6-0.1,0.6-0.2,1-0.6c0.4-0.3,0.5-0.4,0.7-1.3
			c0.1-0.9,0.7-6.2,0.7-7.2s0.5-1.7,1.7-2c1.1-0.2,3.3,0.3,4.5-0.2s1.7-1.5,1.3-2.3s-1.7-1.3-3.8-1.3c-2.1,0.1-2.5,0-3.1-1
			c-0.6-1-0.8-5.4-0.7-6.8c0.1-1.4,0.3-9.8,0.3-11.4c0-1.6,0-4-0.1-4.5c-0.1-0.5,0.2-1.4,0.9-1.9s2.8-0.4,3.8-0.4
			c1,0,2.4-0.2,2.4-1.8s-1.5-1.9-2.9-1.8c-1.4,0.1-3.2-0.2-3.8-1.3c-0.6-1.1-0.5-3.8-0.4-5.1s0-3-1.1-3.3s-1.9-0.4-2.2,0.4
			s-0.2,0.9,0.2,1.9c0.4,1,0.5,1.3,0.5,2.4c0,1.1,0,12.2,0,13.3c0,1.1-0.1,16.8-0.1,17.9c0,1.1-0.1,7.9-0.1,8.7s-0.2,1.7-0.2,2.4
			s0.1,2.9-0.1,3.6c-0.2,0.8-1.2,1.6-1.8,1.7c-0.6,0.1-10,0.1-11.1,0.1s-4.6-0.2-5.8-0.2s-2.5-0.1-3.5,0.4s-0.8,1.1-0.5,1.4
			C196.4,124.2,198.1,124,199.1,124z"/>
		<path fill="#FFFFFF" d="M195,120.6c0,0,14.8-0.1,16.7-0.1c2,0,3.5,0,3.9-0.1s0.6-0.7,0.4-1.1c-0.3-0.4-1.4-1.7-2-2
			c-0.6-0.3-1-0.2-1.8,0s-4.2,1-7.1,1c-2.9,0-5.3-0.3-6.9-0.3s-3.1,0.1-3.8,0.5c-0.7,0.3-1,0.4-0.7,1
			C194.1,120.2,194.6,120.6,195,120.6z"/>
		<path fill="#FFFFFF" d="M217.4,115.9c0,0,0.1-1.9,0-3.8c-0.1-1.9,0-4.2,0.1-5.1s0.1-5.8,0-7.4c-0.1-1.6,0.2-12.6,0.2-14.2
			c0-1.7-0.1-9.6-0.1-10.7c0-1.1,0-1.8-0.8-3.3c-0.8-1.5-1.3-1.6-1.9-1.4c-0.6,0.2-0.5,2.1-0.6,3.4c0,1.2,0.2,4.5,0.2,6.8
			s-0.2,3.8-0.2,6.9s0,15.4,0,16.9s0.1,8,0,9c-0.1,1,0.1,1.6,0.5,2.5c0.5,0.9,1.3,1.7,1.7,1.8S217.4,117.2,217.4,115.9z"/>
		<path fill="#FFFFFF" d="M195.7,115.9c0,0,4.6,0,6.2,0.1c1.7,0.1,4,0.2,4.8,0.1s1.9-0.2,2.5-0.2c0.6,0,1.6-0.1,2.2-0.5
			c0.6-0.3,0.8-0.7,0.9-1.5c0-0.9,0.3-13.4,0.2-15.9c-0.1-2.5-0.1-4.9,0-6c0.1-1.1,0.1-9.2,0.1-10.6c0-1.3-0.2-6.6-0.1-8.7
			c0-2.1,0.2-3.7,0.1-3.9c-0.1-0.2-0.4-0.8-0.9-0.6c-0.5,0.3-2.6,1.3-7.1,1.4s-8.1,0-8.9,0c-0.8,0-3.1,0.3-3.1,2.4
			s-0.3,11.9-0.3,12.8c0,0.9-0.1,12.8,0,14.6s0.2,8.5,0,10.7c-0.2,2.2-0.4,5-0.4,5.6s0.1,0.6,0.4,0.9s0.8,0.2,1.3,0
			C194.1,116.3,195,115.9,195.7,115.9z"/>
		<path d="M198.6,85.8c0,0,0.1,7.9,0.2,9c0,1,0.1,3.8-0.1,4.8c-0.2,1-0.1,1.5-0.6,1.9c-0.5,0.4-1.1,1.1-1.2,1.5
			c-0.1,0.4,0.1,0.8,0.4,0.9c0.4,0.1,2.7,0,3.6,0.1c1,0,1.2,0.1,1.6,0c0.4-0.1,0.8-0.7,0.6-1.1c-0.2-0.3-1-1.4-1.1-1.7
			c-0.1-0.2-0.2-4.5-0.2-5.8s0-8.2,0-8.8s0-1.1,0.3-1.4c0.2-0.3,1.3-1.5,1.3-2c0-0.5,0-0.7-0.5-1c-0.5-0.2-0.7,0-1.1,0
			c-0.4,0-2.4,0-3,0c-0.5,0-1.2,0.3-1.3,0.8s0.1,0.8,0.5,1.4C198.5,85,198.6,85.2,198.6,85.8z"/>
		<path d="M187.9,102.3c-0.4-0.3-1-1.1-1.6-2.1c-0.6-1-1.4-2.5-2.1-3.4c-0.6-1-0.8-1.2-0.8-1.9s0.3-1,0.6-1.3
			c0.3-0.3,2.8-2.3,3.2-3.5c0.4-1.3,0.5-4.2-0.4-5.4s-3.1-2.8-5.3-2.8c-2.2,0-3.8,0.1-4.7,0.1s-1.6-0.1-1.9,0
			c-0.3,0.1-0.8,0.6-0.7,1s0.3,0.5,0.7,0.8c0.4,0.3,1.2,1,1.2,3.3c0.1,2.3-0.2,7.4-0.2,8.8c0,1.3,0,4.9,0,4.9s-0.9,1-1.2,1.4
			c-0.3,0.4-0.3,0.9-0.1,1.2s1.2,0.2,2,0.3c0.7,0,2.6,0.1,3,0c0.4-0.1,0.8-0.5,0.8-0.7c0-0.2-0.2-0.6-0.8-1.3s-0.8-1-0.8-1.7
			s-0.1-2.5,0.1-3.5s0.2-1.4,0.7-1.4c0.4,0,0.7,0.2,0.9,0.6c0,0,0.8,1.9,1.6,2.9c0.8,1,1.9,3,2.4,3.7c0.6,0.7,1.2,1.3,2,1.4
			c0.8,0.1,1.4-0.5,1.4-0.7C188.2,102.7,188.2,102.6,187.9,102.3z M181.1,92.6c-0.8,0-1.5-0.4-1.9-1.1c-0.3-0.7,0-2.5,0-3.4
			c0-0.9,0.1-2.8,0.2-3.4s0.9-1,2-1c0,0,1,0,1.9,0.9c0.9,1,1,1.9,1.2,2.3s0.2,1,0.2,1.5c0,0.5-0.2,1.9-1,2.7
			C182.8,91.9,181.9,92.7,181.1,92.6z"/>
	</g>
	<g>
		<g>
			<path d="M92.9,252.3c0.1,0,0.2,0,0.3-0.1l0.4-0.6c2.7-4.3,3.1-5.1,3.6-6.1c0.5-1,0.6-1.6,0-2.3c-0.2-0.2-0.5-0.5-0.9-0.7
				c-0.3-0.2-0.4-0.3-0.3-0.5c0.1-0.2,0.3-0.2,0.7,0.1c1.3,0.8,2.8,1.8,3.4,2.2c0.6,0.4,2.1,1.2,3.1,1.8c0.3,0.2,0.5,0.4,0.3,0.6
				c-0.1,0.2-0.3,0.2-0.6,0c-0.2-0.1-0.4-0.2-0.7-0.3c-0.7-0.3-1.2,0.1-1.9,1.1c-0.6,0.9-1.1,1.7-3.7,6l-3.1,5
				c-1.6,2.6-3,4.9-3.6,6.2c-0.4,0.8-0.7,1.6,0,2.1c0.3,0.3,0.8,0.6,1.2,0.9c0.3,0.2,0.3,0.3,0.2,0.5c-0.1,0.2-0.4,0.2-0.7,0
				c-1.6-1-3-2-3.7-2.4c-0.6-0.3-2.1-1.2-3.1-1.8c-0.3-0.2-0.5-0.4-0.3-0.6c0.1-0.1,0.2-0.2,0.5,0c0.4,0.2,0.7,0.3,0.9,0.4
				c0.6,0.2,1.1-0.4,1.7-1.1c0.9-1.1,2.2-3.4,3.8-6l1.5-2.5c0.1-0.1,0-0.2,0-0.3l-9.2-5.6c-0.1,0-0.2-0.1-0.2,0.1l-1.5,2.5
				c-1.6,2.6-3,4.9-3.6,6.2c-0.4,0.8-0.7,1.6,0,2.1c0.3,0.3,0.8,0.6,1.2,0.9c0.3,0.2,0.3,0.3,0.2,0.5c-0.1,0.2-0.4,0.2-0.7,0
				c-1.6-1-3-2-3.7-2.4c-0.6-0.3-2.1-1.2-3.1-1.8c-0.3-0.2-0.4-0.4-0.3-0.6c0.1-0.1,0.2-0.2,0.5,0c0.4,0.2,0.7,0.3,0.9,0.4
				c0.6,0.2,1.1-0.4,1.7-1.1c0.9-1.1,2.2-3.4,3.8-6l3.1-5c2.7-4.3,3.1-5.1,3.6-6.1c0.5-1,0.6-1.6,0-2.3c-0.2-0.2-0.5-0.5-0.9-0.7
				c-0.3-0.2-0.4-0.3-0.3-0.5c0.1-0.2,0.3-0.2,0.7,0.1c1.3,0.8,2.8,1.8,3.4,2.2c0.6,0.4,2.1,1.2,3.1,1.8c0.3,0.2,0.5,0.4,0.3,0.6
				s-0.3,0.2-0.6,0c-0.2-0.1-0.4-0.2-0.7-0.3c-0.7-0.3-1.2,0.1-1.9,1.1c-0.6,0.9-1.1,1.7-3.7,6l-0.4,0.6c-0.1,0.1,0,0.2,0,0.3
				L92.9,252.3z"/>
		</g>
		<g>
			<path d="M103.5,264c-0.1-0.1-0.2,0-0.3,0.2l-3.2,3.9c-0.6,0.7-1,1.4-1.1,1.7c-0.2,0.6-0.1,1.1,0.7,1.4l0.4,0.2
				c0.3,0.1,0.4,0.2,0.3,0.4c-0.1,0.2-0.3,0.3-0.6,0.1c-0.8-0.3-1.9-0.9-2.7-1.2c-0.3-0.1-1.8-0.6-3.1-1.1c-0.3-0.1-0.5-0.3-0.4-0.5
				c0.1-0.2,0.2-0.2,0.4-0.1c0.2,0.1,0.6,0.2,0.8,0.3c1.3,0.3,2.2-0.6,3.3-1.9l14.2-17c0.7-0.8,1-1.1,1.2-1c0.2,0.1,0.3,0.4,0.3,1.3
				c0,2-0.8,16.3-1,21.7c-0.1,3.2,0.5,3.9,1,4.3c0.4,0.2,0.7,0.4,1.1,0.6c0.2,0.1,0.3,0.2,0.2,0.4c-0.1,0.2-0.4,0.2-1.3-0.2
				c-0.9-0.4-2.9-1.1-4.9-2c-0.5-0.2-0.8-0.3-0.7-0.6c0.1-0.2,0.2-0.2,0.5-0.1c0.2,0,0.5-0.2,0.5-0.6l0.5-7.4c0-0.2,0-0.3-0.2-0.3
				L103.5,264z M109.5,264.6c0.1,0.1,0.2,0,0.2-0.1l0.6-8.6c0-0.1,0.1-0.3,0-0.3c-0.1,0-0.2,0.1-0.3,0.2l-5.4,6.7
				c-0.1,0.1-0.1,0.2,0,0.3L109.5,264.6z"/>
		</g>
		<g>
			<path d="M123.5,263.8c1.1-5,1.2-5.9,1.4-6.9c0.2-1.1,0.1-1.7-0.8-2.1c-0.2-0.1-0.7-0.2-1.1-0.3c-0.3-0.1-0.5-0.2-0.4-0.4
				c0-0.2,0.3-0.3,0.7-0.2c1.5,0.3,3.2,0.8,3.8,0.9c0.9,0.2,3.1,0.5,3.9,0.7c1.7,0.4,3.5,1,4.8,2.5c0.6,0.8,1.4,2.7,0.9,4.9
				c-0.5,2.4-1.8,4.5-5.2,6.6c1.7,4.2,3,7.5,4.2,9.9c1.1,2.2,2.2,2.7,2.6,2.9c0.3,0.1,0.5,0.2,0.8,0.3c0.2,0,0.3,0.2,0.3,0.3
				c-0.1,0.3-0.3,0.3-0.6,0.2l-2.6-0.6c-1.5-0.3-2.2-0.6-2.8-1.2c-1-1-1.7-2.8-2.8-5.6c-0.7-2-1.5-4.5-1.8-5.1
				c-0.1-0.2-0.3-0.3-0.4-0.3l-2.4-0.6c-0.1,0-0.2,0-0.3,0.2l-0.1,0.5c-0.6,3-1.2,5.6-1.3,7c-0.1,1-0.1,1.7,0.7,2
				c0.4,0.2,1,0.3,1.3,0.4c0.2,0,0.3,0.2,0.3,0.3c0,0.2-0.3,0.3-0.6,0.2c-1.6-0.3-3.6-0.9-4-1c-0.5-0.1-2.3-0.4-3.4-0.6
				c-0.4-0.1-0.5-0.2-0.5-0.4c0-0.2,0.2-0.2,0.5-0.2c0.4,0.1,0.8,0.1,1,0.1c0.6,0,0.9-0.7,1.2-1.6c0.4-1.3,1-3.9,1.6-6.9
				L123.5,263.8z M126.2,267.1c-0.1,0.4,0,0.5,0.1,0.6c0.5,0.4,1.3,0.6,2,0.8c1.1,0.2,1.5,0.2,2.1-0.1c1-0.5,2.1-1.9,2.7-4.6
				c1-4.6-1.3-6.5-2.9-6.9c-0.7-0.1-1.2-0.2-1.5-0.2c-0.2,0-0.3,0.1-0.3,0.4L126.2,267.1z"/>
		</g>
		<g>
			<path d="M141.3,260.9c-0.6-1.9-1.1-2.2-2.1-2.6c-0.4-0.1-0.9-0.2-1.1-0.2c-0.3,0-0.3-0.1-0.3-0.3c0-0.3,0.3-0.3,0.7-0.3
				c1.5,0,3.1,0.2,4.1,0.2c0.7,0,2.1,0,3.5,0c0.3,0,0.6,0.1,0.6,0.3c0,0.2-0.2,0.3-0.4,0.3c-0.5,0-0.9,0-1.1,0.2
				c-0.2,0.2-0.3,0.4-0.3,0.7c0,0.4,0.2,1.4,0.6,2.6l4.4,15.3l0.1,0c1.3-3.6,5.3-14.3,6-16.5c0.2-0.4,0.3-0.9,0.3-1.2
				c0-0.3-0.1-0.5-0.3-0.6c-0.3-0.1-0.8-0.2-1.1-0.2c-0.3,0-0.5,0-0.5-0.3c0-0.3,0.3-0.3,0.8-0.3c1.4,0,2.6,0.2,3,0.2
				c0.5,0,1.8,0,2.6,0c0.4,0,0.6,0.1,0.6,0.3c0,0.2-0.2,0.3-0.5,0.3c-0.3,0-0.9,0-1.4,0.4c-0.4,0.3-0.8,0.8-1.6,3
				c-1.2,3.1-2,4.9-3.6,9c-1.9,4.8-3.4,8.4-4,10.1c-0.8,1.9-1,2.4-1.4,2.4c-0.4,0-0.5-0.5-1-2.1L141.3,260.9z"/>
		</g>
		<g>
			<path d="M164.7,273.9c-0.1,0-0.2,0.1-0.2,0.3l-0.8,5c-0.2,0.9-0.2,1.7-0.1,2.1c0.1,0.6,0.4,1,1.3,0.9l0.4-0.1
				c0.3-0.1,0.4,0,0.5,0.2c0,0.3-0.1,0.4-0.4,0.4c-0.9,0.1-2.1,0.2-3,0.3c-0.3,0-1.8,0.4-3.3,0.6c-0.4,0.1-0.5,0-0.6-0.3
				c0-0.2,0.1-0.3,0.3-0.3c0.3,0,0.6-0.1,0.9-0.2c1.3-0.4,1.6-1.6,1.9-3.3l3.8-21.8c0.2-1,0.3-1.4,0.6-1.4c0.3,0,0.5,0.2,0.9,1
				c0.9,1.7,7.4,14.5,10,19.3c1.5,2.8,2.4,3.2,3,3.2c0.4,0,0.9,0,1.2,0c0.2,0,0.4,0,0.4,0.2c0,0.3-0.2,0.4-1.2,0.5
				c-1,0.2-3,0.5-5.3,0.7c-0.5,0-0.8,0.1-0.9-0.1c0-0.2,0.1-0.3,0.3-0.4c0.2-0.1,0.3-0.4,0.1-0.8l-3.3-6.7c-0.1-0.2-0.2-0.2-0.3-0.2
				L164.7,273.9z M170.1,271.4c0.1,0,0.2-0.1,0.1-0.2l-3.7-7.8c0-0.1-0.1-0.3-0.2-0.3c-0.1,0-0.1,0.2-0.1,0.3l-1.3,8.5
				c0,0.1,0,0.2,0.1,0.2L170.1,271.4z"/>
		</g>
		<g>
			<path d="M181.8,263.4c-1.7-4.8-2-5.7-2.5-6.6c-0.4-1-0.8-1.5-1.8-1.4c-0.2,0-0.7,0.1-1.1,0.3c-0.3,0.1-0.5,0.1-0.6-0.1
				c-0.1-0.2,0.1-0.3,0.5-0.5c1.4-0.5,3.1-1,3.7-1.2c0.9-0.3,2.9-1.1,3.7-1.4c1.7-0.6,3.5-1.1,5.4-0.4c1,0.3,2.6,1.5,3.4,3.7
				c0.8,2.3,0.8,4.8-0.9,8.3c3.6,2.7,6.5,4.8,8.7,6.2c2.1,1.3,3.3,1.1,3.7,1.1c0.3,0,0.6-0.1,0.8-0.2c0.2-0.1,0.4,0,0.4,0.1
				c0.1,0.3-0.1,0.4-0.4,0.5l-2.5,0.9c-1.5,0.5-2.2,0.6-3,0.4c-1.4-0.3-2.9-1.4-5.3-3.3c-1.7-1.3-3.7-3-4.2-3.4
				c-0.2-0.1-0.4-0.1-0.6,0l-2.3,0.8c-0.1,0-0.2,0.1-0.1,0.3l0.2,0.4c1.1,2.9,2,5.4,2.6,6.7c0.4,0.9,0.8,1.5,1.7,1.4
				c0.4-0.1,1-0.2,1.3-0.3c0.2-0.1,0.4,0,0.4,0.1c0.1,0.2-0.1,0.4-0.4,0.5c-1.5,0.6-3.5,1.2-3.9,1.3c-0.5,0.2-2.1,0.9-3.2,1.3
				c-0.3,0.1-0.6,0.1-0.6-0.1c-0.1-0.2,0-0.3,0.3-0.4c0.4-0.1,0.7-0.3,0.9-0.5c0.5-0.3,0.4-1.1,0.1-2c-0.3-1.4-1.2-3.9-2.3-6.7
				L181.8,263.4z M185.9,264.8c0.1,0.3,0.2,0.5,0.4,0.5c0.6,0,1.5-0.2,2.1-0.4c1.1-0.4,1.4-0.6,1.7-1.2c0.5-1,0.8-2.7-0.1-5.3
				c-1.6-4.5-4.6-4.9-6.1-4.3c-0.7,0.2-1.1,0.4-1.4,0.6c-0.2,0.1-0.2,0.3-0.1,0.5L185.9,264.8z"/>
		</g>
		<g>
			<path d="M201.4,255.6c-2.7-4.3-3.2-5.1-3.8-6c-0.6-0.9-1.1-1.3-2-1c-0.2,0.1-0.7,0.3-1,0.5c-0.3,0.2-0.4,0.2-0.6,0
				c-0.1-0.2,0-0.4,0.4-0.6c1.3-0.8,2.8-1.6,3.5-2c0.7-0.5,2.2-1.5,3.6-2.4c3-1.8,7-4.3,11.6-2.7c2.1,0.7,4.7,2.4,6.8,5.8
				c2.2,3.6,2.6,7.1,2.3,9.6c-0.3,2-1.5,5.6-6,8.3c-0.9,0.5-1.9,1-2.9,1.5c-1,0.5-1.9,0.9-2.5,1.3c-0.3,0.2-0.8,0.5-1.4,0.9
				c-0.6,0.3-1.1,0.8-1.6,1.1c-0.3,0.2-0.5,0.2-0.7,0c-0.1-0.1,0-0.3,0.2-0.5c0.4-0.2,0.6-0.5,0.8-0.6c0.4-0.4,0.1-1.1-0.3-2
				c-0.6-1.3-2-3.5-3.6-6.1L201.4,255.6z M206.3,256.9c1.9,3,3.2,5.2,3.6,5.7c0.5,0.7,1.2,1.8,1.6,2c0.6,0.3,1.9,0.4,3.8-0.8
				c2.4-1.5,3.7-3.1,4.3-5.4c0.6-2.5-0.5-5.4-2.3-8.3c-2.2-3.6-4.9-5.2-6.7-5.7c-3.7-1.2-6.7,0.2-8.6,1.3c-0.5,0.3-1.3,0.9-1.4,1.2
				c-0.1,0.2-0.1,0.4,0.1,0.7c0.6,1,2.1,3.5,3.5,5.7L206.3,256.9z"/>
		</g>
	</g>
</g>
</svg>
